<svg width="185" height="244" viewBox="0 0 185 244" fill="none" xmlns="http://www.w3.org/2000/svg">
<path d="M28.4076 3.83984C28.1185 3.83984 27.5482 4.55859 27.1458 5.4375L26.4154 7.03906L23.8255 4.52734C20.7161 1.51953 16.6263 0 11.5872 0C7.26693 0 4.38802 1.05859 2.1888 3.4375C-0.791669 6.66797 0.157549 14.3867 4.47786 22.1367L6.67708 26.0781L4.52864 27.0977C3.33724 27.6602 1.76693 29.1875 1.01693 30.4883H1.00521C-0.252606 32.6875 -0.342449 35.418 0.805988 36.3789C1.01693 36.5586 1.58724 37.8398 2.07552 39.25C3.1888 42.457 6.04817 46.1367 8.70833 47.7695C12.056 49.8281 14.7552 50 20.6576 48.5391C25.5872 47.3086 26.2786 46.9297 29.2357 43.8594C31.0052 42.0195 32.9271 39.8086 33.4974 38.9297L34.556 37.3281L40.888 43.7773C44.3763 47.3281 49.3451 52.7773 51.9466 55.8984C54.556 59.0273 58.7669 63.8281 61.3255 66.5586C63.8763 69.2969 68.5052 74.8984 71.6263 79C74.7474 83.1094 77.8255 87.0469 78.4857 87.75C79.138 88.4492 81.3958 91.1797 83.4974 93.8086C85.6068 96.4375 87.6888 98.9688 88.1263 99.4375C88.5677 99.8984 88.9271 100.469 88.9271 100.707C88.9271 100.949 89.7161 102.008 90.6771 103.059C91.6458 104.117 94.7279 108.418 97.5286 112.629C100.326 116.84 104.368 122.609 106.497 125.449C108.638 128.277 111.337 132.59 112.497 135.02C114.439 139.07 118.478 146.367 120.658 149.75C121.486 151.027 121.447 151.117 120.236 150.789C119.505 150.609 118.915 150.25 118.915 150C118.915 149.078 108.638 142.59 97.9857 136.777C96.4779 135.957 94.1771 134.57 91.3568 132.93C88.5286 131.289 87.0677 130.207 84.8763 129.238C82.9466 128.387 81.095 127.219 80.7786 126.637C80.4583 126.07 80.0052 125.629 79.7786 125.66C78.1068 125.879 78.0169 125.457 78.4388 119.73C78.8568 114.02 78.7982 113.598 77.1654 110.629C74.6966 106.148 73.4154 104.789 70.306 103.379C65.4779 101.188 62.6771 101.98 61.8372 105.758C61.3958 107.758 61.3255 107.797 58.6068 107.43C54.7865 106.898 52.7279 107.547 51.7083 109.609C50.9154 111.199 50.8685 114.43 51.5872 117.738C51.7357 118.438 51.8763 119.297 51.9271 119.648C51.9583 120 52.5677 120.898 53.2669 121.637C54.638 123.109 54.806 124.117 54.2552 127.75C53.9779 129.578 54.3372 130.988 55.8568 134.027C60.0755 142.469 66.7083 142.797 75.4974 134.988C77.306 133.379 78.9974 132.168 79.2357 132.289C79.4779 132.418 80.8255 133.039 82.2279 133.68C83.6263 134.309 85.9271 135.609 87.3372 136.547C88.7357 137.488 90.3177 138.469 90.8372 138.719C91.3685 138.969 92.845 139.809 94.138 140.578C95.4271 141.348 98.1575 142.887 100.197 143.988C102.247 145.09 105.927 147.309 108.388 148.918C110.845 150.527 113.415 152.207 114.107 152.66C115.986 153.867 122.138 160.059 123.665 160.898C125.189 161.75 126.779 162.52 128.556 163.848C131.747 166.23 137.708 174.188 140.618 179.949C141.408 181.527 142.267 182.969 142.497 183.137C142.747 183.32 143.486 184.398 144.146 185.539C144.818 186.68 145.576 187.609 145.857 187.609C146.126 187.609 146.357 188 146.357 188.469C146.357 188.938 146.927 189.84 147.626 190.48C148.337 191.117 148.908 191.879 148.908 192.18C148.908 192.48 150.029 194.379 151.396 196.387C153.755 199.848 160.396 211.039 160.396 211.559C160.396 212.738 173.517 232.98 174.587 233.449C174.845 233.559 175.076 234.02 175.076 234.469C175.076 235.277 175.868 236.367 179.677 240.73C181.958 243.348 182.798 243.629 184.017 242.148C185.029 240.938 184.486 239.75 179.716 232.75C177.868 230.02 176.326 227.578 176.326 227.328C176.306 227.059 175.447 225.859 174.408 224.648C173.368 223.43 172.517 222.188 172.517 221.887C172.517 221.59 171.798 220.398 170.927 219.25C170.048 218.098 169.326 216.84 169.326 216.449C169.326 216.059 168.447 214.258 167.388 212.449C165.747 209.668 165.505 208.738 165.845 206.469C166.517 201.957 162.747 185.43 159.138 177.078C158.376 175.328 157.517 173.32 157.208 172.617C156.107 170.059 155.279 166.73 154.029 159.789C153.326 155.898 152.208 150.879 151.536 148.629C148.736 139.219 147.396 132.488 148.255 132.199C149.548 131.77 153.306 127.699 154.447 125.5C155.247 123.938 155.376 122.34 155.087 117.84C154.689 111.609 153.947 110.27 150.447 109.5C148.665 109.098 148.587 108.93 148.536 105.469C148.478 102.039 148.337 101.73 145.736 99.4297C143.376 97.3281 142.576 97 139.939 97C136.427 97 135.197 98.1094 133.337 102.969C132.536 105.09 131.947 105.789 131.107 105.629C130.486 105.508 129.036 105.867 127.876 106.43C124.396 108.117 122.896 113.609 125.068 116.707C126.716 119.07 130.017 122.52 130.626 122.52C130.927 122.52 131.966 123.168 132.927 123.957C133.896 124.75 135.357 125.828 136.158 126.348C137.505 127.23 138.279 127.949 140.978 130.887C142.228 132.238 144.087 137.637 145.357 143.578C145.915 146.207 146.837 149.949 147.396 151.879C147.958 153.809 149.095 158.828 149.939 163.039C151.638 171.57 152.255 173.707 154.388 178.398C157.427 185.098 159.755 193.469 159.755 197.707C159.755 199.039 158.716 198.5 157.786 196.699C157.286 195.738 156.736 194.809 156.556 194.629C156.376 194.449 155.107 192.438 153.736 190.16C152.357 187.879 151.017 185.867 150.747 185.68C150.158 185.27 146.997 180.66 146.997 180.207C146.997 179.73 138.868 166.66 136.708 163.68C130.826 155.527 121.337 140.809 119.845 137.52C118.036 133.527 117.536 132.578 114.447 127.297C112.177 123.398 107.767 115.898 106.536 114.098C105.298 112.297 104.197 111.078 100.708 100.328C97.2357 89.5781 95.7669 85.0977 94.8958 82.6367C94.0286 80.1797 93.0169 77.0195 92.6458 75.6172C92.2865 74.2188 91.6068 72.207 91.1458 71.1484C88.2982 64.6484 85.4466 53.6484 86.5872 53.5273C89.3763 53.2578 91.7279 52.0391 94.7357 49.3281C97.7279 46.6289 99.138 43.8594 99.138 40.6797C99.138 37.7891 97.345 31.1172 96.3958 30.4805C95.5052 29.8789 90.4154 30.168 88.7669 30.9102C87.9075 31.2969 87.6458 31.1172 87.6458 30.0898C87.6458 28.5391 84.0872 24.25 82.7982 24.25C82.306 24.25 81.9075 23.9883 81.9075 23.6484C81.9075 22.8086 76.806 21.8594 74.8958 22.3398C72.345 22.9883 70.5755 26.75 70.4661 31.75C70.4271 33.3672 70.1458 33.8281 69.1771 33.8281C65.6771 33.8281 63.2161 36.8203 62.3763 42.1172C61.7865 45.7383 64.4075 50.957 67.6966 52.75C70.9466 54.5195 75.306 55.5898 78.3763 55.3789L80.8958 55.1992L81.3958 58.5469C81.6771 60.3867 82.595 63.8281 83.4583 66.1992C86.6966 75.1602 87.6068 77.7969 90.7786 87.5078C92.5677 92.9883 94.0052 97.7305 94.0052 98.0391C93.9857 98.6797 91.8255 96.207 88.1185 91.25C86.6771 89.3281 84.7552 87 83.8568 86.0898C81.306 83.5078 78.0755 79.2891 78.0755 78.5391C78.0755 78.1602 77.8372 77.8594 77.5286 77.8594C77.2279 77.8594 76.1458 76.6367 75.138 75.1602C74.1263 73.6797 72.3568 71.4688 71.2161 70.2383C70.0755 69.0195 69.1458 67.6797 69.1458 67.2578C69.1458 66.8477 66.7786 64.0703 63.8763 61.0898C60.9857 58.1172 57.5482 54.418 56.2357 52.8867C54.9388 51.3477 52.9661 49.0898 51.8763 47.8672C50.7865 46.6367 48.9857 44.5273 47.8763 43.1797C46.7669 41.8281 44.638 39.4375 43.1458 37.8672C40.6654 35.2578 39.5052 33.1797 40.9857 32.8672C42.4583 32.5469 43.2474 31.3281 43.9388 29.8398C45.2786 26.9492 45.5951 20.4492 44.8255 12.1289C44.3685 7.21875 43.6458 5.26953 41.6185 3.41797C39.7982 1.76953 35.3685 -0.632812 32.1576 1.39844C28.9466 3.42969 28.7083 3.83984 28.4076 3.83984ZM12.7669 5.14844C14.5169 5.13672 16.2357 5.4375 17.4271 6.04688C19.806 7.27734 21.6576 10.3672 23.4974 16.1094C26.2865 24.8477 28.2083 28.0781 30.5872 28.0781C32.6576 28.0781 32.6263 26.2578 30.4857 19.2188C28.8763 13.9492 28.8568 13.707 29.8685 10.5977C30.4271 8.83984 31.3685 6.88672 31.9388 6.25781C34.1263 3.83984 38.6263 5.60937 39.2865 9.14844C39.9388 12.6484 39.8372 23.8867 39.1458 25.75C37.2357 30.8281 35.8763 31.8672 34.0286 29.6484C33.1068 28.5391 30.1458 28.9102 28.0052 30.3984C26.5286 31.4297 21.1068 31.5586 19.3372 30.6172C18.6576 30.25 18.0951 29.418 14.8372 27.4297C11.5755 25.4297 10.1771 23.7695 7.77864 18.1484C6.55599 15.2695 5.97786 12.8281 5.97786 10.5195C5.97786 7.33984 6.10677 7.04687 7.98567 6.11719C9.24739 5.48047 11.0169 5.16016 12.7669 5.14844ZM77.6263 26.8477C78.4779 26.9297 79.556 27.5391 80.6771 28.668C82.2865 30.2773 82.5169 31.0078 82.5169 33.9375C82.4974 35.8086 82.1263 39.1992 81.6966 41.4883L80.9075 45.6289L78.4466 41.9688C76.2982 38.7578 75.9661 37.7773 75.806 33.9883C75.7083 31.6172 75.7669 29.0273 75.9388 28.2383C76.1575 27.2383 76.7865 26.7773 77.6263 26.8477ZM9.84505 31.3281C10.7161 31.4102 11.5677 31.7695 12.4271 32.418C15.9974 35.1094 19.1263 35.9375 24.1888 35.5586C26.8451 35.3594 29.4076 34.8672 29.888 34.4805C30.3568 34.0898 30.9076 34.0078 31.0872 34.3203C31.2786 34.6289 29.6576 36.7773 27.4779 39.1094C24.2357 42.5703 22.9661 43.4688 20.4661 44.0781C13.9154 45.6992 9.8763 44.0273 7.25521 38.6289V38.6172C5.61849 35.25 5.60677 32.7891 7.20833 31.9297C8.10677 31.4492 8.98567 31.25 9.84505 31.3281ZM92.7357 33.8281C94.2552 33.8281 95.595 37.6289 95.056 40.3672C94.5052 43.0977 92.1263 46 89.0169 47.75H88.9974L86.3568 49.2188L86.4154 46.4688C86.4388 44.9492 86.7279 43.0391 87.056 42.2188C87.388 41.3984 87.806 39.8203 87.9857 38.707C88.3568 36.457 90.9154 33.8281 92.7357 33.8281ZM69.138 38.2891C69.3763 38.2891 70.6771 39.8867 72.0169 41.8398C73.3685 43.7969 75.7083 46.25 77.2357 47.2969C78.7474 48.3398 79.9974 49.4102 79.9974 49.668C79.9974 49.9297 79.1771 50.4492 78.1771 50.8203C76.6458 51.3984 75.7474 51.2305 72.5365 49.7695C70.4271 48.8203 68.4583 47.4883 68.1575 46.8281C67.0365 44.4102 67.7357 38.2891 69.138 38.2891ZM140.415 101.008C141.126 101.02 141.927 101.738 142.908 103.199C144.029 104.867 144.189 105.719 143.806 107.84C143.548 109.277 143.216 110.52 143.087 110.609C142.958 110.688 142.357 111.137 141.755 111.59C140.818 112.309 140.439 112.18 139.036 110.68C137.197 108.688 137.048 106.68 138.497 103.188C139.095 101.738 139.708 101.008 140.415 101.008ZM67.3177 106.57C68.1654 106.57 71.0755 109.949 72.3763 112.449C73.6888 114.969 74.1263 121.879 72.9857 121.879C72.638 121.879 71.5286 120.09 70.5286 117.898C69.5169 115.699 68.0872 113.359 67.3255 112.688H67.306C65.4466 111.027 65.4388 106.57 67.306 106.57H67.3177ZM130.247 110.078C130.837 110.047 131.888 110.957 134.236 113.367C137.247 116.449 138.068 117.707 138.068 119.27C138.068 120.359 137.896 121.25 137.677 121.25C136.357 121.25 130.978 116.488 129.779 114.25C128.966 112.738 128.966 111.629 129.779 110.398C129.908 110.199 130.056 110.09 130.247 110.078ZM57.2357 111.668C58.9388 111.668 61.1263 113.809 62.8568 116.25C64.5755 118.68 66.5872 121.078 66.5872 122C66.5872 122.668 60.056 121.84 59.056 121.047C58.5872 120.68 57.806 119.598 57.3177 118.637C56.8177 117.68 56.2669 115.719 56.0872 114.289C55.7865 111.887 55.8763 111.668 57.2357 111.668ZM148.915 113.047C150.447 113.258 150.505 113.457 150.505 117.84C150.505 121.98 150.326 122.629 148.556 124.82C145.626 128.43 145.216 128.258 144.947 123.359C144.806 120.969 144.486 118.578 144.236 118.039C143.497 116.48 146.978 112.77 148.915 113.047ZM60.3255 127.758C61.0169 127.617 62.3255 127.68 64.8372 127.809C67.7357 127.957 70.6771 128.238 71.3763 128.438C72.0872 128.637 73.0169 128.828 73.4583 128.859C75.9974 129.008 72.095 133.699 67.8255 135.629C64.5872 137.078 62.6771 136.297 60.8763 132.777C60.1576 131.379 59.5755 129.617 59.5755 128.879C59.5755 128.238 59.638 127.898 60.3255 127.758Z" fill="#1A1A1A"/>
</svg>
