<svg width="20" height="95" viewBox="0 0 20 95" fill="none" xmlns="http://www.w3.org/2000/svg">
<path d="M14.2188 94.4226C14.2211 94.3936 14.2197 94.3637 14.2141 94.3347C13.4192 90.0021 11.9171 87.8505 9.16183 86.0076C9.08633 85.9564 8.99253 85.9369 8.90155 85.9505C8.55076 84.61 8.23749 82.9784 7.95517 81.1654C7.91343 80.7144 7.85434 80.2256 7.77414 79.6939C7.7657 79.644 7.74647 79.5978 7.7188 79.5561C7.53637 78.2164 7.37082 76.7961 7.2231 75.3177C7.83042 76.3015 8.58218 77.2381 9.41039 78.0124C10.754 79.2668 12.3171 80.1223 13.8455 79.9296C13.9486 79.9169 14.041 79.8612 14.0987 79.7764V79.7777C14.1564 79.6939 14.1733 79.5896 14.1456 79.493C13.4637 77.0862 12.6196 75.8082 11.4176 74.9773C10.2724 74.1871 8.87013 73.809 7.01769 73.1149C6.71614 69.6096 6.50979 65.8868 6.39348 62.2668C8.20607 65.5989 11.1644 67.2735 12.8142 67.7831C13.0674 67.8611 13.3183 67.6566 13.2799 67.4023C12.5741 62.7265 9.31566 60.7014 6.33815 60.2462C6.27343 57.4123 6.26592 54.6814 6.32126 52.2315C6.38035 49.6633 6.59045 47.11 6.9314 44.5799C7.85199 47.0402 8.89311 47.2655 9.94361 48.1568C10.5917 48.7067 11.0588 49.2838 11.5991 49.7118C12.1408 50.1402 12.8259 50.3896 13.6616 50.1597C13.8309 50.1135 13.9402 49.9557 13.921 49.7862C13.664 47.596 12.8789 46.1349 11.6615 45.0582C10.5125 44.0413 9.01176 43.3636 7.2231 42.6219C7.83276 38.8863 8.72991 35.2083 9.86529 31.621C10.217 34.1357 11.4406 34.9495 12.3532 36.1622C12.9568 36.9664 13.6724 37.5177 14.3881 37.6351C14.7468 37.694 15.1323 37.6174 15.4048 37.3658C15.6773 37.1151 15.8189 36.7379 15.8541 36.2655C15.8541 36.2587 15.855 36.2515 15.855 36.2461C15.8803 34.7858 15.4662 33.696 14.5527 32.7303C13.664 31.7906 12.3302 30.9469 10.4646 29.814C11.2066 27.6447 12.0324 25.5108 12.9343 23.4204C13.1744 22.9888 13.3915 22.506 13.5777 21.9661C13.7085 21.6759 13.837 21.3849 13.9702 21.097C14.4636 20.0362 14.8922 19.0044 15.2594 17.9961C15.4011 20.5539 16.1936 21.7956 17.3163 23.5297C17.5888 23.9508 17.8622 24.2768 18.153 24.4998C18.4438 24.7224 18.7978 24.8607 19.1458 24.7469C19.4929 24.6322 19.7006 24.3162 19.8254 23.9218C19.9501 23.5261 20.0068 23.0106 19.9993 22.3387C19.9862 21.0716 19.3897 19.7565 18.584 18.5973C17.8121 17.4852 16.8432 16.515 15.9441 15.8858C17.5096 10.3681 17.0593 5.47968 14.5499 0.252144C14.4458 0.0340881 14.178 -0.0606613 13.9533 0.0404358C13.7278 0.141533 13.6302 0.400391 13.7348 0.617996C16.8886 7.1888 16.71 13.0021 13.2213 20.5838C11.9893 20.7674 10.6888 21.0249 9.48496 21.8618C8.20044 22.7554 7.05849 24.2931 6.18338 26.9914C6.09569 27.2653 6.36816 27.5196 6.64814 27.423C7.42476 27.1564 8.90155 26.9484 10.3422 26.1069C10.5809 25.9669 10.8187 25.8086 11.0527 25.63C9.87843 28.5954 8.85325 31.6373 8.01519 34.7396C7.99737 34.7405 7.97955 34.7441 7.96267 34.7477C6.09803 35.2269 4.68595 35.9695 3.63686 37.0675C2.58777 38.1664 1.91057 39.6022 1.45191 41.4255C1.37265 41.7433 1.7483 41.9813 2.01843 41.785C2.88181 41.154 4.17102 41.198 5.46632 40.5515C5.98501 40.294 6.47884 39.9154 6.91686 39.3388C6.16181 42.9932 5.66939 46.7152 5.48696 50.4743C3.71377 51.187 2.58026 51.8103 1.7891 52.9383C0.975434 54.0988 0.546792 55.72 0.00653553 58.4487C-0.0441141 58.7062 0.208194 58.9234 0.467536 58.8454C1.76988 58.4473 3.30295 57.5121 4.46647 56.1239C4.81351 55.7109 5.12679 55.2558 5.38847 54.7616C5.36456 58.4197 5.4546 62.4876 5.66001 66.5423C4.25496 67.2468 3.34516 67.5764 2.62857 68.4781C1.85148 69.4555 1.38344 70.9851 0.670133 74.2442C0.612449 74.5062 0.870852 74.7302 1.13488 74.6468C2.66561 74.1558 3.91074 73.4073 4.81586 72.1515C5.24075 71.5595 5.59013 70.8622 5.8687 70.0322C6.10647 73.5093 6.42819 76.8772 6.84135 79.8462C5.29749 81.5544 4.50962 82.9924 4.16023 84.3198C3.78928 85.7347 3.91918 87.0032 4.10396 88.2902C4.14851 88.6071 4.57434 88.7023 4.75817 88.4376C5.50009 87.3677 6.49056 86.9674 7.22544 85.8893C7.42241 85.6001 7.5903 85.2696 7.72115 84.8725C7.87966 85.5838 8.04521 86.2488 8.21967 86.8477C8.23608 86.9034 8.26281 86.9547 8.29986 86.9996C7.71177 88.9077 8.18215 90.7229 9.17262 92.0983C10.3099 93.6742 12.1131 94.7105 13.8539 94.7441C14.0448 94.7477 14.2042 94.6063 14.2188 94.4226ZM13.3652 93.9004C12.0516 93.7032 10.6625 92.9488 9.76353 91.6999C8.82558 90.4001 8.45978 88.7046 9.14401 86.8862C11.3805 88.4852 12.6196 90.3258 13.3652 93.9004ZM13.2353 79.1403C12.168 79.0741 10.9974 78.5265 9.91219 77.5119C8.86779 76.5372 8.00347 75.2547 7.36707 73.9831C8.89171 74.5352 10.1246 74.9392 10.9988 75.5439C11.9447 76.1972 12.6257 77.2639 13.2353 79.1403ZM12.3509 66.8188C10.6733 66.1093 8.14885 64.3236 6.69222 61.0808C9.12244 61.5822 11.5283 63.2093 12.3509 66.8188ZM19.1988 23.4716C19.1805 23.5655 19.1589 23.6466 19.1374 23.7187C19.0473 24.0043 18.9442 24.0773 18.9118 24.0891C18.8794 24.0995 18.788 24.0995 18.5995 23.9545C18.41 23.8094 18.1699 23.5378 17.9251 23.1607C16.657 21.2027 15.9474 20.0385 15.992 16.8609C16.6799 17.4249 17.3965 18.1362 17.9874 18.9858C18.7425 20.0734 19.2696 21.2897 19.2804 22.3455C19.2851 22.817 19.2527 23.1928 19.1988 23.4716ZM7.19308 84.0578C7.07396 84.6938 6.87137 85.1463 6.62516 85.5071C6.15337 86.1989 5.44147 86.7026 4.74504 87.4325C4.63577 86.4542 4.59122 85.5085 4.859 84.4916C5.13523 83.439 5.83775 82.2367 6.98767 80.8544C7.08006 81.4637 7.1762 82.0513 7.27562 82.6198C7.29251 82.9888 7.29157 83.3197 7.26249 83.5854C7.24467 83.7536 7.22075 83.9105 7.19308 84.0578ZM13.1092 49.5087C12.711 49.5354 12.3987 49.4448 12.0554 49.1732C11.6113 48.8219 11.1212 48.2321 10.4177 47.6346C9.12338 46.5366 8.2675 46.5225 7.35253 43.4565C8.90859 44.1157 10.2353 44.7377 11.1765 45.5709C12.1947 46.4726 12.825 47.6853 13.1092 49.5087ZM15.1108 36.4061C15.0676 36.6486 14.986 36.7923 14.9091 36.8631C14.813 36.9528 14.706 36.9827 14.5091 36.9492C14.1156 36.8853 13.4661 36.4582 12.9352 35.7528C11.8392 34.2948 10.7109 33.6543 10.5509 30.703C12.1178 31.6672 13.3123 32.4484 14.0218 33.1996C14.8308 34.0546 15.1553 34.8951 15.1347 36.2225C15.1286 36.2887 15.1215 36.3503 15.1108 36.4061ZM5.55074 68.1952C5.25997 69.7307 4.82899 70.913 4.22495 71.7521C3.55666 72.682 2.64498 73.2468 1.55274 73.6902C2.15772 71.0603 2.62481 69.625 3.19884 68.902C3.72831 68.2369 4.52884 67.8819 5.6994 67.3062C5.65391 67.6135 5.60467 67.9109 5.55074 68.1952ZM12.8658 21.3708C12.484 22.2055 12.1154 23.0478 11.7585 23.8973C11.2173 24.63 10.6025 25.1427 9.97128 25.5117C8.97565 26.0943 8.00675 26.3286 7.16776 26.5526C7.96267 24.4463 8.89171 23.1316 9.9061 22.4258C10.8258 21.7866 11.8308 21.5449 12.8658 21.3708ZM5.2914 52.9872C5.25997 53.1622 5.21683 53.334 5.16055 53.4977C4.88433 54.3183 4.44256 55.0504 3.90839 55.6878C3.0211 56.745 1.89978 57.4436 0.879294 57.8788C1.34264 55.6774 1.75815 54.2231 2.3847 53.3281C3.00046 52.4509 3.94169 51.9182 5.37065 51.3135C5.39223 51.8901 5.38847 52.46 5.2914 52.9872ZM7.56639 35.6354C7.05145 38.3768 6.14587 39.4295 5.13757 39.9331C4.29717 40.352 3.32452 40.5075 2.40018 40.8883C2.82506 39.5129 3.36532 38.3768 4.16492 37.5399C4.98891 36.6785 6.12429 36.0833 7.56639 35.6354Z" fill="#9BAF8A"/>
</svg>
