<svg width="38" height="41" viewBox="0 0 38 41" fill="none" xmlns="http://www.w3.org/2000/svg">
<path d="M13.4585 0.0298132C13.7565 0.0830275 14.075 0.205199 14.2776 0.37164C14.6813 0.703202 14.9672 1.53501 14.8392 2.00767C14.6955 2.54147 14.2361 3.28804 13.935 3.47756C13.7888 3.56933 13.6664 3.67626 13.6624 3.71443C13.6584 3.7526 13.7897 4.26865 13.9539 4.86073C14.1187 5.45287 14.4796 6.92498 14.7566 8.13253C15.033 9.34002 15.2929 10.2993 15.333 10.2632C15.373 10.2276 15.4578 9.94221 15.5195 9.62903C15.7225 8.61304 16.0493 8.19525 16.8413 7.94039C18.04 7.55434 18.8047 8.69969 18.2315 10.0247C18.1462 10.2225 18.0282 10.369 17.9691 10.3502C17.9107 10.3308 17.8629 10.347 17.8662 10.3866C17.8761 10.5725 17.7983 10.6818 17.4392 10.985C17.1039 11.2689 16.7113 11.5012 15.945 11.8682C15.7794 11.9476 15.772 11.9796 15.871 12.1893C15.9318 12.3178 16.0296 12.555 16.0881 12.7161C16.146 12.8777 16.383 13.3749 16.6133 13.8207C16.8441 14.2672 17.0324 14.6683 17.0279 14.7116C17.0251 14.755 17.1548 14.9737 17.3162 15.1975C17.477 15.4217 17.5845 15.5177 17.5542 15.4108C17.524 15.304 17.5113 15.0129 17.5267 14.7628C17.5621 14.1952 17.8526 13.7776 18.4008 13.5069C18.7508 13.3346 18.8572 13.3257 19.3127 13.4317C19.7559 13.5353 19.8704 13.6084 20.1279 13.954C20.5542 14.5252 20.6247 15.0493 20.3871 15.879C20.1562 16.6888 19.379 17.8005 18.9473 17.9395L18.6705 18.029L18.8962 18.5901C19.0205 18.8987 19.2511 19.4395 19.4088 19.7925C19.567 20.1455 19.7888 20.6555 19.9027 20.9266C20.016 21.1972 20.1585 21.4909 20.2208 21.5787C20.2823 21.6669 20.3323 21.7782 20.3273 21.8254C20.3241 21.8723 20.4111 22.0479 20.521 22.2144L20.7207 22.5176L20.7792 22.0768C20.8606 21.461 20.8512 21.4842 21.1432 21.1895C21.8464 20.4801 22.3982 20.2138 23.1649 20.2155C23.7467 20.2167 23.7724 20.2459 23.9884 21.1677C24.1217 21.7358 24.127 21.9213 24.0172 22.3354C23.7226 23.4506 22.6724 24.6655 22.1352 24.5135C21.8589 24.4349 22.0764 24.7665 23.2362 26.1918C25.4467 28.9094 26.6391 30.2437 26.8802 30.2691C27.0022 30.2819 26.9546 29.5558 26.803 29.0848C26.3521 27.6845 26.9635 26.6423 28.6383 25.9584C28.7708 25.9044 29.0676 25.8924 29.2974 25.9315C29.6766 25.9967 29.732 26.0405 29.8914 26.3982C30.0385 26.7368 30.0525 26.899 29.9624 27.5375C29.825 28.5103 29.3689 29.2647 28.5048 29.9479C27.9347 30.3995 27.8995 30.4494 27.8211 30.9272C27.7303 31.4781 27.6795 31.3973 28.6836 32.2931C30.0338 33.4971 30.5433 33.9884 32.0644 35.5519C32.2244 35.7173 32.4861 35.9251 32.645 36.0144C32.8038 36.1036 32.9297 36.216 32.9248 36.2632C32.9197 36.3111 33.0108 36.4151 33.1274 36.4948C33.3317 36.6343 35.6774 38.6681 35.8824 38.8832C36.3178 39.3402 36.8488 39.7099 37.4587 39.9808C37.7037 40.0895 37.5716 40.3543 37.247 40.4055C37.0554 40.436 36.8797 40.3968 36.7042 40.2845C36.5611 40.1934 36.3966 40.1139 36.3379 40.1078C36.2251 40.0959 34.505 38.6174 33.9224 38.0315C33.5957 37.7028 33.0947 37.2723 32.5864 36.8837C32.4621 36.7889 32.0145 36.58 31.5912 36.4191C31.1678 36.2589 30.5389 35.9992 30.1929 35.8425C29.5939 35.5716 28.1192 34.9599 27.7497 34.8294C27.6542 34.7958 27.2077 34.6475 26.7576 34.5C25.7671 34.1764 24.7223 33.7014 24.019 33.2554C23.7321 33.0738 23.455 32.9203 23.4026 32.9147C23.3501 32.9092 23.1593 32.8005 22.9791 32.6727C22.5549 32.3724 19.9328 31.045 19.7196 31.0226C19.6763 31.0181 19.6363 31.0588 19.6306 31.1129C19.6114 31.2958 19.0358 32.1453 18.7801 32.369C18.6405 32.4908 18.5548 32.5936 18.589 32.5972C18.7503 32.6141 18.0584 32.959 17.6418 33.0684C16.9673 33.2469 16.6085 33.0865 16.306 32.473C15.9418 31.7332 15.8737 31.3343 16.0638 31.0548C16.2514 30.7773 16.8493 30.4445 17.4838 30.2624C17.7375 30.19 17.9476 30.1043 17.9509 30.073C17.9583 30.0075 17.332 29.4544 17.2391 29.4447C17.2054 29.4411 16.845 29.17 16.438 28.8427C16.0311 28.5154 15.6564 28.2433 15.6056 28.238C15.5549 28.2326 15.306 28.0625 15.0524 27.8602C14.7989 27.6578 14.3214 27.3105 13.9905 27.0879L13.3894 26.6832L12.9203 27.0566C12.4051 27.4684 11.7248 27.7408 10.9748 27.8376C10.2873 27.9261 9.90054 27.7086 9.68384 27.1116C9.54453 26.7266 9.5437 26.6413 9.67521 26.3988C9.92733 25.9351 11.1319 25.34 11.6394 25.4285C11.9382 25.4806 11.9082 25.3548 11.5576 25.0835C11.3902 24.9542 11.2567 24.81 11.2617 24.7627C11.2666 24.716 11.2103 24.6709 11.1362 24.6631C11.0621 24.6554 10.909 24.5442 10.7951 24.4159C10.4075 23.976 10.1471 23.7125 10.0964 23.7072C10.0685 23.7042 9.77465 23.4297 9.44316 23.0971C8.72797 22.3803 8.30347 21.9676 7.99904 21.6955L7.7763 21.4958L7.40545 21.7788C6.49972 22.4692 5.71193 22.6295 5.01967 22.2647C4.80567 22.1518 4.54657 21.9472 4.44406 21.8097C4.25403 21.5564 4.22449 21.1138 4.3983 21.1321C4.45073 21.1376 4.55048 21.0439 4.62184 20.9241C4.69263 20.8042 4.92327 20.6107 5.13476 20.4953C5.5884 20.2469 6.29911 20.2882 6.68963 20.5856C7.07742 20.8815 6.17154 19.7806 5.54153 19.1909C5.23517 18.9041 4.89144 18.5454 4.77833 18.3936C4.66471 18.2411 4.37914 17.9375 4.14344 17.7186C3.90722 17.4991 3.55424 17.1297 3.35852 16.8977L3.00181 16.4761L2.64711 16.6657C2.21123 16.8987 1.5412 16.9417 1.20326 16.7582C0.697963 16.4839 -0.0107137 15.5022 0.000124057 15.0921C0.0100685 14.7125 0.536425 14.0956 1.1001 13.8035C1.48827 13.6024 2.34258 13.7083 2.81612 14.0161C3.31609 14.3411 4.15554 15.3613 4.1292 15.6119C4.11776 15.7207 4.15518 15.9677 4.21329 16.1605C4.27146 16.3526 4.30319 16.5495 4.28494 16.5971C4.24744 16.6962 5.72793 18.2561 5.87752 18.2747C5.93148 18.2821 6.04368 18.1464 6.12694 17.9737C6.21071 17.8017 6.31848 17.6644 6.36635 17.6694C6.41422 17.6745 6.45957 17.6268 6.46633 17.5625C6.48529 17.3876 7.10385 17.0886 7.38537 17.1182C7.70907 17.1522 8.2609 17.4936 8.24456 17.6491C8.23743 17.7169 8.27215 17.7759 8.32059 17.781C8.3696 17.7861 8.52192 17.998 8.66006 18.2515C8.87678 18.651 8.89912 18.7892 8.84619 19.2928C8.79886 19.7158 8.71082 19.9778 8.52164 20.2592C8.37951 20.4712 8.25838 20.6698 8.25515 20.7006C8.25077 20.7312 8.55488 21.0558 8.93074 21.4213C9.30661 21.7868 9.67821 22.1599 9.75679 22.2511C9.9217 22.4418 9.95461 22.4741 10.6112 23.0793C10.8808 23.3271 11.1134 23.5313 11.1282 23.5328C11.1431 23.5338 11.1829 23.3687 11.2158 23.1653C11.3322 22.4524 11.84 21.9143 12.3466 21.9675C12.6093 21.9951 12.7561 22.1114 13.2036 22.6457C13.9489 23.5361 14.0944 23.95 13.976 24.8516C13.9245 25.243 13.8375 25.61 13.782 25.6664C13.7098 25.74 13.8251 25.8817 14.1888 26.1653C14.4684 26.383 14.7936 26.6447 14.9125 26.7465C15.1832 26.9783 17.4274 28.6172 17.4827 28.623C17.5049 28.6254 17.561 28.5143 17.6072 28.3758C17.8211 27.733 18.5399 27.2205 19.0591 27.3413C19.5675 27.4592 19.8547 27.7313 20.071 28.2995C20.2411 28.7471 20.2547 28.9034 20.1646 29.3985C20.107 29.7162 20.0233 30.0414 19.978 30.1213C19.9143 30.2344 19.9815 30.3077 20.282 30.4528C20.4948 30.5546 21.1323 30.8595 21.6996 31.1305C22.2664 31.4009 22.8096 31.6711 22.9069 31.7314C24.3996 32.6544 26.095 33.4967 27.1304 33.8307C27.7702 34.0373 28.6985 34.3872 29.1927 34.6084C30.7849 35.3195 30.895 35.3138 30.0927 34.559C29.8137 34.297 29.5849 34.0507 29.589 34.0119C29.5907 33.9735 29.5393 33.9364 29.4744 33.9296C29.4094 33.9228 29.1757 33.7392 28.9543 33.5219C28.7334 33.3046 28.1795 32.7913 27.7236 32.3811C27.2683 31.971 26.8241 31.5539 26.7372 31.4544C26.5438 31.233 26.4335 31.2139 26.3456 31.3867C26.3086 31.4589 26.134 31.5689 25.9568 31.6315C25.7797 31.6941 25.4799 31.8107 25.2901 31.8903C25.0977 31.9715 24.7932 32.0132 24.6003 31.9843C24.4108 31.9563 24.2257 31.9576 24.1886 31.9871C24.0878 32.0687 23.5133 31.6633 23.2606 31.3326C22.7794 30.7032 22.7944 30.0885 23.3032 29.6385C23.6272 29.3523 23.6991 29.3311 24.2809 29.3548L24.9085 29.381L24.6944 29.1045C24.5767 28.9528 24.5159 28.7961 24.5592 28.7574C24.603 28.7182 24.5812 28.7119 24.5117 28.7426C24.4277 28.7799 23.8502 28.1461 22.7966 26.8604C21.9228 25.7946 21.1967 24.9078 21.1818 24.8902C21.1669 24.873 20.9337 24.9649 20.6625 25.0948C20.3361 25.2511 20.0484 25.3182 19.8079 25.2929C18.5061 25.1578 17.391 23.7562 17.9105 22.9083C18.1414 22.5316 18.5448 22.3995 19.224 22.4773L19.7541 22.5376L19.6477 22.2776C19.589 22.1349 19.4553 21.8392 19.3503 21.6214C19.2452 21.4036 19.1395 21.1592 19.1157 21.0789C19.0913 20.9992 19.0281 20.8652 18.9741 20.7818C18.9206 20.699 18.7419 20.2989 18.5766 19.8934C17.7645 17.905 17.7957 17.9595 17.5746 18.139C17.4839 18.2124 17.3879 18.2646 17.3607 18.2554C17.3334 18.2462 16.9519 18.2308 16.5127 18.221C15.3313 18.1953 14.6073 17.913 14.1503 17.2999C13.7418 16.7513 13.684 16.414 13.946 16.1138C14.1844 15.8411 14.9129 15.5652 15.3009 15.6014C15.6062 15.6294 16.6171 16.1417 16.8557 16.3885C17.0842 16.6263 17.116 16.5541 16.9346 16.2073C16.8386 16.0245 16.6743 15.6858 16.5695 15.4548C16.4641 15.2242 16.2951 14.9185 16.1938 14.7754C16.0924 14.6328 16.0137 14.4771 16.0187 14.4292C16.0237 14.382 15.919 14.1446 15.7872 13.9015C15.6549 13.6584 15.5741 13.4621 15.6089 13.4658C15.6431 13.4694 15.5822 13.3253 15.4748 13.1458C15.3669 12.9663 15.201 12.6102 15.1063 12.3543C15.0116 12.099 14.9202 11.8878 14.902 11.8859C14.8843 11.884 14.6957 11.9736 14.483 12.0843C13.4054 12.6449 11.9671 11.7796 12.0866 10.6431C12.1533 10.0079 12.6872 9.76333 13.6592 9.92308C13.9685 9.97344 14.2617 10.0457 14.3096 10.083C14.4349 10.1797 14.4284 10.1203 14.2388 9.44143C14.1459 9.10797 14.0324 8.59783 13.9873 8.30856C13.869 7.5537 13.3783 5.48563 13.2901 5.37039C13.2491 5.31712 13.228 5.15593 13.2431 5.01237C13.2581 4.86938 13.2345 4.74826 13.1901 4.74358C13.1462 4.73897 13.0835 4.4853 13.0517 4.18013C12.9977 3.66819 12.9678 3.61263 12.6718 3.46863C12.2962 3.28689 11.8463 2.73217 11.6409 2.19796C11.532 1.92387 11.5209 1.70614 11.5879 1.39236C11.6381 1.15573 11.6891 0.933013 11.693 0.896554C11.7192 0.767415 12.3555 0.234126 12.4689 0.246046C12.5322 0.252695 12.6635 0.187017 12.7608 0.0999054C12.8817 -0.00834666 13.1599 -0.0234607 13.4585 0.0298132ZM13.2286 0.649014C13.0837 0.657397 12.9251 0.724247 12.7396 0.849896C12.311 1.14006 12.3454 1.87574 12.8227 2.63032C12.9513 2.83275 13.0061 2.85925 13.13 2.77666C13.2514 2.69611 13.3071 2.70945 13.4182 2.8467C13.5836 3.05011 13.5598 3.07296 13.823 2.4492C13.9408 2.17244 14.0445 1.86598 14.0468 1.76715C14.0669 1.45017 13.872 0.990801 13.6359 0.797801C13.5043 0.690658 13.373 0.640572 13.2286 0.649014ZM17.2885 8.56452C17.2158 8.54882 17.1356 8.54442 17.049 8.55202C16.7943 8.57364 16.4977 9.04356 16.3848 9.60305C16.3288 9.87767 16.2356 10.3258 16.1764 10.5989L16.069 11.0945L16.579 10.7817C16.8912 10.5899 17.1976 10.3007 17.3715 10.0333C17.6484 9.60857 17.6807 9.48755 17.6562 8.95279C17.6473 8.75256 17.5049 8.61031 17.2885 8.56452ZM13.4803 10.573C13.0432 10.5155 12.9893 10.5294 12.9432 10.7164C12.9096 10.8494 12.9771 11.0298 13.1332 11.2219C13.3402 11.4775 13.4281 11.519 13.7419 11.5099C13.9442 11.5041 14.1685 11.4361 14.2412 11.3591C14.3138 11.2821 14.3861 11.1255 14.3981 11.0116C14.4269 10.7704 14.2174 10.67 13.4803 10.573ZM18.9657 14.0035C18.7982 13.9692 18.6433 14.0502 18.4943 14.2454C18.1527 14.6939 18.31 15.2697 18.9958 16.0796C19.2905 16.4285 19.306 16.4347 19.4314 16.2664C19.5025 16.1708 19.5971 16.0114 19.6415 15.9124C19.6853 15.8133 19.7428 15.5406 19.7754 15.3068C19.8224 14.9362 19.789 14.8267 19.5122 14.456C19.3127 14.1885 19.1332 14.0383 18.9657 14.0035ZM17.6269 15.6892C17.5709 15.6902 17.6565 15.9503 17.8834 16.4067C18.0675 16.7768 18.2672 17.1843 18.327 17.3121L18.4363 17.5442L18.683 17.3564C18.9841 17.1283 18.9891 17.0977 18.7616 16.8993C18.229 16.435 18.0862 16.2863 17.8802 15.9819C17.7446 15.7816 17.6604 15.6887 17.6269 15.6892ZM1.80495 14.3666C1.53083 14.3378 0.96166 14.6218 0.869143 14.8333C0.70533 15.2077 1.24269 15.9444 1.80898 16.1209C2.02606 16.188 2.12947 16.158 2.35099 15.9636C2.50144 15.8314 2.71392 15.6463 2.82398 15.5531C2.93353 15.4592 3.02643 15.3538 3.03008 15.319C3.04307 15.1954 2.00441 14.3876 1.80495 14.3666ZM14.8358 16.3093C14.7392 16.313 14.6691 16.3332 14.6371 16.3742C14.5131 16.5346 14.8402 17.0568 15.2086 17.285C15.5126 17.4736 15.683 17.5134 16.2217 17.5194C17.0659 17.5292 17.248 17.4579 16.8952 17.2567C16.7501 17.1734 16.6121 17.072 16.5887 17.0321C16.5653 16.9916 16.3163 16.8272 16.0359 16.6664C15.6474 16.443 15.1256 16.2989 14.8358 16.3093ZM7.07276 17.7955C6.92808 17.8345 6.68175 18.1881 6.66074 18.3881C6.63762 18.608 6.96532 19.2893 7.29953 19.7166C7.62412 20.1315 7.6443 20.1422 7.78458 19.9807C7.86522 19.8878 7.97752 19.6087 8.03368 19.3595C8.1359 18.9077 8.13455 18.9041 7.67493 18.3323C7.39007 17.9781 7.15989 17.7724 7.07276 17.7955ZM22.9976 20.9352C22.7183 20.896 22.217 21.0818 21.814 21.408C21.6502 21.5411 21.5755 22.0655 21.6699 22.4227C21.7656 22.7841 22.389 23.5846 22.5426 23.5431C22.654 23.5134 23.0124 22.9653 23.1098 22.6749C23.3125 22.073 23.3471 21.3768 23.1905 21.0522C23.1588 20.9861 23.0902 20.9483 22.9976 20.9352ZM5.74345 21.0304C5.65142 21.0179 5.57434 21.0495 5.43089 21.1151C5.2675 21.1895 5.14347 21.2951 5.155 21.3499C5.19622 21.5443 5.64209 21.7426 5.97681 21.7156C6.15815 21.7007 6.36146 21.6357 6.42828 21.5701C6.52712 21.4739 6.47249 21.4071 6.13886 21.2154C5.93998 21.1012 5.83484 21.0435 5.74345 21.0304ZM19.1229 23.1048C18.7405 23.026 18.4955 23.0982 18.4728 23.3141C18.4471 23.5591 19.0283 24.2514 19.4309 24.4556C19.8385 24.662 20.0378 24.6409 20.4583 24.3453C20.9012 24.0347 20.5688 23.6283 19.5478 23.2336C19.3934 23.1736 19.2504 23.1309 19.1229 23.1048ZM12.1154 22.8187C12.0627 22.8598 12.0369 23.0005 12.0275 23.2489C12.0017 23.9552 12.3896 24.6336 12.8977 24.7717C13.3784 24.9023 13.0807 23.9022 12.3657 22.9867C12.2484 22.8361 12.1681 22.7776 12.1154 22.8187ZM21.5833 23.8386C21.5631 23.8497 21.5644 23.8925 21.5766 23.9738C21.5927 24.078 21.6399 24.1659 21.682 24.1709C21.8525 24.1883 21.8757 24.0064 21.7175 23.8993C21.6449 23.8497 21.6034 23.828 21.5833 23.8386ZM29.0527 26.5606C28.9673 26.5563 28.8335 26.6182 28.5968 26.7425C27.613 27.2606 27.415 27.5986 27.5534 28.5238C27.6476 29.1517 27.7626 29.609 27.8275 29.6159C28.0327 29.6374 28.9281 28.6343 28.9856 28.3178C29.0033 28.2206 29.0504 28.1449 29.0914 28.1492C29.1912 28.1597 29.2899 27.0446 29.2129 26.7739C29.1733 26.6355 29.1375 26.5649 29.0527 26.5606ZM12.6056 26.1475C12.4923 26.1293 12.3226 26.1212 12.0959 26.1176C11.1654 26.1015 10.4988 26.3195 10.4216 26.6656C10.2827 27.2851 11.1635 27.3305 12.1156 26.7526C12.7815 26.3486 12.9461 26.2023 12.6056 26.1475ZM18.6866 28.0175C18.2604 28.5153 18.2032 28.7028 18.3461 29.1308C18.4017 29.2973 18.5285 29.4074 18.7346 29.4688C18.9022 29.5187 19.0363 29.5973 19.0315 29.6429C19.0267 29.6884 19.0855 29.732 19.1619 29.7401C19.5044 29.7761 19.2331 28.2621 18.8639 28.0741C18.7775 28.0299 18.6978 28.0048 18.6866 28.0175ZM24.3488 30.0076C23.8265 29.9498 23.6902 30.1999 23.9142 30.7712L24.1005 31.2469L24.5784 31.2937C24.9703 31.3314 25.1262 31.2948 25.4397 31.0916C26.1093 30.658 26.0417 30.5167 24.9998 30.1682C24.7393 30.0809 24.5226 30.0265 24.3488 30.0076ZM18.4355 30.8341C17.9502 30.7318 16.9003 30.9521 16.7587 31.2298C16.6672 31.4103 16.8467 31.9498 17.0939 32.235C17.2906 32.4624 17.3187 32.4694 17.5915 32.3627C17.7507 32.3006 18.0185 32.1104 18.1868 31.9403C18.355 31.7702 18.5576 31.4932 18.6369 31.3247C18.7679 31.0487 18.7643 31.0063 18.6046 30.898C18.5626 30.8694 18.5049 30.8483 18.4355 30.8341Z" fill="#9BAF8A"/>
</svg>
