<svg width="64" height="61" viewBox="0 0 64 61" fill="none" xmlns="http://www.w3.org/2000/svg">
<path d="M62.3254 60.6389C62.4032 60.5733 62.4634 60.45 62.5306 60.2066C62.5984 59.963 62.6729 59.5989 62.7794 59.0514C62.8113 58.8866 62.8628 58.6452 62.9207 58.3882C62.9789 58.1318 63.0427 57.8596 63.0983 57.6346C63.1543 57.4088 63.2156 57.1619 63.2689 56.9449C63.3224 56.7283 63.3686 56.5418 63.3938 56.438C63.4195 56.334 63.4524 56.1487 63.4852 55.9334C63.518 55.7181 63.5502 55.4731 63.5744 55.2504C63.5983 55.0273 63.6303 54.7457 63.6617 54.4718C63.6936 54.1976 63.725 53.931 63.7492 53.7384C63.8083 53.2633 63.8331 52.6634 63.8267 52.1684C63.82 51.673 63.7821 51.2826 63.7161 51.2257C63.6865 51.2004 63.6703 51.1778 63.6686 51.1621C63.6673 51.1461 63.6799 51.1372 63.7068 51.1386C63.7337 51.1401 63.7502 51.0937 63.7557 51.018C63.7609 50.9418 63.7545 50.8365 63.7351 50.7196C63.7161 50.6032 63.6763 50.3499 63.6274 50.0361C63.5783 49.7218 63.5204 49.3476 63.4655 48.9878C63.2719 47.7251 63.0695 46.7768 62.7638 45.8631C62.4587 44.9492 62.0505 44.0699 61.446 42.9449C60.9989 42.1127 60.5855 41.4117 60.2236 40.8688C59.8612 40.3263 59.5511 39.9422 59.3116 39.7439C59.2564 39.6985 59.1998 39.6492 59.1523 39.6056C59.1056 39.5622 59.0674 39.5248 59.0503 39.5041C59.0336 39.4831 59.0136 39.4607 58.9946 39.4416C58.9754 39.422 58.9578 39.4055 58.9465 39.397C58.9347 39.3887 58.9109 39.363 58.8821 39.3292C58.8532 39.2955 58.8197 39.253 58.7883 39.2107C58.7172 39.1158 58.4262 38.8481 58.1331 38.5962C57.8399 38.3443 57.5448 38.1075 57.4668 38.0745C57.4357 38.0613 57.3827 38.02 57.3225 37.964C57.2628 37.9077 57.1954 37.8369 57.1349 37.7642C57.0748 37.6921 56.9947 37.6128 56.9149 37.5427C56.8348 37.4721 56.7548 37.4115 56.6936 37.3773C56.6319 37.3434 56.5826 37.3088 56.5515 37.2809C56.5213 37.2533 56.5097 37.2316 56.5247 37.2235C56.5392 37.2156 56.5251 37.1932 56.4899 37.1636C56.4546 37.1341 56.3986 37.0971 56.3303 37.0608C56.2622 37.0237 56.19 36.9715 56.1288 36.9173C56.0673 36.8626 56.0173 36.8056 55.9926 36.7597C55.9682 36.7142 55.9341 36.672 55.8998 36.6406C55.8655 36.6091 55.83 36.589 55.8026 36.5879C55.775 36.5862 55.7334 36.5661 55.6876 36.5356C55.6423 36.5048 55.5935 36.4626 55.552 36.4177C55.5108 36.372 55.3855 36.2746 55.2167 36.1533C55.0482 36.0327 54.8366 35.8879 54.6219 35.7496C54.0359 35.3711 53.3783 34.9314 52.8625 34.5776C52.3467 34.2238 51.9723 33.9552 51.9523 33.9181C51.9426 33.9 51.8398 33.8144 51.6817 33.6907C51.5244 33.5672 51.3113 33.406 51.0812 33.2366C50.8514 33.0678 50.6191 32.8957 50.4306 32.7551C50.2413 32.6144 50.0952 32.5055 50.0379 32.4612C49.8597 32.3238 49.5001 32.1 49.1475 31.897C48.7953 31.6946 48.4492 31.5135 48.2992 31.4621C48.2204 31.4349 48.1498 31.4018 48.0235 31.2875C47.898 31.1735 47.7169 30.9782 47.4185 30.6271C47.1199 30.2768 46.923 30.0621 46.6959 29.8584C46.4679 29.6546 46.209 29.4615 45.7857 29.1542C45.2392 28.7569 44.6863 28.3365 44.2611 27.9995C43.8359 27.6625 43.5385 27.409 43.5049 27.3465C43.4919 27.3222 43.407 27.2302 43.2805 27.1006C43.1536 26.9714 42.9853 26.8052 42.8056 26.6325C42.6262 26.4603 42.2921 26.1386 41.8991 25.7595C41.5061 25.3803 41.0534 24.9435 40.636 24.5402C39.5776 23.5175 38.8843 22.8583 38.2697 22.3032C37.6551 21.7481 37.1192 21.2984 36.3762 20.6949C36.2549 20.5959 36.1067 20.4708 35.966 20.3497C35.8259 20.2283 35.6932 20.1108 35.6017 20.0251C35.3608 19.8009 34.9843 19.4835 34.6386 19.2061C34.2929 18.9287 33.9776 18.6915 33.8588 18.6273C33.8024 18.5971 33.7283 18.5426 33.6543 18.4794C33.5799 18.4157 33.505 18.3436 33.4479 18.2771C33.3911 18.2112 33.3327 18.1549 33.2838 18.1173C33.2354 18.0796 33.1968 18.0612 33.1797 18.0705C33.1631 18.0794 33.1083 18.0571 33.0345 18.0131C32.9602 17.9694 32.8664 17.9043 32.7709 17.8287C32.3567 17.501 32.075 17.2816 31.8188 17.0898C31.5625 16.898 31.3318 16.7336 31.0199 16.5179C30.8379 16.3919 30.5533 16.1948 30.242 15.9788C29.9299 15.7626 29.5912 15.5281 29.2999 15.3259C29.009 15.1242 28.7393 14.931 28.5384 14.7811C28.3378 14.6318 28.2063 14.5264 28.1924 14.5019C28.1791 14.4771 28.0415 14.3517 27.8318 14.1692C27.6215 13.9871 27.3385 13.7478 27.034 13.4961C26.7287 13.2441 26.4129 12.9812 26.1498 12.7604C25.8864 12.539 25.676 12.3603 25.5808 12.2766C25.4865 12.193 25.3691 12.0966 25.2559 12.0079C25.1427 11.9192 25.0342 11.838 24.9573 11.787C24.8804 11.736 24.7736 11.6492 24.6641 11.5512C24.5543 11.4527 24.4415 11.3424 24.3517 11.2437C24.2622 11.1455 24.1452 11.0336 24.0277 10.9319C23.911 10.8304 23.7946 10.7395 23.707 10.6836C23.6157 10.6257 23.5534 10.5782 23.5252 10.5468C23.4972 10.5159 23.5034 10.5012 23.5499 10.5094C23.5948 10.517 23.8053 10.5529 24.1094 10.6046C24.4126 10.6562 24.8091 10.7232 25.2254 10.7935C25.6412 10.864 26.1306 10.9533 26.5842 11.0407C27.0376 11.1275 27.4554 11.213 27.7274 11.2749C27.9991 11.3375 28.284 11.3984 28.5225 11.4464C28.7618 11.4947 28.9552 11.5298 29.0454 11.5408C29.8866 11.6413 30.589 11.7672 31.1127 11.9079C31.6369 12.0483 31.9831 12.2034 32.1114 12.3626C32.1807 12.4491 32.5224 12.8934 32.9349 13.4321C33.3469 13.9711 33.8299 14.6037 34.1806 15.0672C34.2923 15.214 34.4121 15.3598 34.515 15.4768C34.6182 15.5929 34.7045 15.6801 34.7501 15.7101C34.8246 15.7591 35.0698 16.0003 35.3445 16.2862C35.6197 16.5718 35.9238 16.9025 36.1159 17.1305C36.2157 17.2491 36.4807 17.5096 36.791 17.7995C37.1016 18.09 37.4574 18.4099 37.7388 18.6475C37.8576 18.7478 37.9932 18.867 38.1157 18.978C38.2385 19.0895 38.3487 19.1925 38.4161 19.2606C38.4835 19.3288 38.5572 19.3962 38.6218 19.4505C38.6862 19.5044 38.7417 19.5443 38.7723 19.5577C38.8024 19.5713 38.8499 19.6036 38.9017 19.6442C38.9534 19.6856 39.0095 19.7352 39.0579 19.7843C39.1061 19.8328 39.2117 19.9236 39.3436 20.0296C39.4751 20.1363 39.6324 20.2584 39.7844 20.3707C40.4305 20.85 40.8263 21.1449 41.1009 21.3535C41.376 21.5617 41.5291 21.6835 41.6898 21.8158C41.7827 21.8928 41.876 21.9582 41.9529 22.0092C42.0295 22.061 42.09 22.0989 42.1175 22.1214C42.1447 22.1433 42.1882 22.1871 42.2964 22.2838C42.404 22.3808 42.5763 22.5309 42.8605 22.7649C43.1443 22.9992 43.3641 23.1607 43.5962 23.3263C43.8278 23.4922 44.0716 23.6621 44.4039 23.9121C44.9371 24.3132 45.2514 24.5509 45.5081 24.7498C45.7651 24.948 45.9647 25.1078 46.2676 25.353C46.3895 25.4517 46.5779 25.5869 46.7832 25.7264C46.9888 25.865 47.211 26.0072 47.4011 26.1195C47.5904 26.2316 47.7662 26.3397 47.8969 26.4236C48.0268 26.5072 48.1123 26.5668 48.1204 26.5818C48.1281 26.5963 48.1579 26.6168 48.199 26.6372C48.2408 26.6579 48.2935 26.6787 48.3484 26.6949C48.4032 26.7112 48.5246 26.7627 48.6751 26.8325C48.8251 26.9025 49.0056 26.9907 49.179 27.0807C49.3524 27.1707 49.5232 27.2582 49.6584 27.3256C49.7938 27.3935 49.8932 27.4416 49.9249 27.4545C50.0935 27.5231 50.4237 27.6908 50.7156 27.8493C51.0069 28.0081 51.2611 28.1576 51.2789 28.1907C51.2903 28.2118 51.3163 28.2317 51.3497 28.2477C51.3832 28.2628 51.4235 28.2743 51.4625 28.2772C51.502 28.2797 51.5818 28.3025 51.6787 28.3373C51.7764 28.3723 51.8906 28.4191 51.9992 28.4695C52.5128 28.7072 53.515 29.0152 54.4752 29.2873C55.4354 29.5594 56.3538 29.7948 56.7008 29.888C56.9678 29.9592 57.341 30.0015 57.678 30C58.0145 29.9989 58.3155 29.9542 58.4372 29.8521C58.5094 29.7909 58.5373 29.711 58.532 29.5952C58.5266 29.4794 58.4878 29.3276 58.4269 29.1245C58.3828 28.979 58.3275 28.7928 58.2738 28.6118C58.2197 28.4303 58.1674 28.2532 58.1293 28.1237C57.9873 27.6404 57.7659 27.0279 57.4966 26.3661C57.2271 25.7038 56.9103 24.9923 56.5787 24.3116C56.3906 23.9254 56.2202 23.5709 56.0969 23.3115C55.9744 23.0524 55.8987 22.888 55.9001 22.8806L55.8996 22.8808C55.9059 22.8527 55.5068 22.2767 55.069 21.6637C54.6311 21.0514 54.1542 20.4015 54.003 20.2273C52.4893 18.4743 50.874 16.8497 49.3867 15.554C47.899 14.2579 46.5395 13.2898 45.5364 12.8495C45.1597 12.6837 44.3243 12.3612 43.5756 12.083C42.8264 11.8052 42.1628 11.5722 42.1295 11.585C42.1147 11.591 42.0387 11.5802 41.9276 11.5578C41.8169 11.5358 41.671 11.5022 41.5175 11.4628C41.3633 11.4237 41.1529 11.3818 40.9371 11.3462C40.7218 11.3103 40.5012 11.2806 40.3281 11.2658C40.1549 11.251 39.9841 11.2356 39.8481 11.2227C39.7129 11.2101 39.6124 11.1999 39.58 11.1955C39.2295 11.1482 38.4545 11.0825 37.7209 11.0304C36.988 10.9785 36.2963 10.9409 36.1128 10.9505C35.9821 10.9574 35.6739 10.9739 35.2823 10.9956C34.891 11.0166 34.4169 11.043 33.9534 11.0691C33.4901 11.0944 33.0445 11.1054 32.6993 11.1027C32.3538 11.0994 32.1093 11.0827 32.0483 11.0524C31.9813 11.0187 31.9159 11.0028 31.859 11.0051C31.8025 11.007 31.7544 11.0271 31.7229 11.0643C31.6908 11.1017 31.6262 11.1221 31.5398 11.1256C31.4529 11.1294 31.3452 11.1158 31.2261 11.0844C31.118 11.0563 30.8978 11.0124 30.6288 10.9636C30.3597 10.9148 30.0425 10.8621 29.7426 10.8168C29.4419 10.7712 29.0995 10.7128 28.789 10.6565C28.479 10.5999 28.2017 10.5443 28.0307 10.5037C27.8605 10.4633 27.6478 10.416 27.442 10.3716C27.236 10.3279 27.0377 10.2875 26.8957 10.2611C26.7538 10.2347 26.6087 10.2061 26.4884 10.1813C26.3688 10.1568 26.2747 10.1358 26.2349 10.1241C26.1949 10.1131 26.0593 10.0886 25.8718 10.0583C25.6851 10.0282 25.4469 9.992 25.2031 9.95759C24.9592 9.92317 24.6252 9.86558 24.2832 9.80037C23.9412 9.73516 23.5913 9.66286 23.3166 9.59847C23.0419 9.53408 22.7815 9.4813 22.5831 9.4482C22.3847 9.41509 22.2487 9.40088 22.2225 9.41442C22.1735 9.44032 21.9302 9.34959 21.6147 9.20059C21.2984 9.05134 20.9105 8.84355 20.5723 8.63482C20.4658 8.56854 20.2675 8.45335 20.0339 8.31991C19.8006 8.18699 19.5327 8.03686 19.2851 7.90102C19.0384 7.76542 18.6722 7.60054 18.3356 7.44832C17.9985 7.29638 17.6909 7.15711 17.5607 7.07296C17.1692 6.81978 16.6677 6.59093 16.1489 6.38217C15.6298 6.1742 15.0937 5.98681 14.6325 5.81682C14.4684 5.75648 14.1816 5.60253 13.6992 5.35935C13.2167 5.11617 12.5372 4.78379 11.5871 4.36611C10.6367 3.94791 10.0466 3.63637 9.67668 3.42217C9.30625 3.20825 9.15574 3.09244 9.08533 3.06595C8.93758 3.01005 8.82116 2.96515 8.64483 2.8934C8.46929 2.82189 8.23308 2.72458 7.84599 2.56307C7.55922 2.44385 7.32308 2.34918 6.99437 2.22537C6.66543 2.10235 6.24414 1.94938 5.58706 1.71358C5.38256 1.64044 5.09512 1.51625 4.79668 1.37533C4.49824 1.23441 4.18934 1.0765 3.94139 0.936195C3.63813 0.763875 3.39994 0.64297 3.22444 0.572768C3.04918 0.501767 2.93661 0.481472 2.8838 0.510142C2.75434 0.580413 1.86091 0.177334 0.845658 -0.35912C-0.169871 -0.896084 -1.30698 -1.56721 -1.92562 -2.03272C-2.23374 -2.26512 -2.42257 -2.37879 -2.54378 -2.37037C-2.665 -2.36196 -2.71862 -2.23144 -2.75707 -1.97437C-2.78056 -1.82017 -2.7915 -1.74218 -2.74819 -1.67028C-2.70487 -1.59838 -2.60624 -1.53182 -2.41033 -1.39998C-2.30232 -1.32716 -2.20067 -1.25624 -2.12418 -1.20101C-2.04797 -1.14631 -1.99636 -1.10627 -1.98818 -1.09602C-1.98024 -1.08499 -1.92802 -1.05128 -1.84993 -1.00427C-1.77211 -0.957775 -1.66897 -0.899002 -1.55894 -0.838627C-1.4484 -0.778532 -1.27104 -0.679979 -1.07418 -0.570004C-0.876792 -0.460309 -0.660128 -0.338388 -0.470971 -0.231562C-0.281815 -0.124737 -0.0374429 0.0101659 0.203672 0.141489C0.445025 0.272023 0.683403 0.399501 0.860573 0.491488C1.03746 0.58295 1.20059 0.671209 1.32162 0.739622C1.44237 0.807519 1.52051 0.855845 1.52662 0.86721C1.53272 0.878575 1.57573 0.902602 1.63966 0.931949C1.70358 0.961304 1.78843 0.995979 1.87928 1.02939C1.96986 1.06229 2.12718 1.13102 2.3073 1.21606C2.48716 1.30058 2.69033 1.40113 2.87338 1.49659C3.51598 1.83366 3.97451 2.06716 4.45709 2.2956C4.93994 2.52456 5.44632 2.74876 6.18485 3.06645C6.45365 3.18209 6.62214 3.2741 6.71198 3.36412C6.80129 3.45442 6.81274 3.54295 6.76852 3.65236C6.74761 3.70307 6.73336 3.81223 6.72745 3.94687C6.72126 4.081 6.72318 4.24142 6.73462 4.39468C6.76108 4.74394 6.89351 5.46471 7.04115 6.13784C7.18799 6.81074 7.35005 7.43602 7.43553 7.59512C7.47026 7.661 7.51141 7.75876 7.54933 7.86294C7.58673 7.96741 7.62118 8.07882 7.64351 8.17144C7.75092 8.62156 8.03762 9.34065 8.38968 10.0843C8.74095 10.8277 9.15679 11.5955 9.52066 12.1432C9.71038 12.4279 9.83608 12.6332 9.91701 12.7988C9.99795 12.9643 10.0349 13.0904 10.0466 13.2168C10.0553 13.3075 10.0726 13.4282 10.0937 13.5496C10.115 13.6701 10.1397 13.7921 10.1637 13.8852C10.2774 14.3359 10.4139 14.9597 10.519 15.4864C10.6238 16.0127 10.6972 16.4419 10.6848 16.502C10.6774 16.5394 10.6774 16.5754 10.6834 16.6028C10.6897 16.6308 10.7019 16.6509 10.7186 16.6558C10.7358 16.6605 10.7827 16.7578 10.8454 16.9093C10.9078 17.0615 10.9854 17.2683 11.0633 17.4942C11.141 17.7196 11.2301 17.9701 11.3105 18.192C11.3907 18.4134 11.4624 18.6066 11.5068 18.718C11.551 18.8288 11.6139 18.9908 11.6806 19.1621C11.7472 19.3334 11.8167 19.5139 11.8735 19.6632C12.0314 20.0765 12.3889 20.7879 12.7616 21.4643C13.1352 22.1409 13.5251 22.7832 13.7486 23.0596C13.8576 23.1953 13.9837 23.353 14.0977 23.4979C14.2125 23.6431 14.3159 23.7758 14.3804 23.8609C14.6475 24.2123 15.1486 24.7716 15.6512 25.2962C16.1542 25.8204 16.6592 26.3109 16.9347 26.525C17.0971 26.6517 17.2499 26.7755 17.3642 26.8723C17.4792 26.9694 17.5553 27.0401 17.5664 27.0608C17.6008 27.1248 17.9376 27.3397 18.3144 27.5555C18.6907 27.7716 19.1075 27.9884 19.3021 28.0555C19.4032 28.0907 19.5795 28.1685 19.7813 28.2665C19.9831 28.3644 20.2114 28.482 20.4168 28.5954C20.6219 28.7082 20.8199 28.8103 20.9736 28.8823C21.1271 28.9551 21.2358 28.9981 21.2636 28.9951C21.3136 28.9886 21.7256 29.1006 22.2066 29.2438C22.6883 29.3873 23.2388 29.5616 23.5668 29.6804C23.6613 29.7145 23.8242 29.7922 24.0094 29.8892C24.1954 29.9864 24.4048 30.1036 24.592 30.2168C24.7798 30.3297 24.9905 30.4455 25.1796 30.541C25.3695 30.6368 25.5362 30.7118 25.6362 30.7435C25.8792 30.8211 26.1214 30.9072 26.3644 31.0035C26.6079 31.0994 26.852 31.2051 27.0988 31.3221C27.3625 31.4458 27.5662 31.4987 27.7262 31.4779C27.886 31.4565 28.0019 31.3623 28.0896 31.1919C28.1267 31.1204 28.1731 31.0411 28.2182 30.9706C28.2627 30.9004 28.3067 30.8392 28.3386 30.8039C28.3865 30.7498 28.4058 30.7073 28.3874 30.6519C28.369 30.5965 28.3129 30.5282 28.2113 30.4226C28.1211 30.3281 28.0526 30.2292 27.9948 30.1018C27.9368 29.9738 27.8897 29.8178 27.8428 29.6085C27.7803 29.3315 27.7085 29.0548 27.5912 28.6535C27.4731 28.2519 27.3094 27.7256 27.0629 26.9493C26.9786 26.6842 26.8588 26.3829 26.7022 26.0429C26.5454 25.7023 26.3516 25.3231 26.1191 24.9002C25.7167 24.1699 25.4468 23.6999 25.0066 23.0301C24.5662 22.3598 23.9558 21.4901 22.8716 19.9602C22.6884 19.7014 22.3426 19.3266 21.9717 18.9675C21.6006 18.6092 21.205 18.2675 20.922 18.0755C20.6957 17.9221 20.4386 17.7247 20.2078 17.5331C19.9773 17.3406 19.7735 17.153 19.6554 17.019C19.6285 16.9888 19.5257 16.8872 19.3811 16.7488C19.2368 16.6096 19.0514 16.4327 18.8597 16.2526C18.4654 15.8821 18.091 15.5776 17.655 15.2838C17.2192 14.9906 16.7214 14.7077 16.081 14.3822C15.4032 14.0368 15.0101 13.8392 14.6926 13.694C14.3748 13.5482 14.1319 13.4546 13.7536 13.3169C13.1838 13.1092 12.8614 12.9946 12.6708 12.9373C12.4796 12.8803 12.42 12.8813 12.3755 12.9054C12.3522 12.9181 12.3173 12.9217 12.2793 12.9169C12.2408 12.9125 12.1999 12.9 12.1655 12.8806C12.131 12.8613 12.0701 12.845 11.9988 12.8343C11.9275 12.8237 11.8472 12.8186 11.7734 12.8219C11.7002 12.825 11.6079 12.8263 11.5188 12.826C11.4297 12.8257 11.3429 12.8234 11.2807 12.8198C11.2188 12.8154 11.1575 12.812 11.1101 12.8097C11.0624 12.8069 11.0277 12.8057 11.0172 12.8061C11.0072 12.8062 10.9799 12.7816 10.9444 12.7415C10.9088 12.7014 10.8652 12.6464 10.8216 12.5853C10.7781 12.5242 10.7041 12.4262 10.62 12.3171C10.5362 12.2084 10.4419 12.0889 10.3582 11.9842C9.8225 11.3195 9.22756 10.1786 8.71864 8.91892C8.20921 7.65955 7.78499 6.28118 7.5913 5.14264C7.52952 4.78119 7.47486 4.4479 7.43685 4.20164C7.39833 3.95567 7.37647 3.79673 7.38008 3.78476C7.3933 3.74089 7.46047 3.73645 7.57365 3.7691C7.68683 3.80174 7.84578 3.87225 8.0425 3.97697C8.15407 4.0365 8.29308 4.1085 8.427 4.17725C8.56065 4.24549 8.6892 4.31048 8.78143 4.35516C8.87314 4.40012 9.03633 4.48101 9.22566 4.57573C9.415 4.67045 9.63102 4.7787 9.82679 4.87793C10.0223 4.97665 10.2653 5.09896 10.4999 5.21579C10.7338 5.33237 10.9591 5.44426 11.1188 5.52238C11.2785 5.60049 11.6112 5.71943 12.027 5.88337C12.4429 6.04731 12.9417 6.25624 13.4348 6.513C14.2921 6.95969 14.7666 7.21658 15.0664 7.37744C15.3667 7.53802 15.4934 7.60334 15.6561 7.66583C15.7499 7.7023 16.2262 7.96885 16.7165 8.2478C17.2066 8.52625 17.7109 8.81629 17.8602 8.89872C17.9243 8.93464 18.027 8.98895 18.1407 9.04867C18.2549 9.10811 18.3798 9.17244 18.4883 9.22761C19.3733 9.67597 20.409 10.2667 21.5075 10.9455C22.6056 11.6238 23.7659 12.3904 24.9009 13.1908C25.3937 13.5378 25.8775 13.883 26.2609 14.1586C26.6442 14.4349 26.9266 14.6419 27.0157 14.713C28.8234 16.1617 29.7848 16.9342 30.3629 17.4164C30.9416 17.8982 31.1368 18.0898 31.4112 18.3766C31.5342 18.5046 31.6573 18.6266 31.7572 18.7205C31.8574 18.8149 31.9339 18.8801 31.963 18.8944C31.9921 18.9086 32.0726 18.9677 32.1794 19.0518C32.2856 19.1363 32.418 19.2445 32.5506 19.3581C32.6836 19.4713 32.8078 19.568 32.9011 19.6321C32.9945 19.6962 33.0571 19.7283 33.0662 19.7127C33.0754 19.6963 33.0936 19.6978 33.1158 19.7118C33.138 19.7257 33.1633 19.7527 33.188 19.79C33.2127 19.8273 33.3191 19.927 33.4719 20.0583C33.6244 20.189 33.8222 20.3518 34.0295 20.5135C34.3363 20.7533 34.6427 21.0113 34.8925 21.236C35.1424 21.4607 35.3355 21.6521 35.4161 21.7611C35.4243 21.7714 35.4833 21.8127 35.5725 21.8704C35.662 21.9286 35.7808 22.0029 35.9084 22.0797L36.14 22.2196L36.3711 22.3596L36.6536 23.0036L36.9358 23.6471C37.277 24.4253 37.538 25.0816 37.7337 25.66C37.9291 26.2378 38.0594 26.7381 38.1392 27.204C38.217 27.6588 38.2771 27.9885 38.3315 28.2491C38.3852 28.5096 38.4335 28.7015 38.4872 28.8812C38.529 29.0187 38.4866 29.2972 38.409 29.5548C38.3319 29.8122 38.2196 30.0487 38.1206 30.1023C38.0984 30.1144 38.0805 30.1422 38.0692 30.1783C38.0581 30.2137 38.0538 30.2567 38.0592 30.2992C38.0648 30.3408 38.0548 30.3869 38.0352 30.4276C38.0148 30.468 37.9848 30.503 37.9491 30.5224C37.9133 30.5418 37.8862 30.5685 37.871 30.5962C37.8552 30.6241 37.8518 30.6526 37.864 30.6753C37.8762 30.6981 37.858 30.7613 37.8186 30.8448C37.7792 30.9282 37.719 31.0316 37.647 31.1354C37.575 31.2392 37.5043 31.3577 37.4476 31.4652C37.3915 31.5723 37.3501 31.6682 37.3368 31.7268C37.3229 31.7857 37.2926 31.8576 37.2546 31.9262C37.2171 31.9946 37.1711 32.0596 37.1274 32.1053C37.0835 32.1505 37.0184 32.2473 36.949 32.367C36.8793 32.4862 36.8055 32.629 36.7437 32.7654C36.682 32.9009 36.6168 33.0297 36.5623 33.1274C36.5069 33.2248 36.4623 33.2911 36.4405 33.3029C36.4188 33.3147 36.3744 33.3888 36.3199 33.4991C36.2652 33.6089 36.2007 33.7553 36.1397 33.9106C36.0786 34.0658 36.0033 34.2568 35.9309 34.4395C35.8583 34.6217 35.7894 34.7959 35.7402 34.9174C35.601 35.2645 35.448 35.6631 35.2868 36.0989C35.1254 36.5341 34.9558 37.0065 34.7834 37.4997C34.6961 37.7493 34.6091 37.9807 34.5299 38.2578C34.4505 38.5358 34.3793 38.86 34.3238 39.2958C34.2683 39.7316 34.17 40.5756 34.0834 41.3979C33.9971 42.2207 33.9228 43.021 33.9154 43.3693C33.9079 43.7177 33.9198 43.9914 33.9353 44.2319C33.9508 44.4723 33.9706 44.6797 33.9789 44.8968C34.0273 46.1495 34.15 47.354 34.3324 48.4279C34.5154 49.5016 34.7587 50.4437 35.0477 51.1708C35.0919 51.2816 35.1352 51.3996 35.1698 51.4989C35.2047 51.5987 35.2302 51.681 35.2384 51.7212C35.2469 51.7619 35.3263 51.9557 35.4483 52.2351C35.5698 52.5148 35.7339 52.88 35.9102 53.2641C36.087 53.6478 36.2549 54.0351 36.3837 54.3508C36.5123 54.666 36.6009 54.9094 36.6196 55.004C36.6729 55.2774 36.7108 55.4463 36.7861 55.6563C36.8607 55.866 36.9725 56.1176 37.1729 56.5566C37.4803 57.2284 37.6526 57.6386 37.7897 57.8677C37.9269 58.0969 38.0289 58.1449 38.1938 58.0921C38.2488 58.0749 38.3362 57.9287 38.4333 57.7672C38.5305 57.6057 38.6372 57.4284 38.7314 57.3485C39.0703 57.0605 39.323 56.7292 39.5522 56.3679C39.7807 56.0064 39.9852 55.6151 40.2284 55.2076C40.2833 55.1144 40.3887 54.9384 40.5137 54.7291C40.6392 54.5195 40.7838 54.2769 40.9186 54.0523C41.2757 53.4547 41.5597 52.9476 41.8271 52.4182C42.0941 51.8882 42.3443 51.3368 42.635 50.6492C42.6921 50.5128 42.7632 50.3488 42.8313 50.193C42.8995 50.0373 42.9647 49.8911 43.01 49.7911C43.1244 49.5422 43.3099 48.9911 43.4819 48.42C43.6537 47.8484 43.8125 47.2565 43.8728 46.9255C43.9654 46.4195 44.0249 45.8841 44.0539 45.3019C44.0824 44.72 44.08 44.0908 44.0467 43.3976C43.9718 41.8303 43.8525 40.5066 43.6577 39.2166C43.4628 37.9265 43.1924 36.6702 42.8148 35.2378C42.4449 33.836 42.2332 33.0662 41.9752 32.4016C41.7171 31.737 41.4126 31.1791 40.8567 30.2004C40.4378 29.4617 40.1903 29.0149 39.9868 28.6423C39.7828 28.27 39.6216 27.9725 39.3749 27.5333C39.1282 27.0941 38.9871 26.8377 38.8933 26.6331C38.7994 26.4286 38.753 26.2749 38.6969 26.0412C38.6596 25.8846 38.5932 25.6551 38.5163 25.4113C38.44 25.1671 38.3528 24.9089 38.2739 24.6948C38.1454 24.3462 38.0793 24.1573 38.0695 24.0779C38.0594 23.9993 38.106 24.03 38.203 24.1222C38.2627 24.1785 38.3251 24.2313 38.3783 24.2705C38.4315 24.3097 38.4751 24.3361 38.497 24.3395C38.5781 24.3523 38.9953 24.6682 39.4052 25.0055C39.8147 25.343 40.2173 25.7016 40.2698 25.7992C40.2867 25.8307 40.315 25.8647 40.3461 25.8939C40.3777 25.9228 40.412 25.9469 40.4426 25.959C40.4731 25.971 40.5332 26.0132 40.6061 26.0717C40.6787 26.1297 40.7637 26.2043 40.8437 26.281C41.2047 26.6268 41.5949 26.9734 41.9029 27.2292C42.2109 27.4851 42.4372 27.6498 42.4709 27.6315C42.4911 27.6206 42.511 27.6191 42.5269 27.6251C42.5437 27.6314 42.5556 27.6449 42.5599 27.6653C42.5687 27.7065 42.8848 28.0073 43.2342 28.3214C43.5832 28.635 43.9653 28.9614 44.1051 29.0536C44.2139 29.1254 44.4887 29.3792 44.846 29.7317C45.2035 30.0847 45.6433 30.5372 46.0817 31.0058C46.4284 31.3761 46.618 31.6007 46.7099 31.8278C46.8018 32.0548 46.7959 32.2841 46.7528 32.6645C46.7421 32.7604 46.7339 32.8522 46.7291 32.9242C46.7249 32.9959 46.7239 33.0465 46.7282 33.0595C46.736 33.0826 46.7498 33.2166 46.7685 33.4406C46.7872 33.6647 46.81 33.9785 46.8362 34.3633C46.871 34.8688 46.9466 35.3843 47.0685 35.9286C47.1899 36.4732 47.3573 37.0462 47.5745 37.6682C47.6629 37.9198 47.7496 38.1697 47.8186 38.3691C47.8874 38.5693 47.9387 38.7182 47.9554 38.7692C47.9721 38.8202 48.0357 39.0058 48.125 39.2629C48.2141 39.5208 48.3291 39.8507 48.4484 40.191C48.5668 40.531 48.7063 40.9337 48.8342 41.3086C48.9621 41.6836 49.0792 42.031 49.154 42.2599C49.2296 42.4891 49.3208 42.7459 49.407 42.976C49.4934 43.2053 49.5754 43.4077 49.6308 43.527C49.687 43.6466 49.827 43.9583 50.0071 44.3643C50.1876 44.77 50.4082 45.2701 50.6255 45.7667C51.1255 46.9091 51.8905 48.4561 52.622 49.8438C53.3539 51.232 54.053 52.4611 54.4215 52.9663C54.6173 53.235 54.7463 53.4252 54.8505 53.5781C54.9547 53.731 55.0329 53.8467 55.1278 53.966C55.2219 54.0851 55.3457 54.2234 55.4965 54.3971C55.6468 54.571 55.825 54.7806 56.0269 55.0419C56.3173 55.4181 56.6011 55.7584 56.9113 56.0991C57.2206 56.4396 57.5566 56.781 57.9506 57.1583C58.1621 57.3604 58.4939 57.648 58.7935 57.8944C59.0928 58.1402 59.3594 58.3451 59.4396 58.3823C59.4737 58.3985 59.5207 58.4324 59.5694 58.4746C59.6177 58.5172 59.6675 58.5675 59.7067 58.6156C59.7892 58.7169 60.0168 58.9537 60.3163 59.2535C60.6158 59.5533 60.9873 59.9161 61.3577 60.2681C61.5655 60.4656 61.7059 60.5849 61.8223 60.6511C61.9386 60.7168 62.0301 60.7292 62.1414 60.7121C62.1778 60.7064 62.2112 60.6989 62.2414 60.6879C62.2721 60.6765 62.2958 60.651 62.3254 60.6389ZM61.6086 59.2599L61.3525 59.0173L61.0962 58.7755C60.9554 58.6417 60.7581 58.4599 60.5541 58.2744C60.3496 58.0892 60.1389 57.9 59.9696 57.7517C59.1513 57.0342 58.5653 56.5123 58.1863 56.1629C57.807 55.813 57.6348 55.6357 57.6437 55.6061C57.6489 55.5886 57.6347 55.5596 57.6067 55.5274C57.5793 55.495 57.538 55.4593 57.4906 55.4283C57.3813 55.3556 57.0363 54.9637 56.6945 54.5441C56.3524 54.124 56.0132 53.6769 55.9155 53.4951C55.8747 53.4191 55.8458 53.3467 55.8313 53.2899C55.8171 53.2336 55.8178 53.1938 55.8365 53.1837C55.8805 53.1598 55.9683 52.9921 56.0717 52.7464C56.1752 52.5008 56.2943 52.1772 56.4023 51.8404C56.5834 51.275 56.783 50.7043 56.9449 50.2748C57.1073 49.845 57.2321 49.5571 57.2642 49.557C57.2824 49.5572 57.2997 49.5384 57.3123 49.5083C57.325 49.4773 57.3333 49.4354 57.3344 49.3888C57.3355 49.3162 57.4458 49.0174 57.5823 48.6925C57.7184 48.3671 57.8801 48.0157 57.9836 47.8374C58.0265 47.7641 58.0603 47.7511 58.1222 47.8737C58.1845 47.9959 58.2754 48.2535 58.4336 48.7221C58.4976 48.9122 58.5875 49.1717 58.6807 49.4373C58.7737 49.7025 58.8705 49.9735 58.948 50.1863C59.0255 50.3991 59.1269 50.6923 59.2275 50.9927C59.3283 51.2936 59.4293 51.6024 59.5045 51.8458C59.5806 52.0894 59.6713 52.3664 59.7562 52.6166C59.8419 52.867 59.9215 53.09 59.9751 53.2257C60.0286 53.3614 60.1013 53.5702 60.1742 53.7968C60.248 54.0237 60.3227 54.2686 60.3804 54.4768C60.4381 54.6851 60.5158 54.9591 60.5935 55.2332C60.6712 55.5073 60.7492 55.7806 60.8092 55.9882C60.869 56.1953 60.9305 56.4168 60.9811 56.6068C61.0319 56.7961 61.0721 56.9544 61.0894 57.0351C61.1062 57.116 61.13 57.2152 61.1545 57.3106C61.1796 57.4058 61.2045 57.497 61.2247 57.5608C61.3365 57.9144 61.418 58.1918 61.4751 58.4163C61.5319 58.6404 61.5646 58.8108 61.5783 58.9495L61.6086 59.2599ZM62.1873 57.7702C62.1714 57.7655 62.1296 57.6614 62.0744 57.4965C62.0195 57.3321 61.9519 57.108 61.8845 56.863C61.8169 56.6188 61.7361 56.3277 61.6597 56.0563C61.584 55.7845 61.5124 55.5318 61.464 55.3645C61.4161 55.197 61.3656 55.0109 61.3229 54.8467C61.2806 54.6821 61.2458 54.5389 61.2295 54.4563C61.1946 54.2818 61.1322 54.0548 61.0555 53.8162C60.9793 53.5773 60.8883 53.3271 60.7961 53.1069C60.7608 53.0213 60.7056 52.8638 60.6452 52.6791C60.5855 52.4947 60.5204 52.2825 60.4652 52.0876C60.41 51.8927 60.3222 51.6074 60.2255 51.3043C60.1284 51.0014 60.0223 50.6807 59.9309 50.416L59.7642 49.934L59.5978 49.4526L59.8609 49.8002L60.1244 50.1475C60.2691 50.3385 60.4028 50.5188 60.5011 50.6556C60.5993 50.7925 60.6622 50.8858 60.6663 50.9022C60.6749 50.9356 60.9876 51.347 61.3335 51.7891C61.6788 52.2315 62.0574 52.7045 62.1977 52.8612C62.3186 52.9964 62.4256 53.0824 62.5239 53.1819C62.6229 53.2816 62.7132 53.3947 62.8011 53.5859C62.8886 53.7772 62.9255 53.9107 62.9449 54.0215C62.9644 54.1324 62.9666 54.2213 62.9869 54.3237C63.0063 54.4259 62.8524 55.3008 62.6704 56.1435C62.4882 56.987 62.2788 57.7972 62.1873 57.7702ZM62.9766 52.1535C62.9728 52.1663 62.9585 52.172 62.9465 52.1759C62.935 52.1794 62.9224 52.1796 62.9081 52.1767C62.8341 52.1621 62.6657 52.0007 62.3816 51.6672C62.0982 51.3339 61.6993 50.8292 61.1644 50.1275C60.7038 49.5241 60.2902 49.0333 59.9583 48.6644C59.6263 48.2955 59.3748 48.0477 59.24 47.9301C59.1044 47.8122 58.9666 47.5781 58.8276 47.2919C58.6877 47.0055 58.5467 46.6671 58.4044 46.34C58.0968 45.6343 57.8617 45.0486 57.7195 44.6394C57.5775 44.2308 57.5281 43.9994 57.591 44.0033C57.6163 44.0042 57.7271 44.0635 57.8859 44.1575C58.0447 44.2514 58.2516 44.38 58.4675 44.5216C58.8518 44.7727 59.2195 45.0002 59.5988 45.2206C59.9781 45.4411 60.3687 45.654 60.7985 45.8751C60.9162 45.936 61.0282 46 61.1133 46.0539C61.1981 46.1072 61.2564 46.151 61.2675 46.1716C61.2786 46.1923 61.3415 46.2409 61.4337 46.3016C61.5258 46.3623 61.6478 46.4362 61.7763 46.5086C61.905 46.5802 62.0224 46.6479 62.1082 46.6994C62.1938 46.7504 62.2474 46.7853 62.2488 46.7906C62.2501 46.7966 62.265 46.8618 62.2886 46.9618C62.3122 47.0617 62.3447 47.1969 62.3796 47.3427C62.488 47.7983 62.6127 48.4986 62.7247 49.2485C62.8366 49.9983 62.9358 50.7979 62.9935 51.4518C63.0122 51.6658 63.0212 51.8244 63.0186 51.9379C63.0163 52.0519 62.9884 52.1157 62.9766 52.1535ZM55.2712 52.5685C55.2629 52.5643 55.2481 52.5603 55.2317 52.5498C55.2157 52.5399 55.1958 52.5253 55.174 52.5071C55.0609 52.4124 54.6093 51.6927 54.164 50.9323C53.7184 50.1727 53.2783 49.3734 53.1878 49.1203C53.1313 48.9629 53.1027 48.8449 53.1006 48.7513C53.0989 48.6575 53.1245 48.5869 53.177 48.525C53.2156 48.4787 53.2924 48.3056 53.3847 48.064C53.4772 47.8229 53.5852 47.5135 53.6863 47.1937C53.9 46.5172 54.127 45.8442 54.3484 45.2243C54.5701 44.6049 54.7862 44.0399 54.9782 43.5794C55.0528 43.4008 55.1259 43.1983 55.1836 43.0156C55.2407 42.8331 55.2829 42.6701 55.2956 42.5718C55.3075 42.4732 55.3245 42.3853 55.3411 42.3229C55.3578 42.2605 55.379 42.2316 55.3873 42.2271C55.4365 42.2004 55.8656 42.9429 56.2872 43.7302C56.7083 44.5178 57.1482 45.3986 57.2974 45.796C57.4979 46.3297 57.5903 46.5651 57.6184 46.6759C57.6462 46.7862 57.6096 46.7715 57.5521 46.8027C57.5262 46.8167 57.4784 46.9107 57.4216 47.0516C57.3651 47.1917 57.2997 47.3787 57.2397 47.5781C57.1796 47.7775 57.1041 47.9893 57.0301 48.1702C56.9561 48.3512 56.8841 48.501 56.8324 48.5765C56.7803 48.6514 56.7261 48.7435 56.6803 48.8312C56.6349 48.9185 56.5981 49.0019 56.5816 49.0595C56.5646 49.1175 56.521 49.2406 56.464 49.3922C56.4068 49.5447 56.3365 49.725 56.267 49.8982C56.1972 50.0708 56.1081 50.312 56.0211 50.5621C55.9333 50.8119 55.8475 51.0706 55.7845 51.277C55.721 51.4836 55.6547 51.6764 55.5983 51.8204C55.5424 51.9642 55.4962 52.06 55.474 52.0721C55.4517 52.0842 55.4365 52.1044 55.4298 52.1281C55.4236 52.1514 55.4257 52.1777 55.4379 52.2004C55.4504 52.2236 55.4478 52.2524 55.4333 52.2803C55.4184 52.3084 55.3918 52.3349 55.3571 52.3537C55.3219 52.3728 55.2962 52.4021 55.2821 52.4344C55.2685 52.4665 55.2672 52.5013 55.2811 52.531C55.2884 52.5458 55.2908 52.5565 55.2889 52.5629C55.2867 52.5687 55.2804 52.5708 55.2714 52.569L55.2712 52.5685ZM61.733 45.4359L61.4832 45.3046L61.2337 45.1738C61.0965 45.1015 60.9095 44.9962 60.7192 44.8847C60.528 44.7729 60.3336 44.6549 60.1818 44.5579C60.0297 44.4603 59.8275 44.3392 59.6249 44.2223C59.422 44.1049 59.2177 43.9923 59.0622 43.9119C58.9067 43.8316 58.6838 43.7043 58.4503 43.5648C58.2166 43.4248 57.972 43.272 57.7734 43.1403C57.5746 43.008 57.3628 42.8728 57.1819 42.7601C57.0013 42.648 56.8513 42.5593 56.775 42.5206C56.615 42.4394 56.386 42.1427 56.1391 41.7603C55.8922 41.3779 55.6278 40.9096 55.3975 40.4834C55.1667 40.0576 55.0002 39.7764 54.8822 39.5915C54.764 39.4075 54.6945 39.3205 54.6569 39.2842C54.5941 39.2222 54.5667 39.1897 54.5966 39.1781C54.6267 39.1658 54.7142 39.1743 54.881 39.1946C54.9804 39.2066 55.0805 39.2237 55.1628 39.2411C55.2453 39.259 55.3092 39.277 55.3343 39.2914C55.4163 39.3383 55.7377 39.334 56.0746 39.2999C56.4114 39.2659 56.7635 39.2029 56.9066 39.1332C56.9829 39.0958 57.0603 39.0644 57.1228 39.0438C57.1861 39.0235 57.235 39.0136 57.2546 39.019C57.2843 39.0282 57.6062 39.2999 57.9326 39.5837C58.2582 39.8674 58.5884 40.1632 58.6344 40.2203C58.6429 40.231 58.6581 40.2481 58.6768 40.268C58.6952 40.2873 58.7164 40.3092 58.7361 40.3285C58.7794 40.3718 58.88 40.498 59.0357 40.7057C59.192 40.9131 59.4031 41.2015 59.6666 41.5675L59.6671 41.5672C59.8527 41.8241 60.2316 42.4785 60.6119 43.1775C60.9924 43.8757 61.3736 44.6175 61.5635 45.0495L61.6484 45.2423L61.733 45.4359ZM37.4284 54.6744C37.3821 54.5348 37.2754 54.2651 37.1419 53.9419C37.0081 53.6195 36.8469 53.2447 36.691 52.8949C36.3452 52.1219 36.0377 51.3553 35.8275 50.7636C35.6169 50.1713 35.5041 49.7535 35.5474 49.6759C35.5917 49.5965 35.7536 49.4186 36.0121 49.1628C36.2701 48.9073 36.6248 48.574 37.0554 48.1828C37.2573 47.9998 37.4897 47.7863 37.7008 47.5903C37.9127 47.3945 38.1034 47.2156 38.2222 47.1018C38.3415 46.9876 38.482 46.8546 38.6134 46.7319C38.744 46.609 38.8652 46.4972 38.9446 46.4247C39.0243 46.3527 39.1205 46.2778 39.2116 46.2157C39.3023 46.1531 39.3879 46.1033 39.4454 46.0808C39.5484 46.0409 39.6002 46.0241 39.6132 46.0918C39.6264 46.1587 39.5996 46.3093 39.5459 46.604C39.5149 46.7703 39.4761 46.9869 39.4372 47.2021C39.3989 47.4171 39.361 47.6305 39.3332 47.7904C39.3054 47.9502 39.2764 48.1115 39.2517 48.2436C39.2268 48.3752 39.2068 48.4775 39.1972 48.5181C39.1876 48.5587 39.1749 48.677 39.1623 48.8353C39.1497 48.9936 39.1372 49.1919 39.1276 49.3919C39.0888 50.2222 39.04 50.8559 38.959 51.4557C38.8782 52.056 38.7652 52.6224 38.5986 53.3207C38.5746 53.4204 38.5482 53.5829 38.5241 53.7634C38.4998 53.9447 38.4792 54.1441 38.467 54.3182C38.4543 54.4925 38.4357 54.7255 38.4161 54.9603C38.3956 55.1949 38.374 55.4322 38.3557 55.6136C38.3372 55.7958 38.2829 55.92 38.2158 56.0204C38.149 56.1201 38.0702 56.1963 38.0032 56.2807C37.9364 56.3656 37.8505 56.136 37.7527 55.7995C37.6543 55.4632 37.5441 55.0193 37.4284 54.6744ZM52.6183 47.8662L52.4934 47.6698L52.3687 47.4739C52.2408 47.2731 51.9713 46.7155 51.651 46.006C51.3309 45.297 50.9605 44.4359 50.6332 43.6301C50.4538 43.1877 50.3637 42.9617 50.3405 42.8015C50.3181 42.6415 50.3628 42.5479 50.4543 42.3708C50.5978 42.0927 50.7577 41.6409 50.8956 41.1544C51.0335 40.6679 51.1486 40.1464 51.2024 39.7275C51.2289 39.519 51.2597 39.3261 51.2872 39.1831C51.3147 39.0401 51.3393 38.9466 51.3544 38.9385C51.3696 38.9295 51.4036 38.867 51.4459 38.774C51.488 38.6805 51.5383 38.5564 51.5874 38.4236C51.7536 37.9724 51.8162 37.7403 51.9797 37.7957C52.1432 37.851 52.4074 38.1934 52.9767 38.8932C53.2572 39.2373 53.5568 39.6205 53.8132 39.9597C54.0705 40.2991 54.2845 40.5952 54.3939 40.7653L54.5925 41.0752L54.7916 41.3848L54.5802 42.1241L54.369 42.8626C54.253 43.2691 54.1425 43.6287 54.058 43.8821C53.9731 44.135 53.9144 44.2809 53.9017 44.2585C53.8895 44.2358 53.8585 44.2813 53.819 44.3721C53.7795 44.4629 53.7308 44.6001 53.6833 44.7607C53.5804 45.1095 53.4756 45.4385 53.3919 45.6835C53.3081 45.9285 53.2446 46.089 53.2249 46.0997C53.2171 46.1039 53.1772 46.2064 53.1195 46.3678C53.0617 46.5292 52.9865 46.7502 52.9071 46.9908L52.7628 47.4281L52.6183 47.8662ZM39.4593 54.731C39.3941 54.7117 39.4798 53.8865 39.6028 53.0424C39.7256 52.1991 39.8852 51.3372 39.9672 51.2433C39.9837 51.2243 40.0304 51.2651 40.0918 51.3458C40.1527 51.4268 40.2292 51.5481 40.3056 51.6902C40.4077 51.8803 40.5066 52.0021 40.5891 52.1107C40.6715 52.2194 40.7374 52.3158 40.7729 52.4553C40.7669 52.636 40.4777 53.2167 40.1704 53.7465C39.8628 54.2757 39.5375 54.7546 39.4593 54.731ZM41.3168 51.4735C41.3034 51.4808 41.2582 51.4106 41.196 51.2909C41.1345 51.1715 41.0558 51.0027 40.9758 50.8139C40.8958 50.6252 40.788 50.3734 40.6793 50.1202C40.5704 49.8664 40.4601 49.6113 40.3749 49.4154C40.279 49.1946 40.2071 48.9974 40.1638 48.8394C40.1198 48.6818 40.1047 48.5639 40.1218 48.5012C40.2039 48.2045 40.3205 47.4506 40.4204 46.6544C40.5209 45.858 40.6038 45.019 40.6179 44.551C40.6248 44.3223 40.6372 44.0341 40.6516 43.7547C40.666 43.4753 40.6828 43.204 40.6975 43.0085C40.7225 42.6867 40.7407 42.5114 40.7743 42.4257C40.8079 42.3401 40.8932 42.4119 40.944 42.3843C41.0542 42.4339 41.1168 42.472 41.1624 42.548C41.2084 42.6238 41.2361 42.7375 41.2765 42.9398C41.2933 43.0207 41.3186 43.1251 41.3462 43.2289C41.3744 43.3323 41.4049 43.4339 41.431 43.5098C41.457 43.5857 41.4962 43.7072 41.5382 43.8426C41.5796 43.9782 41.6241 44.1269 41.6617 44.2566C41.8145 44.7875 41.9684 45.2384 42.1089 45.5758C42.2499 45.9129 42.3772 46.136 42.4782 46.212C42.5338 46.2545 42.5766 46.2993 42.6008 46.3382C42.6251 46.3771 42.631 46.4106 42.6139 46.4299C42.5966 46.4486 42.6024 46.5142 42.6247 46.6042C42.6467 46.695 42.6865 46.8101 42.7372 46.9281C42.837 47.1588 42.8688 47.3971 42.8249 47.7025C42.7801 48.0077 42.6598 48.3799 42.4546 48.8783C42.4022 49.0048 42.3269 49.1958 42.2468 49.4014C42.1664 49.6078 42.0822 49.8283 42.0129 50.0141C41.8878 50.3502 41.7371 50.7022 41.6064 50.9767C41.4756 51.2512 41.3639 51.4479 41.3168 51.4735ZM56.6179 38.4812C56.5361 38.5257 56.2872 38.538 55.999 38.5243C55.7107 38.5106 55.3836 38.4707 55.1448 38.4109C54.9928 38.3732 54.8515 38.3405 54.7455 38.3187C54.6399 38.2966 54.5697 38.2853 54.5609 38.2901C54.5521 38.2949 54.517 38.2906 54.467 38.281C54.4168 38.2709 54.3527 38.255 54.2856 38.2347C54.2183 38.2152 54.1456 38.1993 54.0814 38.1894C54.0178 38.1793 53.9633 38.1762 53.9332 38.1812C53.9031 38.1861 53.8122 38.0967 53.6897 37.9484C53.5672 37.8 53.413 37.5928 53.2572 37.3625C53.1016 37.1327 52.9252 36.8715 52.7349 36.6045C52.5446 36.3375 52.3407 36.0638 52.1303 35.8078C51.9201 35.5522 51.731 35.3359 51.5546 35.1521C51.3782 34.9683 51.2138 34.8167 51.0533 34.6896C50.8906 34.5611 50.5068 34.2016 50.1664 33.868C49.8252 33.5341 49.5267 33.2264 49.5334 33.2028C49.5443 33.1682 49.7165 33.2535 49.8947 33.3636C50.0721 33.4735 50.256 33.6078 50.2891 33.6693C50.3043 33.6977 50.3411 33.7351 50.3887 33.7727C50.4355 33.81 50.4931 33.8475 50.5494 33.8763C50.6062 33.9048 50.6774 33.9502 50.747 34.0012C50.8162 34.0517 50.8843 34.1075 50.9335 34.1555C50.9822 34.2038 51.1428 34.3321 51.3618 34.4995C51.5808 34.6668 51.8585 34.8737 52.1417 35.0796C52.4249 35.2855 52.7009 35.4906 52.9322 35.6534C53.1639 35.8158 53.3521 35.9358 53.4602 35.9726C53.5685 36.0085 53.7913 36.1431 54.0931 36.3589C54.395 36.5747 54.7757 36.8725 55.2003 37.2345C55.4145 37.4178 55.6488 37.6148 55.8529 37.7856C56.0565 37.9567 56.2309 38.1008 56.3259 38.1767C56.4208 38.2526 56.501 38.3245 56.554 38.3798C56.6071 38.435 56.6324 38.4734 56.6179 38.4812ZM43.1958 45.3767L43.1019 45.2329L43.0076 45.0886C42.9235 44.9594 42.7804 44.6408 42.5842 44.1475C42.3875 43.6544 42.1383 42.9864 41.8417 42.1593C41.7743 41.9716 41.7046 41.812 41.6355 41.6847C41.5662 41.5569 41.4975 41.4627 41.4326 41.4065C41.258 41.2558 41.1151 40.9911 41.0237 40.6804C40.9329 40.3694 40.893 40.0127 40.9248 39.6772C40.9408 39.5091 40.9516 39.269 40.9555 39.0173C40.9594 38.7657 40.9572 38.5027 40.9475 38.2891C40.9375 38.075 40.9389 37.8848 40.9498 37.7507C40.9605 37.6162 40.9796 37.5384 41.0059 37.5488C41.0314 37.559 41.1376 37.6334 41.2888 37.7455C41.4392 37.8574 41.6346 38.0069 41.8373 38.1664C42.0403 38.3264 42.234 38.4702 42.3828 38.5742C42.5314 38.6777 42.6391 38.7486 42.6572 38.7388C42.7049 38.713 42.7494 38.7461 42.7725 38.8264C42.7955 38.9066 42.8084 39.0551 42.8243 39.32C42.8328 39.4502 42.8484 39.5951 42.8662 39.7229C42.8846 39.8504 42.9061 39.9615 42.9261 40.0247C42.946 40.0879 42.9614 40.159 42.9701 40.2237C42.9793 40.2881 42.9812 40.3451 42.9748 40.3792C42.9687 40.4139 42.9732 40.5729 42.9862 40.8014C42.9993 41.0298 43.0201 41.3275 43.0457 41.6404C43.0717 41.9526 43.0928 42.2981 43.1059 42.6026C43.1193 42.9076 43.1241 43.1718 43.1181 43.3225C43.1119 43.4727 43.1113 43.6185 43.1148 43.732C43.1188 43.8453 43.1263 43.9266 43.1383 43.9488C43.1499 43.9705 43.1618 44.0661 43.171 44.2026C43.1796 44.3394 43.1867 44.517 43.1885 44.7021L43.1921 45.0398L43.1958 45.3767ZM49.9114 41.6467C49.8764 41.6363 49.7239 41.284 49.5424 40.8168C49.3601 40.3493 49.149 39.7659 48.9971 39.294C48.9308 39.0897 48.8273 38.775 48.7121 38.4325C48.5975 38.0897 48.4719 37.7189 48.3638 37.4032C48.2555 37.0871 48.1386 36.7202 48.0378 36.3832C47.9365 36.0466 47.8513 35.7398 47.8061 35.5449C47.7189 35.1672 47.6417 34.604 47.5945 34.0805C47.5476 33.5575 47.5305 33.0737 47.564 32.856C47.584 32.7277 47.5964 32.6649 47.6618 32.6995C47.7269 32.7335 47.8447 32.8644 48.0745 33.124C48.3909 33.48 48.6975 33.828 48.9483 34.1142C49.1991 34.4004 49.3934 34.6252 49.4851 34.7349C49.5262 34.784 49.6469 34.9253 49.8081 35.112C49.9696 35.2993 50.171 35.5322 50.3745 35.7667C50.5781 36.0011 50.7776 36.2318 50.9358 36.4141C51.094 36.5965 51.2106 36.7313 51.2472 36.7735C51.3133 36.8504 51.314 37.0521 51.2754 37.2466C51.237 37.4416 51.1595 37.6297 51.0689 37.6789C51.0099 37.711 50.8485 38.1475 50.6949 38.6372C50.5413 39.1269 50.3953 39.6692 50.3682 39.9114C50.3279 40.2709 50.2387 40.7123 50.1471 41.0597C50.0557 41.4075 49.9617 41.662 49.9114 41.6467ZM35.2821 48.5983C35.2423 48.5865 35.1118 47.8594 34.9971 47.1143C34.8816 46.369 34.783 45.6066 34.8077 45.5244C34.8265 45.4622 34.8376 45.224 34.8406 44.9681C34.8431 44.7126 34.8366 44.4392 34.82 44.3074C34.8001 44.1508 34.8695 43.9837 35.0381 43.7947C35.2076 43.606 35.4766 43.3946 35.8556 43.1501C35.9948 43.0606 36.1481 42.96 36.2825 42.8704C36.4169 42.7807 36.533 42.7017 36.5982 42.655C36.6636 42.6088 36.8263 42.4971 37.0373 42.3545C37.2478 42.2123 37.5058 42.0389 37.76 41.8695C38.1638 41.6003 38.4566 41.3973 38.7426 41.1814C39.0288 40.9659 39.7327 40.5071 39.6847 40.4177C39.678 40.4053 39.7847 40.3474 39.8234 40.3411C39.8625 40.3353 39.8923 40.3484 39.9098 40.3823C39.9509 40.4614 39.9748 40.7834 39.9786 41.1229C39.9825 41.4624 39.9655 41.8192 39.9269 41.9677C39.9084 42.0378 39.887 42.1735 39.8679 42.3359C39.8491 42.4976 39.8321 42.6863 39.8213 42.8616C39.7811 43.5474 39.7358 44.057 39.6833 44.4098C39.6307 44.7626 39.5703 44.9588 39.5002 45.0176C39.4601 45.0513 39.3836 45.1069 39.2944 45.1699C39.2045 45.2328 39.1008 45.3024 39.005 45.3644C38.9089 45.4259 38.819 45.4914 38.7512 45.5469C38.6839 45.6021 38.6381 45.6476 38.6319 45.6697C38.6252 45.692 38.5938 45.7257 38.5494 45.7625C38.5047 45.7988 38.4469 45.8382 38.3858 45.8714C38.3247 45.9045 38.1924 46.013 38.0283 46.1621C37.8648 46.3109 37.6693 46.4998 37.4813 46.6926C37.1007 47.0833 36.5771 47.5677 36.1352 47.9504C35.6939 48.3327 35.3346 48.6138 35.2821 48.5983ZM35.3885 42.4936C35.2809 42.556 35.1851 42.6067 35.1119 42.6411C35.0379 42.6752 34.9861 42.692 34.967 42.6864C34.9217 42.673 34.8955 42.5284 34.8912 42.3012C34.8863 42.0743 34.9025 41.7646 34.9408 41.4202C34.9951 40.9311 35.0973 40.2351 35.1991 39.6253C35.3009 39.0156 35.4018 38.4925 35.4527 38.3508C35.506 38.2011 35.7556 37.9535 36.2422 37.5746C36.7297 37.1959 37.4542 36.6858 38.4591 36.0116C38.7178 35.8384 38.9628 35.6794 39.1504 35.563C39.3371 35.4462 39.4665 35.372 39.4921 35.3688C39.5354 35.3633 39.601 35.6586 39.6531 36.0106C39.7051 36.3627 39.7438 36.7721 39.733 36.9934C39.7301 37.0477 39.7464 37.1429 39.7748 37.2517C39.8034 37.3609 39.8442 37.4842 39.8899 37.5955C39.9362 37.7065 39.9777 37.8821 40.0077 38.076C40.0378 38.2691 40.0557 38.4803 40.055 38.6621L40.0539 38.9937L40.0533 39.3249L39.8269 39.4625L39.6008 39.6006C39.4762 39.6762 39.3163 39.7844 39.1589 39.8972C39.0015 40.01 38.847 40.1272 38.7327 40.2219C38.6187 40.3172 38.405 40.4746 38.154 40.6522C37.9027 40.8293 37.613 41.0259 37.3461 41.2001C37.0789 41.3738 36.8054 41.5544 36.5794 41.7051C36.3534 41.8558 36.1751 41.9772 36.0994 42.0317C35.984 42.1157 35.8599 42.1997 35.7378 42.2786C35.6162 42.3573 35.3868 42.4905 35.3885 42.4936ZM42.4893 37.6483C42.4329 37.679 42.2921 37.5826 42.0979 37.3904C41.9037 37.1982 41.6552 36.9088 41.3812 36.5518C41.1022 36.1882 40.9519 35.9868 40.8625 35.8179C40.7733 35.6494 40.7445 35.5136 40.7085 35.2823C40.687 35.1465 40.6317 34.8096 40.5595 34.3764C40.4867 33.9435 40.3976 33.4141 40.3092 32.8923C40.2205 32.3712 40.1368 31.8556 40.0731 31.4458C40.0094 31.036 39.9661 30.7313 39.9583 30.6308C39.944 30.451 39.9394 30.3641 39.9978 30.4318C40.056 30.5003 40.1778 30.7231 40.4169 31.1631C40.5508 31.41 40.6837 31.6448 40.7908 31.8242C40.8971 32.0034 40.9773 32.1266 41.0054 32.1514C41.0334 32.1762 41.0572 32.218 41.0733 32.2653C41.0888 32.3129 41.0969 32.3653 41.093 32.4128C41.0888 32.4597 41.1039 32.5376 41.1316 32.6253C41.1585 32.7128 41.1986 32.8098 41.2441 32.8958C41.2894 32.9813 41.3346 33.0916 41.3711 33.2006C41.4073 33.309 41.4342 33.4165 41.4436 33.4961C41.4532 33.575 41.4749 33.6826 41.503 33.7922C41.5311 33.9017 41.565 34.0134 41.5982 34.1001C41.6314 34.1868 41.6663 34.294 41.6955 34.3969C41.7249 34.499 41.7485 34.5977 41.7594 34.6665C41.7703 34.7353 41.8216 34.9503 41.8956 35.2411C41.9695 35.5319 42.0656 35.8987 42.1671 36.2706C42.2684 36.6433 42.3551 36.9839 42.4137 37.2337C42.4715 37.4832 42.5018 37.6416 42.4893 37.6483ZM57.082 29.0265C57.1042 29.0678 56.8017 29.0139 56.3578 28.9085C55.9137 28.8027 55.329 28.6456 54.7867 28.4803L54.2757 28.3247L53.7652 28.1688L53.7269 27.938L53.6883 27.7068C53.6673 27.5794 53.638 27.4452 53.6077 27.3315C53.5779 27.2176 53.5466 27.1245 53.5219 27.0785C53.4975 27.0331 53.4836 26.9872 53.4804 26.9503C53.4775 26.9125 53.4856 26.884 53.5053 26.8734C53.5255 26.8624 53.5358 26.8181 53.5372 26.7546C53.538 26.6915 53.5297 26.6099 53.5115 26.5251C53.4562 26.2715 53.4712 26.1413 53.5606 26.1348C53.6506 26.128 53.8156 26.2446 54.06 26.4842C54.1847 26.6053 54.3888 26.7774 54.6171 26.9558C54.8448 27.1344 55.0977 27.32 55.3191 27.4694C55.5413 27.619 55.7951 27.8089 56.0254 27.9948C56.2557 28.1807 56.4622 28.3621 56.5903 28.4948C56.7184 28.6274 56.8372 28.7538 56.9264 28.8501C57.0153 28.9459 57.0745 29.0126 57.082 29.0265ZM57.1624 27.9013C57.151 27.9002 57.1311 27.8816 57.0991 27.847C57.0676 27.812 57.0248 27.7598 56.9676 27.6908C56.9031 27.613 56.8333 27.5415 56.7732 27.4894C56.7123 27.4371 56.6611 27.4041 56.634 27.4022C56.6064 27.4005 56.5738 27.3848 56.5429 27.3609C56.5123 27.3362 56.484 27.3035 56.4651 27.2683C56.446 27.2327 56.3646 27.1621 56.2499 27.0769C56.1344 26.9915 55.9854 26.8909 55.8292 26.7969C55.6735 26.7025 55.4326 26.5231 55.17 26.3107C54.9074 26.0982 54.6226 25.8519 54.3798 25.6241C54.1372 25.3954 53.8634 25.1484 53.6191 24.9341C53.3743 24.72 53.1578 24.5386 53.0294 24.4415C52.901 24.3444 52.7858 24.2508 52.7041 24.1771C52.6221 24.1042 52.5735 24.0511 52.5781 24.0373C52.5819 24.0232 52.6911 24.0247 52.8626 24.039C53.0344 24.0525 53.2689 24.0793 53.5254 24.1149C53.782 24.1504 54.0784 24.1756 54.3501 24.187C54.6217 24.1983 54.8674 24.1964 55.0236 24.1783C55.342 24.141 55.5094 24.1302 55.6482 24.2603C55.7878 24.3907 55.8983 24.6623 56.1044 25.1903C56.1622 25.339 56.2579 25.5707 56.3664 25.8247C56.4745 26.0783 56.5948 26.3546 56.7007 26.5914C56.807 26.8279 56.9096 27.0724 56.9903 27.2761C57.0708 27.4794 57.1282 27.641 57.1442 27.7131C57.1578 27.7771 57.1681 27.8248 57.1721 27.856C57.1759 27.888 57.1737 27.9025 57.1624 27.9013ZM52.9815 27.8429C52.9798 27.8945 52.6591 27.7931 52.2581 27.6331C51.8572 27.4731 51.3757 27.2554 51.0538 27.0745C50.9277 27.0042 50.8064 26.9439 50.7119 26.9038C50.618 26.8634 50.5503 26.8434 50.5333 26.8527C50.5154 26.8617 50.4935 26.8596 50.4724 26.8477C50.4516 26.8363 50.431 26.8154 50.4163 26.7881C50.4018 26.7612 50.304 26.6962 50.1587 26.6136C50.0128 26.5313 49.8191 26.431 49.6129 26.3334C49.1977 26.1358 48.9747 26.0233 48.84 25.8996C48.7053 25.7759 48.6584 25.6412 48.5948 25.3996C48.5706 25.3073 48.5221 25.1274 48.4626 24.9122C48.404 24.6971 48.3345 24.4459 48.269 24.2119C48.204 23.9777 48.1229 23.6374 48.0451 23.2773C47.9673 22.9172 47.8927 22.538 47.8394 22.226C47.7333 21.5977 47.6682 21.2948 47.7281 21.2383C47.7888 21.1819 47.9748 21.3725 48.3714 21.7311C48.4383 21.7921 48.5984 21.9208 48.8024 22.0789C49.0062 22.2365 49.2536 22.4245 49.4953 22.6029C49.7372 22.7818 49.9562 22.9565 50.1143 23.0928C50.2728 23.2297 50.3695 23.3286 50.3682 23.3574C50.3661 23.3859 50.4 23.4328 50.4559 23.4845C50.5113 23.5366 50.5891 23.5931 50.6752 23.6437C50.7615 23.6936 50.922 23.8093 51.1107 23.9551C51.2997 24.1014 51.5168 24.2778 51.7168 24.4495C51.9172 24.6209 52.1041 24.7883 52.2438 24.92C52.384 25.0514 52.4768 25.1471 52.4884 25.1749C52.5391 25.2954 52.586 25.4748 52.6246 25.6934C52.6629 25.9128 52.6933 26.1699 52.7111 26.4458C52.7223 26.6085 52.7452 26.7969 52.773 26.9693C52.8015 27.142 52.8351 27.2979 52.8671 27.3973C52.8994 27.4958 52.9282 27.5956 52.9487 27.6759C52.9693 27.7568 52.9822 27.8192 52.9815 27.8429ZM36.1012 36.8091C35.9634 36.8839 35.957 36.7386 36.0531 36.3748C36.1498 36.0108 36.3558 35.4406 36.6629 34.7027C36.9071 34.1165 37.0531 33.7757 37.1854 33.5091C37.3174 33.2419 37.4365 33.0478 37.6272 32.7555C37.7245 32.6066 37.814 32.4619 37.8799 32.3494C37.9464 32.2366 37.9893 32.1559 37.9924 32.1342C38.0033 32.0636 38.1784 31.7237 38.361 31.395C38.5436 31.0664 38.7337 30.7504 38.7746 30.7282C38.8181 30.7046 38.8598 30.7186 38.8862 30.753C38.9127 30.7873 38.9237 30.8427 38.9064 30.9001C38.9004 30.9201 38.9266 31.1281 38.974 31.4466C39.0211 31.7646 39.0893 32.194 39.1673 32.6567L39.309 33.4979L39.4509 34.3396L39.2227 34.5262L38.9953 34.713C38.8702 34.815 38.6374 34.9867 38.3621 35.1802C38.0874 35.3733 37.7709 35.5885 37.4787 35.7791C37.187 35.9695 36.9016 36.1651 36.6777 36.3274C36.4533 36.4899 36.2903 36.6184 36.2425 36.6737C36.2139 36.7065 36.1879 36.734 36.1646 36.7567C36.1408 36.7796 36.12 36.7969 36.1012 36.8091ZM55.121 23.2381C55.1089 23.244 55.0957 23.2718 55.063 23.2856C55.0297 23.2996 54.9833 23.3128 54.9217 23.3289C54.8489 23.3478 54.7121 23.352 54.5491 23.345C54.3864 23.3372 54.1984 23.3172 54.0235 23.2867C53.8494 23.2564 53.577 23.2162 53.2777 23.1758C52.979 23.1351 52.6537 23.0949 52.3749 23.064C51.9469 23.0168 51.6747 22.9757 51.4599 22.9109C51.2446 22.8462 51.087 22.7583 50.8887 22.6171C50.7511 22.519 50.6236 22.4448 50.4723 22.3487C50.3211 22.2527 50.1469 22.1351 49.9166 21.9505C49.6858 21.7662 49.4286 21.5588 49.1801 21.3528C48.9319 21.1472 48.6919 20.9433 48.4962 20.7646C48.3006 20.5859 48.0763 20.4 47.8726 20.2437C47.6689 20.0874 47.4855 19.9614 47.3727 19.9033C47.148 19.7877 46.8295 19.5796 46.5343 19.3649C46.239 19.1502 45.9669 18.9289 45.8373 18.7871C45.7567 18.6981 45.7162 18.654 45.7445 18.6233C45.7726 18.5934 45.8681 18.5769 46.0599 18.5455C46.1662 18.5279 46.3177 18.5124 46.4769 18.5013C46.6362 18.4902 46.8027 18.4839 46.9384 18.485C47.3304 18.4877 48.0815 18.4056 48.8067 18.2975C49.531 18.1892 50.2289 18.054 50.513 17.9504C50.5645 17.9318 50.6366 17.9427 50.7197 17.979C50.8019 18.0151 50.8951 18.0766 50.9884 18.1581C51.1378 18.2892 51.2518 18.3968 51.403 18.5575C51.554 18.7178 51.7425 18.9317 52.0407 19.2762C52.12 19.3679 52.2389 19.4996 52.3661 19.638C52.4934 19.7765 52.6289 19.9217 52.7424 20.0396C53.0008 20.309 53.3319 20.7011 53.6543 21.1119C53.9759 21.5225 54.2883 21.952 54.5104 22.2958C54.6034 22.4402 54.7064 22.5958 54.7983 22.7307C54.8905 22.8662 54.9705 22.9802 55.0169 23.0404C55.0562 23.0925 55.0854 23.132 55.1032 23.1637C55.1214 23.1952 55.1332 23.2321 55.121 23.2381ZM47.6254 25.1851C47.5944 25.192 47.5482 25.177 47.4862 25.1426C47.4251 25.1084 47.3475 25.0538 47.2542 24.981C47.141 24.8923 46.9768 24.7659 46.8035 24.6325C46.6299 24.4999 46.4467 24.3605 46.2962 24.2473C46.1458 24.1341 45.9663 23.9954 45.7979 23.8626C45.6299 23.7303 45.473 23.6039 45.3677 23.5163C45.263 23.4284 45.0764 23.2828 44.8601 23.1193C44.6442 22.9563 44.3987 22.7746 44.1757 22.6148C43.7939 22.341 43.5879 22.1879 43.4536 22.0426C43.3189 21.8976 43.2553 21.7593 43.1574 21.5149C42.9935 21.1041 42.8465 20.7035 42.7384 20.3778C42.6301 20.0517 42.5598 19.8002 42.5503 19.6866C42.5367 19.5319 42.4472 19.1661 42.3318 18.7658C42.2166 18.3659 42.0757 17.9306 41.9598 17.6366C41.8489 17.3566 41.7983 17.1952 41.8122 17.1302C41.8264 17.0658 41.9054 17.0983 42.0533 17.2055C42.1064 17.2434 42.2191 17.3237 42.3575 17.4207C42.4962 17.5182 42.6612 17.6335 42.8183 17.743C42.9755 17.8526 43.1342 17.9625 43.3307 18.0954C43.5269 18.2278 43.7613 18.3828 44.0708 18.5817C44.3801 18.7801 44.6126 18.9415 44.8128 19.0863C45.0139 19.2314 45.1821 19.3603 45.3628 19.495C45.5433 19.6293 45.7504 19.7831 45.9386 19.9231C46.1269 20.0631 46.2961 20.1888 46.4008 20.2667C46.5055 20.3446 46.6062 20.4187 46.683 20.4758C46.7603 20.5326 46.8146 20.5725 46.8269 20.5805C46.839 20.5893 46.8462 20.6214 46.848 20.6671C46.8498 20.7128 46.8463 20.7722 46.8367 20.8327C46.8268 20.8941 46.8457 21.096 46.8825 21.3723C46.9197 21.6483 46.9757 21.999 47.041 22.3571C47.1069 22.715 47.1632 23.0488 47.1994 23.298C47.2365 23.5474 47.2548 23.7123 47.2443 23.7326C47.2347 23.7532 47.252 23.8352 47.2879 23.9506C47.3232 24.0661 47.3771 24.215 47.4409 24.3699C47.5519 24.6386 47.6235 24.8366 47.6546 24.9705C47.686 25.1049 47.6772 25.1744 47.6254 25.1851ZM49.9358 17.2583C49.9358 17.2583 49.3682 17.3895 48.8151 17.4729C48.262 17.5563 47.6464 17.6343 47.3178 17.6539C46.7596 17.6867 46.4032 17.7093 46.1037 17.7344C45.8047 17.7593 45.5623 17.7861 45.2312 17.8271L44.6276 17.9012L43.9247 17.2379C43.5814 16.9138 43.2372 16.643 42.7556 16.3392C42.2744 16.036 41.656 15.7005 40.7653 15.2465C40.3097 15.0148 40.0403 14.8668 39.9126 14.7686C39.7852 14.671 39.7991 14.6234 39.9105 14.5916C40.1989 14.5098 40.7258 14.3426 41.2329 14.176C41.74 14.0095 42.2269 13.8426 42.4341 13.7615C42.8814 13.5868 43.1707 13.4618 43.3486 13.3598C43.5261 13.2582 43.5928 13.1793 43.5938 13.0966C43.595 13.0366 43.6247 13.0085 43.7016 13.0134C43.778 13.0187 43.9021 13.0567 44.0919 13.1299C44.2282 13.182 44.4001 13.2541 44.5665 13.3286C44.7335 13.4028 44.8955 13.479 45.0123 13.5396C45.1292 13.6003 45.2446 13.6544 45.3356 13.6931C45.4269 13.7323 45.4945 13.7549 45.5158 13.7534C45.5376 13.7516 45.563 13.7605 45.5858 13.7754C45.6089 13.791 45.63 13.8128 45.6433 13.8376C45.6566 13.8624 45.7064 13.9028 45.7758 13.9472C45.8449 13.9924 45.9335 14.0417 46.0255 14.0846C46.298 14.2122 46.7924 14.5436 47.3471 14.9585C47.902 15.3725 48.5173 15.8705 49.032 16.3317C49.4476 16.7032 49.6908 16.9255 49.8211 17.0597C49.9518 17.1935 49.9358 17.2583 49.9358 17.2583ZM26.357 30L26.2054 29.9469L26.0543 29.8934C25.802 29.8048 25.5274 29.687 25.3093 29.5799C25.0904 29.4725 24.9291 29.3753 24.9036 29.3277C24.8903 29.303 24.8703 29.2844 24.8498 29.2749C24.829 29.2648 24.8071 29.264 24.7885 29.2741C24.7704 29.284 24.7223 29.2741 24.6598 29.2499C24.5968 29.2261 24.5198 29.1885 24.4433 29.1419C24.3665 29.0962 24.1258 28.9993 23.8004 28.8804C23.475 28.7615 23.0643 28.6208 22.6473 28.4868C22.2299 28.3524 21.8466 28.2229 21.5654 28.1227C21.2839 28.022 21.1044 27.9506 21.0949 27.9317C21.0857 27.9133 21.055 27.7752 21.0126 27.5681C20.971 27.3611 20.9174 27.0846 20.8635 26.7889C20.8094 26.4927 20.7533 26.2116 20.707 25.9959C20.6601 25.7805 20.6227 25.6313 20.6061 25.6003C20.5894 25.5693 20.5704 25.5089 20.5528 25.4364C20.5358 25.3636 20.5197 25.2789 20.5101 25.2C20.4926 25.0567 20.4843 24.9852 20.5381 24.9994C20.5923 25.0132 20.709 25.1134 20.9413 25.3129C21.0696 25.4234 21.2159 25.5501 21.3488 25.6655C21.4819 25.7814 21.6008 25.8856 21.6739 25.9507C21.7473 26.0163 21.8604 26.1111 21.9831 26.2126C22.1064 26.3138 22.2393 26.4204 22.3525 26.5091C22.4662 26.5975 22.6011 26.7091 22.7275 26.8187C22.8531 26.928 22.9705 27.0344 23.0489 27.1119C23.1273 27.1894 23.2165 27.2745 23.2972 27.3487C23.3777 27.4238 23.4502 27.4879 23.4949 27.5237C23.539 27.5598 23.6168 27.6336 23.7064 27.7231C23.7959 27.8126 23.897 27.9186 23.9884 28.0191C24.0796 28.119 24.1878 28.2271 24.2883 28.3207C24.3892 28.414 24.4829 28.4926 24.5449 28.5343C24.6065 28.5756 24.7281 28.6637 24.8744 28.7718C25.0202 28.8801 25.1916 29.0086 25.3513 29.1315C25.5117 29.2545 25.6809 29.3902 25.8249 29.5089C25.9687 29.6283 26.087 29.7315 26.1454 29.7892L26.251 29.8948L26.357 30ZM42.0526 20.9376L41.8395 20.7811L41.6268 20.6243C41.5095 20.5379 41.3944 20.4582 41.3041 20.3985C41.2139 20.3387 41.1478 20.2992 41.1282 20.2951C41.0928 20.2877 40.7679 20.0564 40.4443 19.8177C40.1213 19.5787 39.7993 19.3318 39.7703 19.2915C39.7621 19.2799 39.7316 19.2518 39.688 19.2154C39.6452 19.1793 39.5897 19.1346 39.5328 19.0908C38.8461 18.5622 37.9835 17.7807 37.1267 16.9268C36.2694 16.073 35.4184 15.1465 34.7532 14.328C34.5846 14.1199 34.3991 13.893 34.2358 13.6948C34.0727 13.4971 33.9317 13.328 33.8534 13.2358C33.7751 13.1435 33.6989 13.0515 33.6392 12.9778C33.5795 12.9041 33.5369 12.8485 33.5251 12.8289C33.4521 12.7104 33.7279 12.7955 34.1174 12.9764C34.5066 13.1568 35.0097 13.4335 35.3926 13.6967C35.4995 13.7701 35.6935 13.8896 35.921 14.023C36.148 14.1567 36.408 14.3044 36.6456 14.433C37.0621 14.6593 37.3883 14.8245 37.8069 15.0096C38.2249 15.1951 38.7352 15.4004 39.5191 15.7068C39.8737 15.8453 40.1846 15.9894 40.4031 16.111C40.6216 16.2326 40.7475 16.3324 40.7323 16.3827C40.728 16.397 40.7398 16.45 40.7624 16.5245C40.7847 16.5984 40.8179 16.6938 40.8565 16.793C40.9541 17.0443 41.1562 17.6845 41.3605 18.3696C41.5647 19.0547 41.771 19.7847 41.8763 20.216L41.9646 20.5771L42.0526 20.9376ZM26.6684 29.1044C26.6606 29.1073 26.6512 29.1023 26.6423 29.0945C26.6339 29.0864 26.6244 29.0735 26.6149 29.056C26.5847 28.9997 26.5401 28.9478 26.3824 28.8186C26.2241 28.6896 25.952 28.4831 25.4658 28.1172C25.1802 27.9019 24.7874 27.5493 24.4768 27.2449C24.1666 26.9402 23.9385 26.6837 23.9809 26.6607C23.9939 26.6536 24.0692 26.6595 24.1804 26.6758C24.2918 26.6914 24.4384 26.7166 24.5946 26.7472C24.9261 26.8128 25.1713 26.8472 25.3605 26.8506C25.5496 26.854 25.6826 26.8265 25.7888 26.7689C25.8431 26.7394 25.8901 26.7346 25.9338 26.7562C25.9775 26.7779 26.0178 26.8267 26.0592 26.9037C26.0914 26.9636 26.1196 27.0223 26.1387 27.068C26.1582 27.1141 26.1684 27.148 26.1655 27.1576C26.1629 27.1677 26.1935 27.2731 26.2449 27.4361C26.2968 27.5987 26.3701 27.8185 26.4517 28.055C26.5336 28.2921 26.6035 28.5218 26.6506 28.7004C26.6977 28.8789 26.7216 29.0068 26.7113 29.0411C26.7053 29.061 26.6986 29.076 26.6918 29.087C26.6839 29.0973 26.6759 29.1023 26.6684 29.1044ZM25.6285 25.9839C25.5746 26.0131 25.342 26.0046 25.1096 25.9779C24.8775 25.9518 24.6449 25.9073 24.5915 25.8662C24.5743 25.8529 24.5496 25.8456 24.5243 25.8446C24.4986 25.8439 24.4719 25.8491 24.4501 25.8609C24.4284 25.8727 24.3178 25.8747 24.1577 25.8681C23.9972 25.8619 23.7859 25.8471 23.5645 25.8259L23.1604 25.787L22.7568 25.7479L22.2547 25.3212L21.7517 24.8943C21.1834 24.4115 20.6103 23.8379 20.1798 23.3417C19.7493 22.8454 19.4604 22.4271 19.4605 22.2543C19.4603 22.173 19.4411 22.1086 19.3888 22.045C19.3362 21.9807 19.2516 21.9179 19.1211 21.8393C18.9532 21.7383 18.8697 21.6489 18.8694 21.601C18.869 21.5531 18.953 21.5476 19.1203 21.6149C19.1679 21.6338 19.2244 21.6444 19.276 21.6458C19.3278 21.6477 19.3752 21.64 19.4063 21.6231C19.4368 21.6065 19.4789 21.599 19.5221 21.601C19.565 21.6024 19.6087 21.6127 19.6429 21.6315C19.6773 21.6508 19.7608 21.6755 19.8691 21.7002C19.9768 21.7251 20.1079 21.75 20.2369 21.7687C20.3663 21.7866 20.5079 21.8111 20.6324 21.835C20.7571 21.8593 20.8645 21.8824 20.9245 21.9006C21.0135 21.927 21.4485 21.9671 21.9236 22.0001C22.3988 22.033 22.9148 22.0585 23.1653 22.0553C23.1761 22.0555 23.2362 22.1176 23.3247 22.2177C23.4133 22.3177 23.5302 22.4557 23.6536 22.6082C23.9718 22.9987 24.4997 23.8244 24.9304 24.5613C25.3619 25.2985 25.6963 25.947 25.6285 25.9839ZM20.0288 27.3889C19.9671 27.4223 19.7727 27.353 19.5299 27.226C19.2879 27.0991 18.9982 26.9148 18.7471 26.7175C18.5024 26.526 18.3491 26.4064 18.1541 26.2587C17.9591 26.1111 17.7222 25.9354 17.3116 25.6318C16.9655 25.376 16.6238 25.0611 16.3801 24.7917C16.1366 24.5216 15.9903 24.2967 16.0349 24.2191C16.0555 24.1839 16.0634 24.1276 16.0605 24.0638C16.0574 24.0008 16.0433 23.931 16.0185 23.8698C15.95 23.7001 15.9223 23.5464 15.9467 23.2669C15.9716 22.9871 16.0498 22.5811 16.1928 21.9063C16.3218 21.2985 16.4051 20.937 16.4667 20.7441C16.529 20.5515 16.5696 20.5275 16.6141 20.5954C16.7634 20.8246 16.8967 21.0118 17.0232 21.17C17.1497 21.3282 17.2701 21.4576 17.3939 21.5712C17.4765 21.6465 17.5877 21.7676 17.6999 21.9029C17.8126 22.0379 17.9267 22.1868 18.0153 22.3168C18.1036 22.4464 18.1975 22.5702 18.2773 22.665C18.3572 22.7604 18.4227 22.8262 18.4552 22.8406C18.4882 22.8547 18.5523 22.9067 18.63 22.9779C18.7075 23.05 18.7981 23.1415 18.8831 23.2362C19.0761 23.4497 19.1694 23.5499 19.2163 23.6585C19.263 23.7666 19.264 23.8828 19.2712 24.1291C19.2741 24.2416 19.3075 24.4157 19.3586 24.6054C19.4092 24.7955 19.4778 25.0004 19.552 25.1757C19.6911 25.5044 19.8404 26.0412 19.9406 26.504C20.0402 26.967 20.0899 27.3557 20.0288 27.3889ZM42.9283 12.778C42.9281 12.7775 42.8226 12.8214 42.7008 12.8661C42.5791 12.9109 42.4211 12.9666 42.2565 13.0239C42.0917 13.0807 41.9212 13.1405 41.7802 13.1904C41.6388 13.2411 41.5262 13.2816 41.4762 13.3007C40.9954 13.485 40.6897 13.5982 40.4708 13.6676C40.2514 13.7374 40.1184 13.7635 39.9825 13.7746C39.8959 13.7815 39.7599 13.806 39.6095 13.8396C39.4593 13.8738 39.2956 13.9166 39.1541 13.9607C38.8988 14.0406 38.7682 14.0801 38.5815 14.04C38.3947 14 38.1518 13.8803 37.6716 13.6425C37.4058 13.5113 37.0858 13.36 36.7845 13.2226C36.4828 13.0855 36.1998 12.9622 36.0089 12.8857C35.6374 12.7371 35.1802 12.5222 34.8077 12.3281C34.435 12.1348 34.147 11.9622 34.1137 11.9002C34.1026 11.8796 34.1251 11.8593 34.1712 11.843C34.2167 11.8269 34.2858 11.8148 34.3659 11.8107C34.4467 11.8068 34.5905 11.7981 34.758 11.7873C34.9257 11.777 35.1167 11.7641 35.2906 11.7517C35.5884 11.7309 36.1463 11.7323 36.6496 11.7466C37.1522 11.7607 37.5996 11.7881 37.6757 11.8202C37.6951 11.8277 37.803 11.8431 37.9613 11.8613C38.1198 11.88 38.3289 11.9006 38.5498 11.9208C38.7706 11.9411 38.9881 11.9624 39.1606 11.9809C39.333 11.9994 39.4602 12.0144 39.5014 12.0227C39.5419 12.0308 39.5843 12.0351 39.6203 12.0349C39.6566 12.0353 39.686 12.0313 39.7005 12.0235C39.7144 12.0159 39.7886 12.0157 39.8962 12.0206C40.0039 12.0256 40.1451 12.037 40.2938 12.0523C40.5831 12.0828 41.2723 12.2478 41.8738 12.4137C42.4755 12.5788 42.9897 12.7453 42.9281 12.7775L42.9283 12.778ZM22.5242 21.1597C22.5067 21.2179 22.2985 21.2301 21.9736 21.203C21.6495 21.1761 21.2078 21.1096 20.7247 21.0109C20.4938 20.9634 20.2082 20.921 19.9347 20.8913C19.6615 20.8608 19.3994 20.8435 19.2157 20.8452C19.0315 20.8471 18.8187 20.8358 18.6231 20.8153C18.4282 20.7949 18.2508 20.7658 18.1384 20.7334C17.939 20.6748 17.8296 20.6355 17.6194 20.4086C17.4098 20.1815 17.0994 19.7669 16.4978 18.9585C16.1589 18.5032 15.8528 18.0829 15.6329 17.7719C15.413 17.461 15.279 17.2601 15.2835 17.2437C15.2889 17.2274 15.3325 17.2091 15.3991 17.1936C15.4654 17.1776 15.5552 17.1643 15.651 17.157C15.9571 17.1329 16.3655 17.0467 16.7306 16.9406C17.0959 16.835 17.4183 16.7094 17.5523 16.6053C17.6802 16.5072 17.7469 16.4583 17.8274 16.4786C17.9079 16.499 18.0019 16.5881 18.1852 16.7648C18.2879 16.8639 18.3993 16.9742 18.497 17.0726C18.5947 17.171 18.6776 17.2568 18.7234 17.3073C18.845 17.4415 19.2056 17.7728 19.5508 18.0779C19.8965 18.3826 20.2272 18.6621 20.2903 18.6912C20.4006 18.7421 20.6494 18.94 20.9302 19.19C21.2112 19.4404 21.5247 19.7426 21.7642 20.0029C22.0119 20.2721 22.2131 20.5246 22.3466 20.7283C22.4804 20.9312 22.5463 21.0863 22.5242 21.1597ZM15.0836 23.219L14.9209 23.0184L14.7575 22.8175C14.2849 22.2354 13.7633 21.419 13.3169 20.5944C12.8708 19.7703 12.4994 18.9384 12.3262 18.3272C12.2972 18.2235 12.2353 18.0497 12.16 17.8536C12.0843 17.6579 11.9948 17.4389 11.9096 17.2456C11.6918 16.7507 11.4436 15.8566 11.2967 15.1724C11.15 14.4887 11.1037 14.0141 11.2894 14.3597C11.3185 14.4139 11.3718 14.4931 11.4346 14.5764C11.4974 14.6597 11.5701 14.7477 11.6358 14.8202C11.7023 14.8928 11.8166 15.0209 11.9472 15.1695C12.0774 15.3184 12.2244 15.4875 12.3563 15.6407C12.4881 15.794 12.6346 15.9621 12.7641 16.1086C12.8934 16.2559 13.0061 16.3822 13.0709 16.4518C13.2087 16.5999 13.4841 16.9294 13.7696 17.2828C14.0559 17.6365 14.3521 18.0135 14.5304 18.2557C14.5982 18.3483 14.7164 18.4936 14.8521 18.6528C14.9881 18.8125 15.1407 18.9859 15.2788 19.1358C15.4166 19.2852 15.5502 19.4255 15.6549 19.5321C15.7597 19.6387 15.8351 19.7105 15.8557 19.7227C15.8768 19.7346 15.8741 19.8068 15.853 19.9143C15.8315 20.0214 15.7922 20.1635 15.7391 20.3137C15.6864 20.4645 15.642 20.6073 15.612 20.7157C15.5822 20.8246 15.5675 20.8993 15.575 20.9132C15.5908 20.9427 15.5661 21.1109 15.5176 21.338C15.4697 21.5649 15.3978 21.8508 15.3191 22.115C15.2901 22.2141 15.2655 22.3089 15.2502 22.3813C15.2346 22.4544 15.2282 22.5047 15.2343 22.516C15.2404 22.5274 15.2357 22.5746 15.2244 22.6421C15.2124 22.7094 15.1938 22.7968 15.1699 22.8879L15.127 23.0533L15.0836 23.219ZM17.2002 16.0071C17.2049 16.0159 17.1727 16.0307 17.118 16.0484C17.063 16.0655 16.9844 16.0849 16.8964 16.1026C16.808 16.1199 16.6849 16.1473 16.5575 16.1778C16.4298 16.2078 16.2982 16.2405 16.1933 16.2681C15.9577 16.3313 15.6689 16.3786 15.4339 16.4008C15.199 16.4229 15.0178 16.4192 14.9967 16.3799C14.9881 16.3639 14.9462 16.3532 14.8848 16.3485C14.8242 16.3441 14.7441 16.3455 14.6605 16.3542C14.5302 16.3682 14.4444 16.3628 14.3631 16.3148C14.2826 16.2671 14.2059 16.1766 14.0961 16.0207C13.8627 15.691 13.6317 15.3941 13.3865 15.1095C13.141 14.8258 12.882 14.5554 12.5932 14.2791C12.4367 14.1299 12.2965 13.9871 12.1972 13.8769C12.0973 13.767 12.0386 13.6901 12.0439 13.6726C12.0571 13.6274 12.3249 13.6815 12.6525 13.7772C12.9805 13.8734 13.369 14.0115 13.6241 14.1352C13.7409 14.1919 13.8729 14.251 13.9916 14.3C14.111 14.3493 14.2165 14.3888 14.2803 14.4068C14.344 14.4257 14.4706 14.477 14.6229 14.5465C14.7753 14.6159 14.9538 14.7018 15.1214 14.7883C15.2887 14.8756 15.4537 14.9549 15.5839 15.013C15.7149 15.0713 15.8111 15.1085 15.8419 15.1098C15.8724 15.1119 15.9695 15.1619 16.1009 15.2407C16.233 15.3198 16.3993 15.4277 16.5685 15.546C16.7375 15.6638 16.8929 15.7749 17.0075 15.8588C17.1218 15.9422 17.1955 15.9983 17.2002 16.0071Z" fill="#9BAF8A"/>
</svg>
