<svg width="135" height="29" viewBox="0 0 135 29" fill="none" xmlns="http://www.w3.org/2000/svg">
<path d="M0.456208 8.47914C0.497537 8.4757 0.540178 8.47751 0.581549 8.48524C6.75921 9.5749 9.83286 11.6663 12.4732 15.5137C12.5466 15.6192 12.5749 15.7504 12.556 15.8778C14.4679 16.3618 16.7944 16.7916 19.3791 17.1771C20.0221 17.2332 20.7187 17.3133 21.4768 17.4227C21.5479 17.4342 21.6139 17.4609 21.6735 17.4994C23.5833 17.7476 25.608 17.9718 27.7152 18.1707C26.3103 17.3257 24.9718 16.2783 23.8641 15.1229C22.0697 13.2486 20.8425 11.0649 21.109 8.92414C21.1265 8.77963 21.2055 8.64999 21.326 8.56878L21.3241 8.56879C21.4433 8.48758 21.5917 8.46339 21.7295 8.50161C25.1625 9.44335 26.9879 10.6183 28.1783 12.2966C29.3102 13.8957 29.8563 15.8568 30.8551 18.4465C35.8512 18.8499 41.157 19.1188 46.3156 19.2623C41.5582 16.7425 39.1565 12.6099 38.4217 10.3029C38.3093 9.94874 38.5993 9.59639 38.9619 9.64886C45.6281 10.6119 48.5308 15.1629 49.195 19.3289C53.2332 19.4043 57.1246 19.4002 60.6151 19.3096C64.2741 19.2131 67.9111 18.9053 71.5144 18.4145C68.0039 17.1388 67.6774 15.6825 66.4019 14.2165C65.615 13.3121 64.7902 12.6613 64.1776 11.9072C63.5643 11.1512 63.2054 10.1933 63.5285 9.02208C63.5935 8.78481 63.8177 8.63099 64.0594 8.657C67.1814 9.00507 69.2675 10.0963 70.8081 11.795C72.263 13.3981 73.2366 15.4955 74.3028 17.9956C79.6224 17.1221 84.8583 15.8464 89.9639 14.2376C86.3789 13.7587 85.2129 12.0501 83.4802 10.7789C82.331 9.93823 81.5418 8.93927 81.3707 7.93799C81.2849 7.43604 81.392 6.89594 81.7491 6.51313C82.1049 6.13033 82.6416 5.93003 83.3145 5.87826C83.3242 5.87822 83.3345 5.87687 83.3422 5.87684C85.4228 5.83356 86.9778 6.40747 88.3585 7.68127C89.7023 8.92042 90.9115 10.7832 92.5355 13.3889C95.6226 12.3386 98.6588 11.171 101.633 9.8972C102.246 9.55873 102.933 9.25215 103.701 8.98861C104.114 8.80387 104.528 8.62242 104.938 8.43441C106.447 7.73803 107.915 7.13241 109.349 6.61293C105.704 6.42835 103.931 5.32541 101.454 3.7629C100.852 3.3837 100.386 3.00267 100.067 2.5968C99.7484 2.19092 99.5495 1.69596 99.7098 1.20819C99.8714 0.721718 100.321 0.429171 100.882 0.252414C101.445 0.0756498 102.179 -0.00655443 103.137 0.0003523C104.942 0.0119498 106.819 0.840049 108.475 1.96181C110.064 3.03655 111.451 4.3878 112.353 5.64305C120.206 3.42191 127.174 4.02603 134.636 7.51127C134.947 7.65586 135.084 8.03025 134.941 8.34528C134.798 8.66163 134.43 8.79958 134.119 8.65433C124.74 4.27417 116.458 4.55545 105.673 9.48019C105.418 11.206 105.058 13.028 103.872 14.7178C102.605 16.5209 100.42 18.1279 96.5798 19.3675C96.1901 19.4917 95.8263 19.1116 95.9624 18.7191C96.3382 17.6305 96.6269 15.5618 97.8182 13.5404C98.0166 13.2054 98.2408 12.8717 98.4941 12.5431C94.275 14.203 89.946 15.6546 85.53 16.8445C85.5288 16.8694 85.5238 16.8944 85.5187 16.918C84.8457 19.5311 83.795 21.5119 82.236 22.9866C80.6757 24.4612 78.6335 25.4169 76.0379 26.0688C75.5855 26.1815 75.2444 25.6568 75.5227 25.2776C76.4173 24.0655 76.3479 22.2609 77.2622 20.444C77.6264 19.7164 78.1631 19.0231 78.9825 18.4067C73.7794 19.4834 68.4786 20.1927 63.1232 20.4682C62.1171 22.9545 61.2348 24.5447 59.6319 25.6584C57.9825 26.8037 55.6748 27.4125 51.7895 28.1835C51.4229 28.2558 51.1122 27.9037 51.2219 27.5402C51.7822 25.7148 53.1068 23.5635 55.0786 21.9272C55.6652 21.4391 56.3121 20.9981 57.0148 20.6291C51.8027 20.6821 46.006 20.5779 40.2274 20.312C39.231 22.2828 38.7661 23.5583 37.4851 24.5664C36.0965 25.6595 33.9194 26.323 29.2794 27.339C28.9063 27.4212 28.5858 27.0606 28.7033 26.6905C29.3948 24.5449 30.4548 22.7977 32.2393 21.5239C33.0807 20.9258 34.0724 20.433 35.2537 20.0385C30.2979 19.7243 25.4973 19.2919 21.2647 18.7294C18.8388 20.8999 16.794 22.0107 14.9044 22.5069C12.8903 23.0338 11.0823 22.8587 9.24739 22.6069C8.79563 22.5463 8.65773 21.9506 9.03401 21.6918C10.5546 20.6474 11.1198 19.2586 12.652 18.224C13.0631 17.9467 13.5331 17.7099 14.0983 17.5246C13.0839 17.3065 12.1354 17.0783 11.2812 16.8373C11.2017 16.8146 11.1285 16.7774 11.0644 16.7258C8.3486 17.5594 5.75969 16.9105 3.79462 15.5313C1.54326 13.9475 0.0571009 11.4286 0.000139106 8.99167C-0.00603299 8.72447 0.194669 8.50048 0.456208 8.47914ZM1.20485 9.67128C1.49276 11.5092 2.57495 13.4499 4.35931 14.7019C6.21623 16.008 8.63406 16.5111 11.2214 15.5434C8.93133 12.4208 6.3022 10.6961 1.20485 9.67128ZM22.2368 9.7741C22.3368 11.2681 23.1232 12.9039 24.5746 14.4177C25.9689 15.8747 27.8009 17.0779 29.6162 17.962C28.8214 15.8305 28.2394 14.1066 27.373 12.886C26.4372 11.5652 24.9137 10.6176 22.2368 9.7741ZM39.7981 10.9464C40.8179 13.2911 43.3756 16.8158 48.0039 18.8377C47.2767 15.4381 44.9456 12.0787 39.7981 10.9464ZM101.527 1.12716C101.393 1.15327 101.277 1.18391 101.175 1.2145C100.768 1.34209 100.665 1.48692 100.648 1.53229C100.634 1.57764 100.634 1.70567 100.842 1.96883C101.05 2.2333 101.438 2.56801 101.976 2.90871C104.773 4.67356 106.436 5.6607 110.963 5.58131C110.156 4.62116 109.138 3.62174 107.925 2.79903C106.371 1.7478 104.635 1.01634 103.131 1.00689C102.459 1.00285 101.924 1.05017 101.527 1.12716ZM15.2619 18.2595C14.3562 18.4297 13.7126 18.7158 13.1997 19.0624C12.2164 19.7266 11.5025 20.7259 10.4662 21.7048C11.8607 21.8526 13.2085 21.9099 14.6559 21.5295C16.1544 21.1372 17.8638 20.1472 19.8273 18.5299C18.9587 18.4039 18.121 18.2724 17.3104 18.1363C16.7845 18.1146 16.313 18.1177 15.9346 18.1598C15.695 18.1857 15.4716 18.22 15.2619 18.2595ZM64.459 9.79202C64.423 10.3496 64.5538 10.7864 64.9426 11.2655C65.4455 11.8854 66.2885 12.5683 67.1436 13.55C68.7149 15.3562 68.7394 16.5543 73.1129 17.8189C72.1655 15.6439 71.2723 13.7899 70.08 12.4766C68.7898 11.056 67.0586 10.1801 64.459 9.79202ZM83.1181 6.91965C82.7728 6.98136 82.5684 7.09637 82.4681 7.20442C82.3407 7.3395 82.2986 7.48935 82.3474 7.76493C82.4406 8.31544 83.0525 9.22248 84.0604 9.96193C86.1436 11.4885 87.0623 13.0647 91.2684 13.2728C89.8861 11.0844 88.7669 9.41636 87.6928 8.42701C86.4702 7.29903 85.2709 6.84919 83.3796 6.88519C83.2853 6.89408 83.1975 6.90426 83.1181 6.91965ZM37.8728 20.4738C35.6864 20.8891 34.004 21.4988 32.8115 22.349C31.4902 23.2896 30.6901 24.5689 30.0641 26.1004C33.8081 25.2394 35.8508 24.5778 36.8781 23.7703C37.8229 23.0255 38.3245 21.9028 39.1387 20.261C38.701 20.3263 38.2775 20.3968 37.8728 20.4738ZM104.553 9.98208C103.366 10.521 102.168 11.0416 100.959 11.5457C99.9182 12.3073 99.1908 13.1708 98.6683 14.0565C97.8435 15.4535 97.5146 16.8112 97.2 17.987C100.197 16.8629 102.065 15.5552 103.066 14.1313C103.972 12.8403 104.311 11.432 104.553 9.98208ZM59.5437 20.7555C59.2945 20.8004 59.0499 20.8617 58.817 20.9414C57.6493 21.3325 56.6083 21.9549 55.7029 22.7061C54.2012 23.954 53.2117 25.5276 52.5969 26.9586C55.7313 26.2981 57.8014 25.7086 59.0732 24.8266C60.3199 23.9599 61.0739 22.6393 61.9281 20.6356C61.1064 20.6084 60.2944 20.6167 59.5437 20.7555ZM84.256 17.4776C80.3525 18.2132 78.8574 19.4866 78.145 20.9009C77.5526 22.0797 77.3361 23.4422 76.7984 24.7384C78.756 24.1362 80.3719 23.3737 81.5602 22.2498C82.7832 21.0916 83.6253 19.4989 84.256 17.4776Z" fill="#9BAF8A"/>
</svg>
