<svg width="19" height="50" viewBox="0 0 19 50" fill="none" xmlns="http://www.w3.org/2000/svg">
<path d="M7.63982 49.0983C7.64838 49.095 7.65466 49.0898 7.65865 49.0827C7.66347 49.0753 7.66543 49.0652 7.66511 49.0532C7.66477 49.041 7.67143 49.0293 7.68266 49.0212C7.69302 49.0126 7.70795 49.0071 7.72524 49.0067C7.74588 49.0061 7.76434 48.9768 7.78199 48.9178C7.79908 48.8587 7.81508 48.7698 7.82969 48.6499C7.84211 48.5525 7.86356 48.397 7.88902 48.2247C7.9142 48.0526 7.9434 47.864 7.96965 47.7003C7.99674 47.5366 8.02535 47.3265 8.04957 47.1188C8.07408 46.9116 8.0942 46.7073 8.10519 46.5571C8.12277 46.3108 8.12908 46.1526 8.11757 45.9651C8.10605 45.7776 8.07584 45.5596 8.02095 45.1933C7.98696 44.9693 7.95194 44.7593 7.92118 44.603C7.89124 44.4461 7.86634 44.341 7.8537 44.3277C7.84132 44.3138 7.83362 44.2975 7.83044 44.2834C7.8278 44.2684 7.82969 44.2555 7.83728 44.2475C7.84571 44.2394 7.8473 44.2257 7.84408 44.2102C7.84086 44.1943 7.83257 44.1767 7.81929 44.1606C7.8066 44.1453 7.7853 44.101 7.76106 44.0408C7.73656 43.9814 7.70944 43.9079 7.68536 43.833C7.66045 43.7586 7.62029 43.6466 7.57407 43.5273C7.52867 43.4077 7.4772 43.2799 7.43159 43.1731C7.38654 43.0658 7.34524 42.9634 7.31515 42.8833C7.28424 42.8034 7.26567 42.7467 7.26529 42.7325C7.2649 42.7183 7.25928 42.6964 7.25138 42.6729C7.24378 42.6497 7.2322 42.6243 7.22016 42.6023C7.20814 42.5811 7.1877 42.5376 7.16503 42.4838C7.14209 42.4303 7.1161 42.3673 7.09297 42.3071C7.0707 42.2477 7.03293 42.1723 6.99076 42.0992C6.94886 42.0261 6.90255 41.9551 6.8618 41.9034C6.82134 41.8523 6.76868 41.7837 6.71825 41.715C6.66699 41.6464 6.61738 41.5771 6.58079 41.5245C6.54445 41.4711 6.50429 41.4209 6.44698 41.3351C6.3897 41.2504 6.31582 41.1301 6.21123 40.9373C6.10609 40.7451 6.03512 39.7666 6.00029 38.7216C5.96548 37.6768 5.96651 36.5649 6.00483 36.1059C6.01913 35.9235 6.03458 35.7015 6.04671 35.4905C6.05883 35.2794 6.06845 35.0791 6.07252 34.9411C6.07602 34.8031 6.08126 34.657 6.08653 34.5327C6.09154 34.4089 6.09658 34.3066 6.10108 34.2566C6.1053 34.2065 6.11039 34.0961 6.11507 33.9604C6.12001 33.8237 6.12423 33.6606 6.12638 33.5035C6.132 33.1868 6.14624 32.8686 6.16646 32.5859C6.18668 32.3029 6.21205 32.0558 6.24166 31.8822C6.33071 31.349 6.4169 30.8956 6.49406 30.5514C6.5704 30.2077 6.6377 29.9731 6.68864 29.876C6.70089 29.8542 6.71077 29.8274 6.71871 29.8015C6.72583 29.7756 6.7302 29.7518 6.72974 29.7348C6.72658 29.6185 6.88996 29.0788 7.09577 28.4773C7.30215 27.8767 7.55148 27.2132 7.71882 26.8501C7.89886 26.4609 8.13976 25.9905 8.36972 25.5692C8.6005 25.1477 8.82033 24.7747 8.95883 24.5823C8.99109 24.5371 9.05723 24.4445 9.13705 24.3316C9.2177 24.2186 9.3126 24.0854 9.40207 23.9579C9.49213 23.8319 9.5884 23.6978 9.67129 23.5847C9.75445 23.4717 9.82421 23.3788 9.86094 23.334C10.1158 23.019 10.3145 22.7822 10.4505 22.6289C10.587 22.4759 10.6601 22.4064 10.6677 22.426C10.6725 22.4384 10.6596 22.4898 10.6351 22.5631C10.61 22.636 10.5746 22.7308 10.5324 22.8293C10.4907 22.9276 10.4535 23.0265 10.4263 23.1062C10.3992 23.1862 10.383 23.2472 10.3836 23.2701C10.3842 23.2927 10.3798 23.3163 10.3731 23.336C10.3667 23.3554 10.3571 23.3713 10.3464 23.3783C10.3359 23.3853 10.3155 23.4243 10.2914 23.4808C10.2678 23.5378 10.24 23.6128 10.2151 23.6922C10.1893 23.7716 10.1622 23.8522 10.1389 23.9173C10.115 23.9829 10.0957 24.0334 10.0862 24.0535C10.0658 24.0948 9.98662 24.3844 9.90825 24.6843C9.83075 24.985 9.75408 25.2958 9.74134 25.3818C9.73662 25.4135 9.7279 25.4623 9.71653 25.5162C9.70516 25.5701 9.69252 25.629 9.68022 25.6793C9.64571 25.8268 9.5891 26.2185 9.53884 26.6284C9.48859 27.0384 9.44442 27.4668 9.434 27.6893C9.42868 27.8016 9.42206 27.907 9.41502 27.987C9.40799 28.0673 9.40083 28.1219 9.3955 28.1313C9.38108 28.1551 9.38058 28.4244 9.38934 28.7465C9.39863 29.0678 9.41605 29.4416 9.43747 29.6754C9.44678 29.7818 9.46489 29.9242 9.48527 30.0685C9.50565 30.2122 9.52887 30.3581 9.55032 30.4697C9.61107 30.7845 9.6831 31.1448 9.74384 31.439C9.80486 31.7332 9.8546 31.9612 9.87019 32.0113C9.88035 32.0462 9.87776 32.0742 9.85704 32.1024C9.83549 32.1309 9.79637 32.1598 9.73232 32.1959C9.65429 32.241 9.49404 32.393 9.35386 32.5442C9.21282 32.6945 9.09184 32.8435 9.09287 32.8814C9.09314 32.8912 9.07922 32.9231 9.0561 32.9658C9.03298 33.0086 9.00069 33.0631 8.96593 33.119C8.81307 33.3582 8.62812 33.8128 8.47132 34.2971C8.31367 34.7808 8.18416 35.2937 8.1422 35.6492C8.12622 35.7903 8.1021 35.9811 8.07718 36.1732C8.05173 36.3662 8.02549 36.5611 8.00392 36.7124C7.96919 36.9542 7.95083 37.1205 7.94714 37.3341C7.94375 37.5479 7.95531 37.8091 7.97902 38.24C7.99417 38.5097 8.01093 38.7772 8.02597 38.9916C8.04183 39.2056 8.05542 39.3668 8.06337 39.4229C8.07131 39.4791 8.08116 39.5539 8.09099 39.6279C8.10082 39.7021 8.11009 39.7761 8.11664 39.8323C8.15945 40.1956 8.23587 40.5636 8.32075 40.8527C8.4059 41.1411 8.4987 41.3516 8.5773 41.3994C8.6216 41.4275 8.65265 41.4403 8.69184 41.4342C8.73244 41.4289 8.78171 41.4039 8.86475 41.3581C8.9618 41.3041 9.09447 41.1847 9.22128 41.0447C9.34892 40.9048 9.47096 40.7435 9.55008 40.6049C9.57456 40.5607 9.61343 40.4918 9.65577 40.417C9.6973 40.343 9.74309 40.2617 9.78196 40.1928C9.85546 40.063 9.93237 39.8943 9.9936 39.7341C10.0557 39.5739 10.1031 39.4211 10.1183 39.3221C10.1225 39.2905 10.1338 39.233 10.147 39.167C10.16 39.1008 10.1767 39.0247 10.1918 38.9551C10.2728 38.5985 10.3198 38.3251 10.3415 38.0471C10.3619 37.7686 10.357 37.486 10.3312 37.1116C10.3179 36.9096 10.3009 36.6544 10.2846 36.4054C10.2687 36.1571 10.2529 35.9148 10.2417 35.7401C10.2305 35.5646 10.2156 35.3336 10.2001 35.1024C10.1852 34.872 10.1689 34.6411 10.1571 34.4656C10.1442 34.2901 10.1306 34.0756 10.1186 33.8699C10.1066 33.6646 10.0963 33.4692 10.0898 33.3329C10.0798 33.101 10.076 32.9803 10.0813 32.9408C10.0867 32.9007 10.1012 32.9425 10.1302 33.0352C10.1473 33.0897 10.1748 33.1749 10.2052 33.2684C10.2356 33.3611 10.2697 33.4631 10.2994 33.5494C10.3288 33.6371 10.3631 33.7383 10.3941 33.8326C10.426 33.9266 10.4549 34.0137 10.4729 34.0691C10.5499 34.3056 10.654 34.5821 10.7434 34.8013C10.833 35.0202 10.9094 35.1811 10.9311 35.1883C10.9449 35.1921 10.9573 35.2082 10.9666 35.2303C10.9758 35.2521 10.9822 35.2804 10.983 35.3105C10.9838 35.3398 10.9896 35.3695 10.9981 35.3944C11.0074 35.4184 11.0194 35.4374 11.0316 35.4448C11.0446 35.4517 11.0565 35.4698 11.0658 35.4933C11.0751 35.5159 11.0814 35.5442 11.0822 35.5716C11.0829 35.5992 11.1055 35.6594 11.1402 35.7341C11.1743 35.8091 11.222 35.899 11.2734 35.985C11.3732 36.1522 11.4714 36.3254 11.5556 36.4794C11.6399 36.6337 11.7092 36.7691 11.7511 36.8614C11.7655 36.8918 11.785 36.9297 11.8047 36.9658C11.8249 37.0015 11.8459 37.0353 11.8622 37.0591C12.0852 37.3782 12.3911 37.8292 12.6814 38.2642C12.9712 38.6987 13.2463 39.1163 13.4053 39.3693C13.4793 39.4864 13.5493 39.5953 13.6023 39.6768C13.6558 39.7574 13.693 39.8108 13.7004 39.817C13.7187 39.8321 13.7635 39.8982 13.8143 39.9819C13.8651 40.0662 13.9229 40.1696 13.9689 40.2599C13.9893 40.3014 14.0225 40.3605 14.0584 40.421C14.095 40.4822 14.1346 40.5448 14.1681 40.596C14.2024 40.6465 14.2353 40.7056 14.2605 40.7585C14.2854 40.8128 14.3026 40.8609 14.3076 40.8914C14.3112 40.922 14.3209 40.9603 14.3325 40.9974C14.3436 41.0347 14.3574 41.0701 14.3709 41.0954C14.3945 41.1414 14.4375 41.3079 14.4719 41.4722C14.5065 41.6362 14.5337 41.797 14.5269 41.8321C14.5257 41.8422 14.5268 41.8592 14.5301 41.8778C14.5336 41.897 14.5398 41.9183 14.5476 41.9365C14.555 41.955 14.5739 42.0108 14.5979 42.0839C14.6228 42.1583 14.6524 42.2504 14.6822 42.3431C14.7119 42.4366 14.7563 42.5724 14.8037 42.7154C14.852 42.8592 14.9033 43.0099 14.9465 43.1338C14.9893 43.2585 15.0296 43.376 15.06 43.4667C15.0903 43.5566 15.1099 43.6189 15.113 43.6311C15.122 43.6758 15.1766 43.7929 15.2346 43.9063C15.2935 44.0205 15.3565 44.1301 15.3844 44.1587C15.4228 44.1984 15.4605 44.2496 15.5212 44.3478C15.5809 44.4464 15.6627 44.5921 15.7883 44.8209C15.8462 44.9256 15.9247 45.0513 16.0035 45.1692C16.0832 45.287 16.164 45.397 16.2269 45.4712C16.4252 45.7036 16.5689 45.8856 16.7186 46.1078C16.869 46.3309 17.026 46.5954 17.252 46.9923C17.2939 47.0662 17.351 47.1637 17.4078 47.2615C17.4649 47.3593 17.5225 47.4563 17.5667 47.531C17.6108 47.6046 17.6625 47.6911 17.7088 47.7708C17.7554 47.8507 17.7975 47.9241 17.8237 47.9711C17.9152 48.1352 17.9981 48.2379 18.0794 48.2837C18.1608 48.3292 18.2397 48.317 18.3227 48.2506C18.3536 48.226 18.3728 48.1727 18.3875 48.0253C18.4013 47.877 18.4098 47.6351 18.4187 47.234C18.4252 46.971 18.4348 46.695 18.4449 46.4633C18.4551 46.2314 18.4656 46.0439 18.4755 45.9557C18.4983 45.7466 18.5033 45.4291 18.4953 45.133C18.4873 44.8374 18.4656 44.5636 18.4344 44.4431C18.3499 44.1188 18.1282 43.7227 17.8291 43.3343C17.5299 42.945 17.1531 42.5623 16.7576 42.2638C16.694 42.2156 16.6276 42.1643 16.5723 42.1203C16.5161 42.0767 16.4716 42.0402 16.451 42.0221C16.4304 42.0034 16.3783 41.9568 16.3103 41.8967C16.2422 41.8363 16.1595 41.7621 16.0769 41.6887C15.9948 41.6158 15.9049 41.5432 15.8283 41.4853C15.7511 41.4274 15.6849 41.3848 15.6502 41.3707C15.6155 41.3568 15.5837 41.339 15.5604 41.3212C15.5376 41.3031 15.5228 41.2857 15.5225 41.2728C15.5221 41.26 15.5149 41.2488 15.5032 41.2404C15.4915 41.2329 15.4763 41.2278 15.4585 41.2283C15.442 41.2287 15.4139 41.22 15.3823 41.206C15.3509 41.1918 15.3163 41.1721 15.2856 41.1501C15.2557 41.128 15.2092 41.1013 15.1599 41.0762C15.1107 41.0518 15.0579 41.0282 15.0139 41.0123C14.9014 40.9718 14.8149 40.9178 14.7294 40.8222C14.6425 40.726 14.5567 40.5883 14.4444 40.3784C14.3383 40.182 14.2119 39.9675 14.0378 39.692C13.864 39.4168 13.6419 39.0807 13.3461 38.6413C13.1237 38.3117 12.9778 38.1004 12.8823 37.9761C12.7868 37.8514 12.7428 37.8118 12.7225 37.8252C12.7113 37.8328 12.7035 37.8344 12.7011 37.83C12.6983 37.8267 12.7008 37.8172 12.7083 37.8041C12.7165 37.7905 12.6868 37.7218 12.6327 37.6234C12.5792 37.5241 12.5007 37.3948 12.4113 37.2579C12.1781 36.904 11.8847 36.387 11.6262 35.8939C11.3678 35.4 11.1448 34.9296 11.0557 34.6692C11.0384 34.6194 11.0161 34.5558 10.9929 34.4928C10.9705 34.4306 10.9474 34.369 10.9297 34.3246C10.7953 33.9797 10.6062 33.3582 10.4285 32.705C10.25 32.0509 10.0834 31.3656 9.99492 30.8913C9.9773 30.7974 9.9565 30.6894 9.93651 30.5906C9.9168 30.4918 9.89876 30.403 9.88635 30.347C9.87422 30.2909 9.85693 30.127 9.83817 29.909C9.81994 29.6901 9.80051 29.4169 9.78521 29.1416C9.76021 28.7044 9.74854 28.4289 9.75169 28.1752C9.75484 27.9214 9.77198 27.6896 9.80601 27.3398C9.84253 26.9687 9.88553 26.6103 9.93306 26.2847C9.98084 25.9583 10.0329 25.6655 10.0863 25.4232L10.1084 25.3233L10.1308 25.2228L10.1715 25.3023L10.213 25.3813C10.2356 25.4242 10.2686 25.5067 10.3033 25.6038C10.3389 25.7008 10.3754 25.8133 10.4062 25.9174C10.4369 26.021 10.4799 26.1563 10.5257 26.2901C10.5715 26.424 10.6186 26.5569 10.6576 26.6558C10.696 26.7555 10.7357 26.8711 10.7679 26.9773C10.8001 27.0842 10.8248 27.1815 10.8352 27.244C10.8455 27.3059 10.8606 27.3692 10.8757 27.4201C10.8913 27.4719 10.9075 27.5113 10.9202 27.5261C10.9326 27.5414 10.9416 27.5562 10.9447 27.5662C10.9486 27.5767 10.9465 27.5831 10.9387 27.5833C10.9315 27.5835 10.932 27.6022 10.9392 27.6327C10.9465 27.6641 10.9599 27.7064 10.9791 27.7525C10.9973 27.7991 11.0189 27.8513 11.038 27.8988C11.0572 27.946 11.0734 27.9877 11.0841 28.0117C11.094 28.0371 11.1039 28.0647 11.1133 28.0902C11.1218 28.1156 11.1288 28.1383 11.1328 28.1527C11.136 28.166 11.1534 28.2007 11.1783 28.2458C11.203 28.2906 11.2352 28.3447 11.2696 28.3996C11.3792 28.5724 11.6749 29.1223 11.9427 29.6389C12.2109 30.1551 12.4521 30.6381 12.4532 30.678C12.4535 30.6916 12.4581 30.7043 12.4656 30.7156C12.4732 30.7268 12.4826 30.7358 12.4933 30.7397C12.5043 30.7438 12.5455 30.7904 12.6033 30.8625C12.6608 30.9338 12.7349 31.032 12.8114 31.1371C12.8885 31.2427 12.9916 31.3806 13.0956 31.5187C13.1992 31.656 13.3037 31.7929 13.3844 31.8965C13.4651 32.0001 13.5561 32.1162 13.6377 32.2212C13.7189 32.3253 13.7907 32.4185 13.8338 32.4737C13.876 32.5284 13.9219 32.5858 13.9603 32.6324C13.9993 32.6799 14.0318 32.717 14.0473 32.7331C14.0634 32.7491 14.0782 32.7702 14.0896 32.7905C14.1002 32.8109 14.1072 32.8313 14.1076 32.8464C14.108 32.8615 14.1317 32.9002 14.1705 32.9519C14.209 33.003 14.2612 33.0658 14.3196 33.1287C14.4018 33.2177 14.4614 33.2741 14.5123 33.3071C14.5631 33.34 14.6063 33.3494 14.6562 33.3453C14.7339 33.3387 14.797 33.3205 14.8362 33.2952C14.8763 33.2706 14.8927 33.2387 14.879 33.2042C14.8688 33.1801 14.868 33.1193 14.8776 33.0005C14.8864 32.8811 14.9067 32.7033 14.9395 32.4445C14.9467 32.3885 14.9544 32.3339 14.9613 32.2924C14.9686 32.2514 14.9751 32.222 14.9785 32.2154C14.9825 32.2089 14.9889 32.1566 14.9946 32.078C15.0011 31.9991 15.0083 31.8931 15.0144 31.7808C15.02 31.667 15.0272 31.5611 15.0334 31.4816C15.0407 31.4022 15.047 31.3484 15.051 31.3411C15.0558 31.3331 15.0584 31.2644 15.0598 31.1616C15.0612 31.0581 15.0611 30.9194 15.0584 30.7701C15.0535 30.4259 15.0238 30.1244 14.967 29.8502C14.9096 29.5766 14.825 29.3289 14.7091 29.092C14.6902 29.0532 14.6726 29.0123 14.6597 28.9792C14.6474 28.9458 14.6394 28.9189 14.6391 28.9066C14.6386 28.8874 14.5771 28.7833 14.4833 28.6388C14.3892 28.4942 14.262 28.3082 14.1299 28.1231C14.101 28.0835 14.0496 28.0117 13.9901 27.9285C13.9309 27.845 13.8633 27.7511 13.8016 27.6649C13.74 27.5786 13.6514 27.4697 13.5584 27.3628C13.4648 27.2562 13.3668 27.1517 13.2868 27.076C13.1468 26.9434 13.0003 26.7807 12.8694 26.6166C12.7385 26.4521 12.6223 26.2859 12.5452 26.1465C12.5143 26.0896 12.4488 26.0012 12.3308 25.8582C12.2119 25.7154 12.0408 25.5186 11.7989 25.2452C11.7748 25.218 11.7525 25.1893 11.7359 25.1649C11.7196 25.1402 11.709 25.1204 11.7088 25.1112C11.708 25.102 11.6818 25.0612 11.6389 25.0032C11.5957 24.9449 11.5373 24.8694 11.4723 24.7906C11.4071 24.7114 11.3487 24.636 11.3058 24.5771C11.2626 24.5183 11.2358 24.4769 11.2355 24.4668C11.2352 24.456 11.23 24.4469 11.222 24.4407C11.2131 24.4337 11.2016 24.4298 11.1896 24.4301C11.1768 24.4305 11.1551 24.4224 11.131 24.4083C11.1057 24.3944 11.0787 24.3759 11.0539 24.3546C10.9798 24.2907 10.9268 24.248 10.877 24.2137C10.8275 24.1785 10.7818 24.1526 10.7233 24.1227C10.6922 24.1079 10.6573 24.0868 10.626 24.0662C10.5939 24.0447 10.5654 24.0234 10.5485 24.0074C10.5018 23.9629 10.4842 23.9221 10.5494 23.7239C10.6149 23.5256 10.7624 23.1697 11.0463 22.4969C11.1315 22.2939 11.2148 22.1019 11.2795 21.9564C11.3447 21.8109 11.392 21.7114 11.406 21.6934C11.4189 21.6755 11.4797 21.6216 11.5648 21.5493C11.6507 21.4769 11.7627 21.3862 11.8788 21.2946C11.9955 21.2029 12.104 21.1168 12.1851 21.0518C12.2654 20.9868 12.3186 20.943 12.3248 20.9361C12.3311 20.9292 12.3619 20.905 12.4068 20.8708C12.4508 20.837 12.5096 20.7935 12.5712 20.7488C12.6322 20.7042 12.7057 20.6472 12.7757 20.5918C12.8448 20.536 12.9106 20.4818 12.9544 20.442C12.9983 20.4023 13.0774 20.3349 13.1679 20.2579C13.2596 20.1809 13.3636 20.0949 13.4586 20.0178C13.5531 19.9407 13.6494 19.8614 13.7291 19.795C13.808 19.7289 13.8702 19.6762 13.8961 19.6526C13.9211 19.629 13.9476 19.6077 13.9695 19.592C13.9911 19.5763 14.0087 19.5664 14.0159 19.5659C14.0229 19.5654 14.0476 19.5488 14.0812 19.5223C14.114 19.4957 14.1559 19.4591 14.1984 19.4192C14.2417 19.3795 14.3078 19.3185 14.3803 19.2526C14.4522 19.1868 14.5301 19.116 14.5971 19.0558C14.8041 18.8702 14.9626 18.7236 15.092 18.5967C15.2219 18.4698 15.3234 18.3624 15.417 18.2549C15.4668 18.1977 15.5383 18.1168 15.6125 18.0322C15.6872 17.9475 15.7657 17.8592 15.8294 17.7877L16.0618 17.528L16.0169 17.643L15.9715 17.7584C15.9461 17.8216 15.9199 17.8846 15.8976 17.9346C15.8755 17.9849 15.8573 18.0225 15.8484 18.0353C15.8022 18.1015 15.6859 18.527 15.5697 19.0157C15.4546 19.5042 15.3387 20.056 15.2938 20.3754C15.2849 20.437 15.2616 20.5861 15.233 20.7655C15.2044 20.9449 15.1699 21.1546 15.14 21.3368C15.1337 21.3747 15.1247 21.4321 15.1144 21.4944C15.1046 21.5566 15.0933 21.6236 15.0843 21.6805C15.0758 21.7371 15.0603 21.8271 15.0438 21.9269C15.0264 22.0265 15.0073 22.1355 14.9906 22.23C14.974 22.3246 14.9556 22.4409 14.9408 22.5526C14.9251 22.6644 14.9133 22.7711 14.9066 22.846C14.9009 22.921 14.8941 22.9918 14.8878 23.0458C14.8806 23.0996 14.8752 23.1366 14.8712 23.1434C14.8603 23.1629 14.8472 23.3377 14.8361 23.5881C14.825 23.8384 14.816 24.1644 14.812 24.4868C14.81 24.6496 14.8054 24.8004 14.8007 24.9144C14.7952 25.0282 14.7894 25.1031 14.7832 25.1128C14.7622 25.1496 14.7887 25.3669 14.8313 25.5993C14.875 25.8317 14.9345 26.0796 14.9807 26.176C15.0399 26.3003 15.0952 26.3638 15.1704 26.3704C15.2454 26.3767 15.3406 26.325 15.4797 26.2177C15.6331 26.0997 15.7503 25.9988 15.8554 25.8916C15.9611 25.7843 16.0529 25.6719 16.1543 25.5304C16.2059 25.4584 16.2595 25.386 16.3045 25.3265C16.35 25.2666 16.3864 25.2204 16.4038 25.2016C16.4698 25.1275 16.7137 24.5928 16.9655 23.9982C17.2181 23.4033 17.4774 22.7485 17.576 22.4333C17.6471 22.2053 17.7001 21.9778 17.7472 21.686C17.7937 21.3945 17.8331 21.0392 17.8758 20.5558C17.92 20.0584 17.9412 19.7807 17.9317 19.5326C17.9219 19.2847 17.8825 19.0664 17.8049 18.6887C17.7062 18.2061 17.6388 17.9045 17.5672 17.6634C17.4956 17.4223 17.4198 17.2418 17.3042 17.0019C17.2261 16.8393 17.1749 16.7216 17.1464 16.6375C17.1184 16.5531 17.1134 16.5025 17.1277 16.4742C17.1547 16.4201 17.1543 16.3535 17.1349 16.2968C17.1163 16.2403 17.0771 16.1934 17.0267 16.1791C16.9885 16.1679 16.9711 16.1558 16.9783 16.1107C16.9865 16.0655 17.0201 15.9876 17.0847 15.8455C17.2108 15.5696 17.3768 15.1549 17.5113 14.7948C17.6452 14.4348 17.7483 14.1292 17.7467 14.0712C17.7463 14.055 17.7493 14.0354 17.7558 14.0168C17.7626 13.9982 17.7713 13.9807 17.781 13.9684C17.7916 13.9561 17.8063 13.9219 17.8221 13.8766C17.8381 13.8309 17.8544 13.7744 17.8685 13.7176C17.8826 13.6609 17.9017 13.5931 17.922 13.5297C17.9424 13.4667 17.9631 13.4078 17.979 13.3686C18.0121 13.2912 18.0526 13.1598 18.0961 12.9934C18.1388 12.827 18.1846 12.6256 18.2281 12.4084C18.2556 12.2704 18.2836 11.9238 18.3028 11.5301C18.3214 11.1363 18.3323 10.6948 18.327 10.367C18.3248 10.2156 18.3371 9.97967 18.3591 9.71255C18.3812 9.44514 18.413 9.1465 18.4512 8.86916C18.4573 8.82518 18.4726 8.71062 18.4936 8.5613C18.5138 8.412 18.5387 8.22796 18.5639 8.0456C18.5888 7.86296 18.6176 7.62774 18.6442 7.39566C18.6705 7.16358 18.6944 6.93464 18.7099 6.7651C18.7251 6.59528 18.7451 6.40524 18.7647 6.2353C18.7844 6.06536 18.8038 5.91581 18.8187 5.82749C18.834 5.73497 18.846 5.5711 18.8526 5.37277C18.8595 5.17472 18.861 4.94248 18.8571 4.71346C18.8531 4.49532 18.8512 4.29359 18.8513 4.14428C18.8518 3.99496 18.8547 3.89804 18.8595 3.88981C18.8643 3.88131 18.8687 3.82733 18.8707 3.74662C18.8735 3.66617 18.8748 3.55924 18.8739 3.4454C18.8731 3.33156 18.8804 3.17981 18.8924 3.02711C18.9048 2.87467 18.9215 2.721 18.9404 2.60327L18.9412 2.60325C18.9985 2.24697 19.0205 2.02925 19.0001 1.90673C18.9795 1.78449 18.916 1.75747 18.8022 1.78233C18.7498 1.79408 18.7159 1.81175 18.69 1.8546C18.6639 1.89773 18.6459 1.96631 18.6247 2.07964C18.5781 2.31701 18.5466 2.54337 18.5256 2.79539C18.5045 3.04742 18.4942 3.32511 18.492 3.66509C18.4907 3.88309 18.487 4.08581 18.481 4.23668C18.4759 4.38752 18.4699 4.48676 18.4633 4.4981C18.4572 4.50915 18.4566 4.51922 18.4618 4.52633C18.4662 4.53347 18.4763 4.53766 18.4906 4.53727C18.5048 4.53688 18.5149 4.5408 18.5201 4.54707C18.5253 4.55363 18.5256 4.56255 18.5203 4.57274C18.5141 4.58296 18.5084 4.63837 18.5056 4.71882C18.5013 4.7996 18.4992 4.90571 18.5 5.01787C18.5008 5.22019 18.4975 5.36847 18.4841 5.56029C18.47 5.75212 18.4457 5.98749 18.4037 6.36317C18.3739 6.63218 18.358 6.77466 18.346 6.86848C18.3343 6.96201 18.3269 7.00687 18.3141 7.08006C18.3078 7.11567 18.3004 7.18369 18.2932 7.26454C18.2861 7.34511 18.2795 7.43878 18.274 7.52573C18.2691 7.61293 18.2635 7.69486 18.2574 7.75698C18.2513 7.8191 18.2452 7.86141 18.2412 7.86877C18.2369 7.87587 18.2309 7.91092 18.2236 7.96135C18.2163 8.01178 18.2089 8.07757 18.2022 8.14669C18.1962 8.21578 18.1864 8.29671 18.1756 8.37124C18.1645 8.44605 18.153 8.51446 18.1433 8.55854C18.1257 8.63996 18.0992 8.82626 18.0744 9.041C18.0495 9.25573 18.0254 9.49919 18.0115 9.69437C18.0072 9.75281 18.0026 9.87294 18.0002 10.019C17.9963 10.165 17.9938 10.3373 17.9932 10.5003C17.9913 11.0069 17.9827 11.3685 17.9645 11.6512C17.9459 11.9336 17.9171 12.137 17.8737 12.3271C17.8513 12.4279 17.8277 12.5326 17.8094 12.6199C17.7911 12.7072 17.7765 12.7771 17.7718 12.8085C17.766 12.8399 17.7552 12.8851 17.7408 12.9321C17.7257 12.9791 17.7091 13.0284 17.6924 13.0682C17.6756 13.1083 17.6609 13.1514 17.6499 13.1891C17.6395 13.2265 17.6331 13.2582 17.6335 13.275C17.634 13.292 17.6199 13.3487 17.5963 13.4267C17.5733 13.5046 17.5411 13.6034 17.5059 13.7046C17.4702 13.806 17.4304 13.9238 17.3957 14.0322C17.3607 14.1406 17.3304 14.2393 17.3129 14.3026C17.2953 14.3659 17.275 14.4281 17.2562 14.4777C17.2375 14.5277 17.2201 14.5644 17.209 14.5767C17.1979 14.589 17.1884 14.6094 17.1812 14.6322C17.1745 14.655 17.1702 14.6805 17.1708 14.7031C17.1714 14.7256 17.1678 14.7464 17.161 14.7614C17.1544 14.7763 17.1446 14.7858 17.1337 14.7861C17.1231 14.7864 17.1051 14.8115 17.085 14.8511C17.0646 14.891 17.0423 14.9457 17.0228 15.0057C16.9243 15.3039 16.8078 15.5876 16.6722 15.8586C16.5359 16.1294 16.3808 16.3879 16.2052 16.6352C16.1461 16.7183 16.0871 16.8061 16.0392 16.8811C15.9918 16.9558 15.9555 17.0176 15.943 17.0481C15.9296 17.0786 15.9047 17.1206 15.876 17.1635C15.8471 17.2064 15.8139 17.2503 15.7836 17.2849C15.7525 17.3195 15.6824 17.3993 15.5944 17.4999C15.5056 17.6003 15.3997 17.7215 15.2963 17.8396C15.132 18.0263 14.8443 18.3143 14.5412 18.5999C14.2389 18.8856 13.9214 19.1691 13.6985 19.3473C13.6578 19.3797 13.5943 19.4331 13.5253 19.493C13.4555 19.5527 13.3808 19.6189 13.316 19.677C13.2517 19.7351 13.1742 19.8014 13.1022 19.8612C13.0304 19.9209 12.9623 19.9744 12.9175 20.0068C12.8728 20.0393 12.8258 20.0744 12.7867 20.1047C12.7474 20.1351 12.7159 20.1605 12.7012 20.1738C12.6868 20.187 12.6407 20.2251 12.5784 20.2756C12.5162 20.3261 12.4378 20.3888 12.358 20.4521C12.2785 20.5154 12.2007 20.5792 12.1402 20.6311C12.0793 20.683 12.036 20.7229 12.0236 20.7383C11.9974 20.7711 11.9306 20.8084 11.874 20.83C11.8174 20.8517 11.7712 20.8579 11.7869 20.8291C11.793 20.818 11.8214 20.7645 11.8623 20.6866C11.9037 20.609 11.9573 20.5074 12.0139 20.4004C12.0701 20.2933 12.1268 20.1902 12.1709 20.1106C12.2151 20.031 12.2487 19.9742 12.2598 19.9605C12.2992 19.9103 12.3739 19.7933 12.4387 19.6847C12.5036 19.576 12.5589 19.4757 12.5585 19.4598C12.5582 19.4509 12.5858 19.3968 12.6302 19.3172C12.6752 19.2376 12.736 19.1321 12.8036 19.02C13.0498 18.6126 13.2098 18.3478 13.3225 18.162C13.4361 17.9761 13.5024 17.8693 13.5599 17.7785C13.5928 17.7273 13.6251 17.6732 13.6518 17.6269C13.6782 17.5807 13.6986 17.5425 13.7059 17.5236C13.714 17.5047 13.7507 17.4378 13.8049 17.3454C13.8579 17.253 13.9284 17.1352 14.0021 17.014C14.1507 16.7706 14.3319 16.4254 14.5066 16.0648C14.6804 15.7043 14.8466 15.328 14.9633 15.0218C15.0667 14.7513 15.2045 14.3278 15.3258 13.9229C15.4468 13.5183 15.5513 13.132 15.5881 12.9362C15.6892 12.394 15.7407 12.1021 15.7553 11.5923C15.7708 11.0829 15.7502 10.3559 15.7076 8.94402C15.6695 7.64341 15.6453 6.91957 15.6158 6.35662C15.5862 5.79339 15.5496 5.39111 15.4846 4.73285C15.4675 4.55776 15.4491 4.27053 15.4331 3.9489C15.4166 3.62701 15.4032 3.2707 15.397 2.95718C15.3878 2.53964 15.3755 2.21847 15.3576 1.95187C15.3395 1.68529 15.3153 1.47328 15.282 1.27353C15.2573 1.12377 15.2315 0.967347 15.2101 0.835644C15.1892 0.703926 15.1721 0.597221 15.1643 0.547197C15.1318 0.329278 15.0901 0.179429 15.0369 0.0924051C14.9832 0.00511422 14.9175 -0.0190537 14.8369 0.0143944C14.8052 0.0275373 14.787 0.044778 14.78 0.0776167C14.7731 0.110181 14.7764 0.158374 14.7893 0.233375C14.7977 0.284776 14.8095 0.369855 14.8218 0.465246C14.8339 0.560923 14.8469 0.667182 14.8564 0.760971C14.8668 0.854741 14.8822 0.970423 14.8994 1.08159C14.9175 1.19245 14.936 1.29884 14.9523 1.37375C14.9705 1.45642 14.9894 1.66131 15.0074 1.95191C15.0245 2.24281 15.0406 2.61913 15.0522 3.04498C15.0708 3.72962 15.0803 4.07961 15.0737 4.25813C15.0671 4.43692 15.0444 4.44479 15.0001 4.44572C14.8224 4.4486 14.6799 4.46335 14.5563 4.49379C14.4321 4.52423 14.3278 4.57061 14.2266 4.63615C14.1663 4.67546 14.1029 4.71486 14.051 4.74697C13.9991 4.77908 13.9574 4.80366 13.9392 4.81281C13.9208 4.82224 13.8807 4.84621 13.8324 4.87739C13.7833 4.90858 13.7257 4.94699 13.6701 4.98506C13.6148 5.02312 13.5391 5.07346 13.4618 5.12412C13.3848 5.17478 13.306 5.22576 13.2449 5.26454C13.1093 5.34972 12.8445 5.56734 12.5674 5.81322C12.2913 6.05905 12.0029 6.33258 11.8205 6.53039C11.5789 6.79064 11.3914 6.99752 11.2496 7.16017C11.1075 7.32283 11.0105 7.44101 10.9522 7.52353C10.9199 7.56822 10.882 7.61977 10.8461 7.66707C10.8103 7.71465 10.7763 7.75772 10.7542 7.78483C10.7001 7.84937 10.5882 8.06452 10.4661 8.32543C10.3437 8.58663 10.2122 8.89329 10.1196 9.1414C9.94712 9.60435 9.81765 9.94416 9.72668 10.1705C9.63626 10.3965 9.58517 10.5089 9.56891 10.5163C9.55982 10.5208 9.55144 10.5308 9.54537 10.5435C9.53985 10.5559 9.53607 10.5711 9.53647 10.5856C9.53687 10.6004 9.52984 10.6293 9.51711 10.664C9.50521 10.6986 9.48845 10.7393 9.4694 10.7775C9.41863 10.881 9.34328 11.2099 9.28201 11.5531C9.2199 11.8967 9.17186 12.2547 9.17403 12.4168C9.17532 12.4949 9.17401 12.6007 9.16968 12.7085C9.1662 12.8166 9.15998 12.9265 9.1531 13.0121C9.14066 13.1603 9.13555 13.2394 9.14701 13.2913C9.15848 13.3435 9.18706 13.3684 9.2409 13.4085C9.31895 13.4666 9.37826 13.4924 9.43885 13.4835C9.49861 13.4743 9.56105 13.4305 9.64366 13.3484C9.68279 13.3097 9.72091 13.2746 9.75091 13.2489C9.7812 13.2236 9.80337 13.2073 9.80978 13.2072C9.81703 13.207 9.83189 13.1993 9.85081 13.1868C9.86973 13.1743 9.89215 13.1572 9.91369 13.1385C9.99139 13.0708 10.2167 12.8989 10.426 12.7436C10.6355 12.5886 10.8282 12.4502 10.8425 12.4498C10.8503 12.4496 10.8629 12.4429 10.8783 12.4321C10.8939 12.4214 10.9113 12.4067 10.9265 12.3906C10.9417 12.3746 10.9698 12.3493 11.0034 12.3215C11.0361 12.2936 11.0746 12.2635 11.1088 12.2375C11.2686 12.1187 11.5605 11.8409 11.855 11.5379C12.1504 11.2352 12.4474 10.9072 12.617 10.6883C12.709 10.5705 12.8564 10.3491 12.9811 10.1509C13.1058 9.95274 13.2076 9.7775 13.2069 9.75129C13.2067 9.74209 13.2241 9.70784 13.2521 9.65964C13.281 9.61169 13.32 9.55006 13.3632 9.4861C13.4064 9.42241 13.4599 9.33472 13.511 9.24514C13.5622 9.15556 13.611 9.06408 13.6448 8.992C13.6794 8.91989 13.7152 8.8511 13.7453 8.79865C13.7754 8.74592 13.8001 8.70953 13.8119 8.70195C13.8506 8.67634 13.9366 8.52609 14.0246 8.34425C14.1118 8.16243 14.2017 7.94899 14.2475 7.79816C14.2732 7.71597 14.305 7.6205 14.3352 7.53232C14.3666 7.44439 14.3965 7.36404 14.418 7.31294C14.4395 7.26157 14.4609 7.2074 14.4775 7.16146C14.4941 7.11552 14.5059 7.0778 14.5096 7.05956C14.5128 7.04133 14.5195 7.02189 14.526 7.00553C14.5334 6.98942 14.5417 6.9758 14.5488 6.96946C14.5564 6.96312 14.5823 6.88846 14.6199 6.77385C14.6567 6.65898 14.7038 6.50392 14.7523 6.33627C14.8013 6.1686 14.8584 5.989 14.9109 5.83463C14.963 5.68056 15.0109 5.55143 15.042 5.485L15.0973 5.36433L15.1532 5.24336L15.1719 5.34556L15.1903 5.44748C15.2146 5.58274 15.2662 6.47385 15.3148 7.50011C15.3633 8.52666 15.4091 9.68836 15.4233 10.365C15.434 10.8916 15.4342 11.2355 15.4118 11.5727C15.3897 11.9096 15.3451 12.2398 15.2671 12.7398C15.2499 12.8469 15.2309 12.9571 15.2141 13.0485C15.1965 13.1397 15.1815 13.2124 15.1723 13.2439C15.0631 13.6206 15.0048 13.8189 14.9615 13.9281C14.9181 14.037 14.8899 14.057 14.8419 14.077C14.8087 14.0905 14.7704 14.0954 14.7265 14.0919C14.6823 14.0883 14.6334 14.0763 14.5798 14.056C14.5084 14.0283 14.4551 14.0153 14.3708 14.0178C14.2866 14.0207 14.1708 14.0395 13.9753 14.0757C13.8537 14.0986 13.732 14.1214 13.6354 14.14C13.5388 14.1588 13.4664 14.173 13.4414 14.1787C13.2447 14.2234 13.0396 14.2742 12.8504 14.3251C12.6617 14.376 12.4886 14.4268 12.3548 14.4709C12.2685 14.4997 12.1841 14.5271 12.1183 14.5482C12.0532 14.5689 12.0056 14.5834 11.9937 14.5862C11.9809 14.589 11.9442 14.6012 11.8952 14.6184C11.8457 14.6357 11.7849 14.658 11.7225 14.6815C11.6603 14.7046 11.5887 14.7289 11.5229 14.7491C11.4578 14.7693 11.3983 14.7855 11.3605 14.7926C11.3236 14.7998 11.2817 14.8109 11.2435 14.8231C11.2059 14.8356 11.1728 14.8488 11.153 14.8599C11.1332 14.8711 11.1037 14.8839 11.0703 14.8957C11.0379 14.9072 11.0025 14.9176 10.9725 14.924C10.9428 14.9304 10.8344 14.9677 10.6844 15.0225C10.5346 15.0771 10.342 15.1493 10.1449 15.2259C9.75739 15.3762 9.4142 15.5231 9.12855 15.6615C8.8429 15.7999 8.61423 15.9295 8.45465 16.0446C8.33968 16.1273 8.12505 16.3011 7.91827 16.4767C7.71094 16.652 7.51062 16.8291 7.42317 16.9177C7.39112 16.9504 7.33536 17.0038 7.27196 17.0636C7.20857 17.1236 7.13752 17.1898 7.07408 17.2479C7.00979 17.306 6.94097 17.3718 6.88173 17.4306C6.82278 17.4897 6.77284 17.5418 6.74718 17.5732C6.66908 17.6672 6.59536 17.7479 6.48065 17.8607C6.3651 17.9732 6.20828 18.1178 5.96341 18.3394C5.83513 18.4559 5.68051 18.5994 5.5341 18.737C5.38798 18.8747 5.25061 19.0063 5.15824 19.0986L4.98837 19.2665L4.81934 19.4344L4.86389 19.492L4.90817 19.55L4.95271 19.6077L4.99783 19.6656L5.36706 19.6556L5.73742 19.6458C6.21151 19.6329 6.63922 19.5976 7.0036 19.5424C7.36798 19.487 7.66873 19.4116 7.88976 19.3191C7.92508 19.3042 7.96902 19.2882 8.01218 19.2742C8.05478 19.2602 8.09576 19.2485 8.12572 19.2418C8.15541 19.2354 8.19661 19.2214 8.23969 19.2044C8.28276 19.1873 8.32713 19.1668 8.36232 19.1472C8.39752 19.1278 8.43003 19.1124 8.45352 19.1037C8.47672 19.0949 8.49172 19.0923 8.49189 19.0984C8.49206 19.1046 8.51619 19.0992 8.55516 19.085C8.59384 19.0708 8.64765 19.0484 8.70636 19.0212C8.85848 18.95 8.96794 18.9007 9.03942 18.8714C9.11147 18.8421 9.14553 18.8326 9.14799 18.8409C9.14866 18.845 9.16218 18.8394 9.1839 18.8271C9.20562 18.815 9.23524 18.7961 9.26757 18.7737C9.30045 18.7513 9.37442 18.7108 9.46748 18.6642C9.5611 18.6173 9.67407 18.5639 9.78354 18.5152C9.89219 18.4668 9.99665 18.4184 10.0771 18.3797C10.1572 18.3409 10.2131 18.3118 10.2257 18.3014C10.2374 18.291 10.2887 18.2592 10.3626 18.2159C10.4351 18.1729 10.5308 18.1184 10.6292 18.0633C10.7278 18.0078 10.8586 17.9314 10.9899 17.8525C11.1209 17.7739 11.2529 17.693 11.3533 17.6286C11.4537 17.5645 11.5478 17.5061 11.619 17.4637C11.6893 17.4213 11.7371 17.3946 11.7449 17.3944C11.7655 17.3938 11.8787 17.3266 12.0353 17.2257C12.1914 17.1247 12.3898 16.9901 12.5798 16.8548C12.8026 16.6956 12.9906 16.5464 13.2096 16.3479C13.4285 16.1491 13.6783 15.9009 14.0244 15.5441C14.1829 15.3801 14.3297 15.2358 14.4369 15.1357C14.5442 15.0354 14.6135 14.9791 14.6175 14.991C14.622 15.0026 14.6138 15.0383 14.5972 15.0861C14.5806 15.134 14.5549 15.1939 14.5253 15.2547C14.4954 15.3155 14.4563 15.3967 14.4184 15.4784C14.3807 15.5601 14.3436 15.6426 14.316 15.7061C14.234 15.895 14.0636 16.2259 13.9025 16.5203C13.7411 16.8149 13.5896 17.0733 13.5442 17.1178C13.5374 17.1241 13.5256 17.1428 13.5112 17.168C13.4977 17.1933 13.4815 17.2247 13.4673 17.2563C13.4525 17.2883 13.4212 17.3472 13.3815 17.4163C13.3426 17.4858 13.2957 17.5655 13.2505 17.639C13.2053 17.7122 13.1383 17.8245 13.0652 17.9465C12.9929 18.0682 12.9155 18.1995 12.8507 18.311C12.7859 18.4222 12.7066 18.5546 12.6313 18.6786C12.5562 18.8024 12.4843 18.9176 12.435 18.994C12.3855 19.0707 12.3267 19.1689 12.2716 19.2653C12.217 19.3619 12.166 19.4568 12.1316 19.5267C12.0978 19.5965 12.0561 19.6758 12.0159 19.747C11.9757 19.8184 11.9375 19.8819 11.9107 19.9201C11.8586 19.9954 11.7978 20.0992 11.7093 20.2652C11.6218 20.4311 11.5071 20.6594 11.3479 20.9842C11.2533 21.1773 11.1811 21.3052 11.0838 21.4315C10.9857 21.558 10.8612 21.6831 10.6612 21.8713C10.6196 21.9107 10.568 21.9621 10.5202 22.0128C10.4714 22.0638 10.4264 22.1141 10.3945 22.1521C10.3635 22.1898 10.3142 22.245 10.2608 22.3034C10.206 22.3615 10.1476 22.4231 10.0968 22.4736C10.005 22.5654 9.95907 22.6113 9.92369 22.6237C9.8883 22.6361 9.86345 22.615 9.81373 22.5725C9.76974 22.5352 9.72703 22.5143 9.63244 22.5046C9.53784 22.4949 9.3908 22.4961 9.13813 22.503C8.75189 22.5135 8.34538 22.5385 7.97624 22.5725C7.60628 22.6069 7.2745 22.6499 7.0394 22.6971C6.93336 22.7181 6.78063 22.7462 6.62064 22.7746C6.46066 22.8029 6.29204 22.8315 6.15476 22.8534C5.91356 22.8918 5.71902 22.9322 5.47009 23.0043C5.22142 23.0761 4.91751 23.1792 4.4584 23.343C4.14496 23.4548 3.88406 23.5593 3.66692 23.6614C3.44895 23.7639 3.27363 23.8644 3.13073 23.9668C3.08174 24.0025 2.99765 24.0606 2.90202 24.126C2.80612 24.1914 2.69953 24.2638 2.60331 24.3278C2.36125 24.4887 2.24474 24.5661 2.16403 24.6255C2.08277 24.6855 2.03758 24.7275 1.93653 24.819C1.81448 24.9286 1.65178 25.0932 1.48094 25.2765C1.30954 25.4597 1.13054 25.6611 0.977588 25.8453C0.909223 25.9278 0.819154 26.0332 0.728482 26.137C0.638351 26.2402 0.548997 26.3411 0.480962 26.4152C0.317272 26.5947 0.196601 26.7344 0.117346 26.8373C0.0372563 26.9403 -0.000856841 27.0063 1.493e-05 27.0384C0.000401503 27.0526 0.0137373 27.071 0.0348979 27.0896C0.0560433 27.1078 0.0844302 27.1254 0.116332 27.1388C0.173361 27.1629 0.245532 27.169 0.349499 27.1539C0.453473 27.1391 0.59036 27.103 0.77518 27.0438C1.10526 26.9383 1.3674 26.8592 1.57324 26.8033C1.77883 26.7486 1.92674 26.7175 2.02777 26.7075C2.09206 26.7008 2.18783 26.6817 2.29067 26.656C2.39379 26.6303 2.50287 26.5981 2.59325 26.5657C2.68477 26.534 2.78733 26.4982 2.87996 26.4664C2.97343 26.4346 3.05559 26.4081 3.10513 26.3925C3.45744 26.2835 3.67686 26.214 3.82923 26.1621C3.98047 26.11 4.06466 26.0756 4.14369 26.0363C4.28885 25.966 4.51783 25.8682 4.7191 25.7876C4.92065 25.7074 5.09532 25.6446 5.13101 25.6436C5.14886 25.6431 5.22458 25.6154 5.33138 25.5712C5.43876 25.5275 5.57776 25.4665 5.72163 25.3998C5.86635 25.3337 6.03379 25.2613 6.18779 25.1977C6.34179 25.1343 6.48182 25.0803 6.57088 25.0508C6.66022 25.0213 6.77845 24.9765 6.89715 24.9283C7.01583 24.8793 7.13441 24.827 7.22529 24.7824C7.31562 24.7378 7.40299 24.6974 7.47 24.6677C7.53729 24.638 7.58535 24.6196 7.59679 24.6193C7.60822 24.619 7.61866 24.6129 7.6262 24.6026C7.63318 24.5927 7.63785 24.5797 7.63746 24.5652C7.63706 24.5504 7.63957 24.5403 7.64446 24.5351C7.64934 24.53 7.65579 24.5312 7.6638 24.5382C7.6718 24.545 7.7197 24.5208 7.79078 24.4767C7.86157 24.4321 7.95552 24.3665 8.05563 24.2918C8.15657 24.2167 8.27071 24.1344 8.3745 24.0615C8.4783 23.9886 8.57093 23.9261 8.62774 23.8911C8.68482 23.8552 8.75005 23.8113 8.80749 23.7684C8.86548 23.7253 8.91653 23.6831 8.94727 23.6538C9.01197 23.5907 9.11254 23.512 9.20517 23.4495C9.29724 23.387 9.38081 23.3401 9.41009 23.3393C9.42152 23.339 9.41822 23.3508 9.40394 23.3696C9.38994 23.3887 9.36582 23.415 9.33312 23.4441C9.26337 23.5065 9.12846 23.6768 8.99913 23.8575C8.86895 24.0375 8.74489 24.2273 8.69468 24.3308C8.67596 24.3712 8.64182 24.4293 8.60189 24.4904C8.56225 24.5515 8.51739 24.6158 8.47667 24.6682C8.43596 24.7207 8.39973 24.7739 8.37299 24.8167C8.34626 24.8605 8.33012 24.893 8.33047 24.9058C8.33082 24.9186 8.32406 24.9367 8.31313 24.9557C8.30136 24.9744 8.28569 24.9935 8.26825 25.0091C8.25081 25.0244 8.23151 25.0536 8.21515 25.0884C8.19905 25.1223 8.18507 25.1626 8.17826 25.1994C8.17146 25.2367 8.16086 25.2677 8.14859 25.2886C8.1377 25.309 8.12512 25.3186 8.11406 25.3119C8.10414 25.3063 8.08592 25.3241 8.06478 25.3573C8.04336 25.3909 8.01986 25.4401 7.99769 25.497C7.97636 25.5543 7.95293 25.6063 7.93247 25.6439C7.912 25.6816 7.89478 25.705 7.88474 25.7052C7.87553 25.7055 7.86705 25.7116 7.86174 25.7215C7.8556 25.7317 7.85232 25.7446 7.85273 25.7597C7.85311 25.7739 7.82686 25.8346 7.78566 25.9209C7.74305 26.0063 7.68523 26.1173 7.62196 26.2331C7.50145 26.4508 7.38884 26.6718 7.29372 26.8787C7.19721 27.0858 7.11814 27.2778 7.06303 27.4372C7.046 27.4885 7.02688 27.5448 7.00953 27.5944C6.99219 27.6443 6.97719 27.6882 6.96839 27.7136C6.95987 27.7387 6.95068 27.7704 6.94228 27.8C6.93444 27.83 6.92825 27.859 6.92434 27.8792C6.92069 27.8991 6.90765 27.943 6.88903 27.9971C6.86985 28.0512 6.84592 28.1154 6.82028 28.1784C6.79573 28.2404 6.76378 28.3278 6.73331 28.4185C6.70285 28.5095 6.67388 28.6038 6.65249 28.6794C6.63166 28.7551 6.59564 28.8775 6.55524 29.0136C6.51457 29.1498 6.46869 29.2995 6.42703 29.4302C6.38647 29.5605 6.34919 29.6879 6.32261 29.788C6.296 29.8872 6.27928 29.96 6.27986 29.9814C6.28042 30.0021 6.27432 30.0343 6.26522 30.0689C6.25473 30.1041 6.2415 30.141 6.2259 30.173C6.19947 30.2273 6.17032 30.3151 6.1149 30.4325C6.05946 30.5489 5.97774 30.6946 5.8467 30.8634C5.71538 31.0327 5.57927 31.2 5.41503 31.39C5.25108 31.5804 5.05898 31.7927 4.81375 32.0525C4.47413 32.4125 4.18432 32.7369 3.92572 33.0489C3.66684 33.361 3.43861 33.6608 3.22264 33.9703C3.1869 34.0212 3.15168 34.0702 3.12424 34.1081C3.09596 34.146 3.07437 34.1731 3.06758 34.1797C3.05994 34.1863 3.03519 34.2204 3.0014 34.2708C2.96706 34.3217 2.92309 34.3879 2.87867 34.4583C2.83341 34.5282 2.76617 34.6316 2.69267 34.7408C2.62002 34.8505 2.54082 34.9656 2.47506 35.0618C2.40901 35.1576 2.34175 35.2602 2.28776 35.3482C2.23297 35.437 2.19058 35.5102 2.1746 35.5486C2.15777 35.5867 2.12991 35.6396 2.09844 35.6935C2.06641 35.7471 2.03137 35.8031 1.99963 35.8469C1.96818 35.8913 1.94007 35.935 1.91953 35.9699C1.89898 36.0045 1.88602 36.0308 1.88625 36.0392C1.88662 36.0529 1.85277 36.1423 1.78704 36.3015C1.72217 36.4609 1.62539 36.6893 1.50045 36.9799C1.43379 37.1355 1.30959 37.5254 1.19058 37.9316C1.07214 38.3384 0.959449 38.7615 0.916904 38.9828C0.871558 39.214 0.848126 39.4198 0.843484 39.67C0.839378 39.9193 0.854626 40.2133 0.888592 40.621C0.908756 40.8699 0.92355 41.0138 0.9439 41.1054C0.964235 41.1964 0.990079 41.2333 1.03175 41.2674C1.10049 41.3219 1.15193 41.3456 1.20381 41.3341C1.25485 41.3227 1.30718 41.2769 1.37635 41.193C1.46628 41.0825 1.52499 41.0145 1.59453 40.9442C1.66406 40.8737 1.74444 40.802 1.87775 40.6856C2.00617 40.5741 2.19537 40.389 2.37183 40.207C2.5483 40.0252 2.71061 39.8464 2.78526 39.7486C2.89009 39.6116 3.08119 39.3111 3.24589 39.0353C3.4106 38.7599 3.54892 38.5097 3.54794 38.4734C3.54774 38.4662 3.56465 38.4314 3.59258 38.3807C3.61967 38.33 3.65804 38.2631 3.69968 38.1933C3.74216 38.1238 3.80381 38.0099 3.86984 37.8822C3.93559 37.7549 4.00542 37.6134 4.06348 37.4904C4.12149 37.3661 4.19867 37.2074 4.27733 37.0518C4.35597 36.8953 4.4347 36.7424 4.49581 36.6292C4.55637 36.5162 4.61216 36.4125 4.65221 36.3358C4.69226 36.2588 4.71744 36.2095 4.71736 36.2067C4.71726 36.2031 4.73683 36.1632 4.76811 36.1024C4.79855 36.0415 4.84207 35.9589 4.88959 35.8691C4.97536 35.7083 5.04317 35.554 5.11664 35.3408C5.18955 35.1278 5.26783 34.8558 5.37343 34.4591C5.40409 34.3447 5.43792 34.2238 5.46857 34.1194C5.49924 34.0156 5.52617 33.9284 5.54228 33.8844C5.55892 33.8396 5.57881 33.7807 5.59782 33.7202C5.61682 33.6594 5.63525 33.5983 5.64821 33.5513C5.70156 33.3579 5.73376 33.3104 5.74805 33.4359C5.76207 33.5614 5.75872 33.8592 5.73934 34.3577C5.71619 34.9742 5.69075 35.5579 5.66757 35.9987C5.64464 36.4386 5.62479 36.7349 5.61361 36.7754C5.60648 36.8005 5.60686 37.0198 5.61144 37.3526C5.61686 37.6854 5.62705 38.1325 5.64009 38.6122C5.6618 39.3596 5.67231 39.7974 5.67842 40.1043C5.68537 40.4113 5.68875 40.5871 5.69624 40.8112C5.62421 40.8411 5.60883 41.0349 5.61164 41.2207C5.61448 41.4071 5.63581 41.586 5.63581 41.586C5.57305 41.8542 5.553 42.3797 5.5694 42.9522C5.58496 43.5247 5.63834 44.1434 5.72128 44.5972C5.75077 44.7577 5.77687 44.9071 5.795 45.0194C5.81285 45.1319 5.82353 45.2067 5.82155 45.216C5.81544 45.2477 5.8552 45.3965 5.91233 45.578C5.97084 45.7592 6.04667 45.972 6.11439 46.1326C6.12214 46.1508 6.13 46.1729 6.13753 46.1934C6.1445 46.2139 6.15088 46.2329 6.15401 46.2451C6.17307 46.3202 6.26141 46.5721 6.36262 46.8459C6.46356 47.1197 6.57597 47.4153 6.64456 47.577C6.76745 47.8681 6.91535 48.1755 7.05007 48.4292C7.18563 48.6834 7.30887 48.8843 7.38244 48.9624C7.43015 49.0133 7.48282 49.0518 7.52842 49.0762C7.57482 49.0992 7.61433 49.1054 7.63982 49.0983ZM7.45503 48.2652C7.42491 48.266 7.33795 48.137 7.22265 47.8892C7.1071 47.6423 6.96339 47.294 6.82238 46.9113C6.75367 46.7245 6.67973 46.53 6.61443 46.366C6.54999 46.2028 6.49503 46.0701 6.46542 46.0073C6.39256 45.8527 6.34107 45.714 6.29249 45.5082C6.24334 45.3016 6.19741 45.0285 6.13369 44.6044C6.07612 44.2217 6.01998 43.6245 5.98625 43.1231C5.95197 42.6217 5.94011 42.2162 5.97163 42.2154C6.0037 42.2145 6.04585 42.2971 6.09991 42.4684C6.15311 42.6391 6.2188 42.8997 6.29768 43.2553C6.33205 43.4109 6.40368 43.6334 6.47549 43.8215C6.54623 44.011 6.61771 44.1662 6.65044 44.1896C6.71019 44.2315 6.77066 44.2285 6.8163 44.1929C6.86111 44.1573 6.89136 44.0895 6.88901 44.0031C6.88652 43.9116 6.82008 43.6234 6.72953 43.2902C6.63982 42.9569 6.52656 42.579 6.43071 42.3073C6.33843 42.0441 6.2924 41.9011 6.29243 41.8508C6.29247 41.8009 6.33937 41.8426 6.43302 41.9508C6.5416 42.0748 6.62552 42.1948 6.70236 42.342C6.77865 42.4893 6.84674 42.6638 6.92395 42.8961C6.96048 43.0082 7.00161 43.1248 7.03777 43.2232C7.07338 43.3216 7.10483 43.4005 7.12287 43.438C7.21548 43.6314 7.30614 43.8659 7.37873 44.0928C7.45131 44.3194 7.50583 44.5386 7.52673 44.7016C7.56005 44.9521 7.5804 45.1054 7.59953 45.224C7.6184 45.343 7.63495 45.4282 7.6604 45.5433C7.69526 45.5424 7.71812 45.9933 7.71412 46.2876C7.70927 46.5813 7.68291 46.9052 7.6356 47.2079C7.60272 47.4153 7.58327 47.5414 7.56681 47.6549C7.55063 47.7681 7.53855 47.8678 7.51984 48.0212C7.51282 48.0814 7.50155 48.1389 7.4899 48.1828C7.47828 48.2275 7.46543 48.2577 7.45503 48.2652ZM17.9787 47.3596C17.9577 47.3596 17.8484 47.1982 17.743 47.0266C17.6384 46.8559 17.5384 46.6764 17.5375 46.6415C17.5371 46.6278 17.5313 46.6188 17.5231 46.6148C17.5146 46.6114 17.5037 46.6131 17.4911 46.6213C17.4785 46.6289 17.4679 46.6306 17.4592 46.6258C17.4504 46.6218 17.4451 46.6125 17.4447 46.5977C17.4426 46.5205 17.3045 46.275 17.1229 45.9992C16.9418 45.7239 16.7161 45.4186 16.5394 45.2247C16.4923 45.1732 16.4241 45.0793 16.3517 44.9697C16.2795 44.8603 16.2024 44.7351 16.1393 44.6196C16.0761 44.5049 16.0117 44.3931 15.9594 44.3052C15.907 44.2173 15.8659 44.1534 15.8498 44.1354C15.8092 44.0908 15.72 43.9394 15.6404 43.7917C15.5613 43.6437 15.4915 43.4991 15.4906 43.467C15.4902 43.4536 15.476 43.4038 15.4544 43.3352C15.4316 43.2666 15.4007 43.1787 15.3676 43.0889C15.3344 42.9991 15.2924 42.871 15.2522 42.7376C15.2123 42.6044 15.1734 42.4654 15.1461 42.3534L15.0962 42.1496L15.0457 41.9458L15.1847 42.0908L15.3237 42.2349C15.4001 42.3144 15.4728 42.3908 15.5302 42.4492C15.5868 42.5085 15.6264 42.5496 15.6362 42.56C15.6465 42.5697 15.7049 42.6245 15.7923 42.7059C15.8796 42.7878 15.9947 42.8946 16.1164 43.0085C16.2387 43.1224 16.367 43.2445 16.4757 43.3509C16.5843 43.4574 16.6733 43.5471 16.7159 43.5953C16.8051 43.695 16.9003 43.7575 16.9722 43.7748C17.045 43.792 17.0942 43.765 17.0921 43.6864C17.0894 43.5879 17.0449 43.482 16.9384 43.3406C16.8316 43.1992 16.6624 43.0216 16.4102 42.7812C16.2679 42.6458 16.1254 42.5067 16.0109 42.3935C15.897 42.2794 15.8103 42.1902 15.7795 42.1539C15.7492 42.1168 15.694 42.0577 15.6313 41.9916C15.5681 41.9252 15.4961 41.8524 15.4302 41.7883C15.2943 41.6555 15.2255 41.5703 15.2239 41.5425C15.2226 41.514 15.2884 41.5429 15.4216 41.6384C15.472 41.6744 15.5201 41.7066 15.5578 41.7304C15.595 41.7545 15.6217 41.7689 15.6289 41.7692C15.6555 41.7702 16.0096 42.079 16.3854 42.4204C16.7611 42.7616 17.1591 43.1345 17.2734 43.2628C17.4694 43.4811 17.6499 43.7349 17.7893 43.9769C17.9282 44.2182 18.0251 44.4478 18.0517 44.6156C18.0793 44.7871 18.0975 44.956 18.1046 45.1151C18.1126 45.2734 18.1111 45.4228 18.0982 45.556C18.0689 45.8727 18.0442 46.1968 18.0274 46.4725C18.0112 46.7478 18.0023 46.9747 18.0056 47.0974C18.0075 47.1688 18.006 47.2347 18.0009 47.2825C17.9957 47.3298 17.9879 47.3593 17.9787 47.3596ZM8.81762 40.9179C8.81204 40.918 8.80601 40.9118 8.80028 40.906C8.79371 40.9006 8.78766 40.8936 8.78099 40.8845C8.70262 40.7837 8.61759 40.3866 8.54718 39.8499C8.47622 39.3132 8.41932 38.6366 8.39638 37.9777C8.38298 37.5667 8.37738 37.3095 8.38533 37.0986C8.3938 36.8868 8.41444 36.7222 8.45185 36.4968C8.4764 36.3524 8.49742 36.2019 8.51241 36.0757C8.5277 35.9502 8.53637 35.8484 8.53512 35.8021C8.53384 35.755 8.53761 35.7091 8.54501 35.6732C8.55268 35.6373 8.5634 35.6107 8.576 35.6017C8.58863 35.5941 8.5978 35.5824 8.60167 35.5709C8.60638 35.5593 8.60606 35.5473 8.59941 35.5389C8.58602 35.5186 8.60389 35.3651 8.63438 35.193C8.66376 35.0214 8.70515 34.8293 8.73879 34.7321C8.75226 34.6938 8.7707 34.6434 8.79024 34.592C8.8095 34.5407 8.82957 34.4888 8.8455 34.4485C8.86228 34.4087 8.87621 34.3667 8.8867 34.3315C8.8972 34.2969 8.90424 34.2683 8.90386 34.2546C8.90289 34.2189 8.9382 34.1214 8.97972 34.0268C9.02238 33.9327 9.07129 33.8429 9.09723 33.8221C9.10899 33.8131 9.11601 33.8045 9.11779 33.7981C9.11985 33.7916 9.11612 33.7881 9.10692 33.7883C9.09688 33.7886 9.10118 33.762 9.11426 33.7195C9.12815 33.6761 9.15224 33.6177 9.1834 33.5527C9.21375 33.4882 9.24373 33.431 9.26694 33.3916C9.29014 33.3519 9.30738 33.3291 9.31254 33.334C9.31686 33.3389 9.3081 33.4069 9.28869 33.5141C9.27038 33.6209 9.24193 33.7654 9.20853 33.9226C9.11394 34.3647 9.02609 34.8393 8.95704 35.2662C8.88857 35.694 8.83887 36.0732 8.82088 36.3252C8.81287 36.4512 8.80283 36.5849 8.79394 36.6996C8.78479 36.8148 8.77736 36.9107 8.77226 36.9594C8.7571 37.11 8.80045 37.2573 8.86286 37.3457C8.92444 37.4348 9.00534 37.4641 9.06525 37.3788C9.09349 37.3395 9.12488 37.2108 9.15412 37.0236C9.18389 36.8355 9.21237 36.5897 9.23418 36.3139C9.24445 36.1886 9.25577 36.061 9.26665 35.958C9.27666 35.8542 9.28592 35.7739 9.2915 35.743C9.29705 35.7108 9.31142 35.6339 9.32797 35.5341C9.34535 35.4343 9.36687 35.3123 9.38735 35.1931C9.45218 34.8163 9.48987 34.6009 9.52053 34.4458C9.55148 34.2906 9.57513 34.1956 9.61218 34.0595C9.6459 33.9344 9.66423 33.8695 9.678 33.8526C9.69123 33.8361 9.70068 33.8657 9.71583 33.9303C9.72467 33.968 9.73681 34.0963 9.74887 34.2729C9.76066 34.4498 9.77263 34.6747 9.7817 34.9059C9.79076 35.1364 9.80158 35.3496 9.81175 35.5081C9.82106 35.6658 9.83026 35.7683 9.83608 35.7768C9.8411 35.7767 9.85276 35.9184 9.8662 36.1254C9.87992 36.3321 9.89537 36.6133 9.91007 36.9179C9.93494 37.4425 9.94714 37.7271 9.9416 37.9444C9.93525 38.1625 9.91144 38.3133 9.86568 38.5702C9.80048 38.9334 9.76041 39.1432 9.70625 39.3275C9.65324 39.5126 9.58693 39.6709 9.47039 39.932C9.40783 40.0738 9.34664 40.1946 9.27521 40.3182C9.20346 40.4407 9.12173 40.5652 9.01716 40.7123C8.95802 40.7954 8.91737 40.8501 8.88671 40.8825C8.85633 40.9146 8.8365 40.9243 8.81762 40.9179ZM1.37501 40.62C1.36144 40.624 1.34999 40.6235 1.34063 40.6182C1.33127 40.6126 1.32319 40.6028 1.31416 40.5888C1.28871 40.5459 1.26721 40.3093 1.25739 40.0508C1.24672 39.7919 1.24774 39.5111 1.26622 39.3797C1.30166 39.1331 1.40678 38.6879 1.52573 38.249C1.64441 37.8099 1.77774 37.3762 1.86935 37.1529C2.03034 36.7612 2.12021 36.5458 2.20371 36.363C2.28749 36.1798 2.36544 36.0293 2.50345 35.7674C2.56267 35.6566 2.71509 35.4116 2.87586 35.1659C3.03637 34.9206 3.20381 34.6738 3.29227 34.5606C3.30198 34.5484 3.34121 34.4923 3.39596 34.4121C3.45184 34.3322 3.5224 34.2279 3.59676 34.1195C3.67028 34.0112 3.77843 33.8623 3.89429 33.7098C4.00934 33.5582 4.13237 33.4028 4.23343 33.2806C4.33504 33.1584 4.43823 33.0322 4.52302 32.9278C4.60807 32.8225 4.67446 32.7392 4.70138 32.7027C4.72883 32.6654 4.7573 32.6348 4.7805 32.6154C4.80342 32.5964 4.82189 32.5881 4.82991 32.5957C4.84393 32.6081 4.82346 32.6765 4.77432 32.7886C4.72464 32.9013 4.64604 33.0592 4.54135 33.253C4.45366 33.4152 4.36309 33.5843 4.27889 33.7415C4.19442 33.899 4.11693 34.0462 4.05456 34.1643C3.98528 34.2954 3.83944 34.536 3.67725 34.791C3.5156 35.0455 3.33623 35.3155 3.20074 35.5056C3.15047 35.5762 3.10463 35.6455 3.0718 35.7006C3.03895 35.755 3.01856 35.7955 3.01892 35.8086C3.01927 35.8214 3.00934 35.8465 2.99369 35.8763C2.97805 35.9068 2.95612 35.9418 2.93133 35.9745C2.90523 36.0101 2.88155 36.063 2.86397 36.1248C2.84554 36.1862 2.83322 36.2566 2.83006 36.325C2.82366 36.4282 2.823 36.486 2.83391 36.518C2.84399 36.5499 2.86647 36.5557 2.90635 36.5546C2.93201 36.5539 2.95956 36.5409 2.9841 36.5195C3.00838 36.4988 3.03047 36.4697 3.04464 36.4364C3.05802 36.4053 3.07426 36.3764 3.09016 36.3553C3.10548 36.334 3.12075 36.3207 3.13135 36.3205C3.14223 36.3202 3.15124 36.3129 3.15819 36.3019C3.1643 36.2903 3.16889 36.2745 3.16844 36.258C3.168 36.2416 3.17708 36.2165 3.19228 36.1901C3.20803 36.164 3.23016 36.1364 3.25436 36.1128C3.27803 36.0901 3.29742 36.0645 3.30882 36.0421C3.31967 36.0203 3.32361 36.001 3.3169 35.9903C3.30936 35.9799 3.30769 35.9699 3.30973 35.9628C3.31232 35.9555 3.31916 35.9503 3.3292 35.95C3.34007 35.9497 3.35887 35.9328 3.381 35.9051C3.40231 35.878 3.4278 35.8402 3.45012 35.7988C3.47272 35.7575 3.49589 35.7169 3.5157 35.6857C3.53494 35.6545 3.55077 35.6312 3.55842 35.6251C3.56522 35.6185 3.58732 35.5894 3.61854 35.547C3.64865 35.5049 3.68791 35.4502 3.72709 35.3928C3.76627 35.3351 3.82399 35.2509 3.88518 35.1613C3.94694 35.0717 4.01218 34.977 4.06669 34.8982C4.12093 34.8197 4.16969 34.7447 4.20523 34.6868C4.24077 34.6286 4.26255 34.5879 4.26228 34.5781C4.26202 34.5686 4.27334 34.5435 4.29173 34.5114C4.31038 34.4788 4.33636 34.4388 4.36459 34.3995C4.39281 34.3594 4.44185 34.2743 4.49898 34.1687C4.5561 34.0627 4.61995 33.9374 4.67807 33.8166C4.73618 33.6956 4.7909 33.5833 4.83385 33.5001C4.87649 33.416 4.90653 33.3608 4.91333 33.3542C4.9204 33.3476 4.94485 33.3025 4.98016 33.236C5.01489 33.1686 5.05963 33.0795 5.1056 32.9839C5.15158 32.8892 5.2051 32.7842 5.25339 32.6919C5.30224 32.5999 5.34725 32.5208 5.37535 32.4765L5.37256 32.4766L5.42396 32.3959L5.47533 32.3144L5.48152 32.5422C5.48255 32.6109 5.46968 32.7125 5.44504 32.8326C5.41983 32.9525 5.38338 33.09 5.33942 33.2285C5.29933 33.3551 5.25391 33.5015 5.21314 33.6341C5.17268 33.768 5.1366 33.8884 5.11439 33.9647C4.92124 34.6414 4.80286 35.0398 4.70461 35.3168C4.60639 35.5947 4.52774 35.7503 4.4135 35.9421C4.37533 36.0059 4.33384 36.0812 4.29778 36.1509C4.26199 36.2205 4.23079 36.2842 4.21461 36.3253C4.19787 36.3665 4.17962 36.4036 4.1639 36.4311C4.14762 36.4586 4.13385 36.4754 4.12659 36.4756C4.11879 36.4759 4.07119 36.5628 4.00217 36.7034C3.93232 36.844 3.84045 37.0371 3.74269 37.2499C3.64465 37.4625 3.5523 37.6587 3.48115 37.8029C3.41141 37.9477 3.36257 38.0403 3.3541 38.047C3.34507 38.0536 3.32787 38.0778 3.30813 38.1113C3.2881 38.1445 3.26584 38.1881 3.24415 38.2322C3.20298 38.319 3.09868 38.5068 2.97447 38.7218C2.8497 38.9367 2.70557 39.1784 2.58279 39.374C2.50471 39.4998 2.3019 39.7389 2.08552 39.972C1.86973 40.2058 1.64009 40.4334 1.50835 40.5358C1.47638 40.5609 1.44955 40.5801 1.42787 40.5935C1.40677 40.6077 1.39007 40.6196 1.37585 40.62L1.37501 40.62ZM14.4731 32.6587C14.468 32.653 14.4635 32.6439 14.4582 32.6326C14.4528 32.6204 14.4474 32.6058 14.4414 32.5881C14.4311 32.5596 14.416 32.528 14.4002 32.4999C14.3846 32.4724 14.3675 32.4478 14.3529 32.4339C14.206 32.2886 13.8953 31.9055 13.5908 31.5044C13.2864 31.1041 12.9878 30.6863 12.8626 30.4726C12.8193 30.3987 12.766 30.3086 12.7151 30.2237C12.6643 30.1386 12.6149 30.0576 12.5799 30.0022C12.5455 29.9468 12.4882 29.8412 12.4242 29.7156C12.3594 29.5896 12.2873 29.4445 12.2245 29.3088C12.1608 29.1735 12.0747 29.0023 11.9858 28.8353C11.897 28.6678 11.8061 28.505 11.735 28.3864C11.61 28.1796 11.5303 28.0303 11.4588 27.8458C11.3882 27.6613 11.3256 27.4422 11.2369 27.096C11.2153 27.0093 11.19 26.9193 11.1679 26.8456C11.1461 26.772 11.1266 26.7139 11.1159 26.6891C11.0301 26.4994 10.9704 26.3573 10.9265 26.2407C10.8834 26.1238 10.8572 26.0324 10.8392 25.9442C10.8276 25.8881 10.817 25.8348 10.8086 25.7938C10.8005 25.7524 10.7947 25.7241 10.7923 25.7177C10.7907 25.7114 10.7798 25.6787 10.7629 25.632C10.7457 25.5853 10.7234 25.5231 10.6987 25.4579C10.6749 25.393 10.6544 25.3277 10.641 25.2753C10.6282 25.2235 10.6221 25.1837 10.6267 25.1699C10.6343 25.1426 10.7262 25.2557 10.8168 25.3869C10.9069 25.5181 10.9952 25.6656 10.9963 25.7072C10.9967 25.7208 11.0141 25.7552 11.0423 25.7994C11.0701 25.8439 11.1087 25.8984 11.1509 25.9516C11.193 26.0046 11.2396 26.065 11.2804 26.1189C11.3212 26.1728 11.356 26.2204 11.3755 26.2483C11.3955 26.2765 11.4221 26.3101 11.4495 26.342C11.4766 26.3734 11.5047 26.4036 11.5273 26.4237C11.5494 26.4437 11.5804 26.4858 11.6133 26.5377C11.6463 26.5898 11.68 26.6509 11.7081 26.7087C11.7354 26.7674 11.772 26.832 11.8093 26.8882C11.8465 26.945 11.8836 26.9933 11.9114 27.0211C11.9598 27.0669 12.016 27.1312 12.0752 27.2061C12.1336 27.2801 12.1945 27.365 12.2519 27.4514C12.2647 27.4708 12.3223 27.5494 12.4046 27.6593C12.4877 27.7692 12.5945 27.912 12.7071 28.0591C12.9198 28.3391 13.0839 28.5747 13.1961 28.7594C13.3083 28.9437 13.3677 29.0771 13.3698 29.1513C13.3713 29.2099 13.4374 29.2488 13.5092 29.2597C13.5823 29.2705 13.6605 29.2528 13.6884 29.1984C13.7241 29.1266 13.6959 28.9538 13.6383 28.7826C13.5809 28.6119 13.4942 28.4427 13.4124 28.3785C13.3941 28.3642 13.378 28.3451 13.366 28.3256C13.354 28.3058 13.3462 28.2854 13.3458 28.2695C13.3454 28.2539 13.337 28.2334 13.3236 28.2132C13.3102 28.1926 13.2923 28.1719 13.2727 28.1565C13.2538 28.1414 13.1953 28.0715 13.1161 27.9715C13.0377 27.8715 12.9393 27.7413 12.8399 27.6045C12.7396 27.468 12.6276 27.3203 12.5278 27.1924C12.4272 27.0642 12.3383 26.9559 12.2854 26.8981C12.233 26.8401 12.1688 26.7584 12.1085 26.6735C12.0484 26.5887 11.991 26.4995 11.952 26.4286C11.9129 26.3574 11.8708 26.2871 11.8358 26.2322C11.8008 26.1768 11.7718 26.1368 11.7578 26.1243C11.7095 26.0835 11.6104 25.9562 11.5151 25.8203C11.4193 25.6842 11.3275 25.5402 11.2933 25.4647C11.2752 25.4238 11.2361 25.3512 11.1881 25.2683C11.1401 25.1858 11.0826 25.0925 11.0281 25.0075C10.9736 24.9233 10.9265 24.8445 10.8942 24.7848C10.8619 24.7257 10.8443 24.6859 10.8498 24.6802C10.8609 24.6685 10.972 24.7841 11.0856 24.9166C11.1992 25.0486 11.3154 25.1961 11.3368 25.2472C11.3451 25.2654 11.3557 25.2852 11.3668 25.3014C11.3773 25.3175 11.3882 25.3301 11.3965 25.3368C11.4045 25.3425 11.4281 25.3703 11.4599 25.411C11.4917 25.4515 11.5308 25.504 11.5711 25.5601C11.6111 25.6154 11.66 25.6777 11.7065 25.7342C11.7538 25.791 11.7987 25.8411 11.8297 25.8718C11.8965 25.9378 12.0124 26.0767 12.1116 26.2049C12.2109 26.3328 12.2933 26.45 12.2939 26.472C12.2949 26.5086 12.393 26.6493 12.5253 26.8138C12.6571 26.9787 12.8221 27.1679 12.9566 27.2999C13.0366 27.3792 13.122 27.469 13.1948 27.5499C13.267 27.6308 13.3276 27.702 13.358 27.7447C13.3877 27.7883 13.4419 27.8628 13.505 27.9473C13.5679 28.0329 13.64 28.1286 13.7051 28.2142C13.908 28.4808 14.0935 28.7844 14.2456 29.0918C14.3968 29.3991 14.5152 29.7096 14.5837 29.9913C14.6287 30.1768 14.6467 30.6055 14.6416 31.0728C14.6364 31.5396 14.6071 32.0441 14.5563 32.3804C14.5388 32.4981 14.5253 32.5763 14.5123 32.6211C14.499 32.6658 14.4873 32.6762 14.4731 32.6587ZM0.830281 26.7814C0.830304 26.7822 0.811024 26.7814 0.800923 26.7794C0.791666 26.7777 0.781507 26.7735 0.772726 26.7687C0.748052 26.7543 0.739759 26.7367 0.749049 26.7088C0.758866 26.6798 0.787102 26.6405 0.836823 26.5806C0.871413 26.5389 0.901804 26.4967 0.922321 26.461C0.942027 26.4262 0.953562 26.3988 0.94961 26.3869C0.945652 26.3747 0.946833 26.3669 0.951755 26.3631C0.956677 26.3593 0.965359 26.3605 0.976131 26.3666C0.997125 26.3792 1.09497 26.2928 1.21352 26.1673C1.33233 26.0413 1.47156 25.8759 1.57672 25.7302C1.7765 25.4512 2.26261 25.0387 2.80589 24.6552C3.34831 24.271 3.94872 23.9153 4.37789 23.7487C4.50025 23.7019 4.7489 23.6192 4.99602 23.5419C5.24258 23.4646 5.48707 23.3929 5.59855 23.367C5.6299 23.36 5.66536 23.3504 5.69859 23.3408C5.73126 23.3313 5.76086 23.3215 5.77936 23.3141C5.79842 23.3068 5.82526 23.2983 5.85379 23.2905C5.88289 23.283 5.91257 23.2761 5.93757 23.2718C6.25536 23.2174 6.52784 23.1695 6.7461 23.1293C6.9641 23.0893 7.12844 23.0569 7.23053 23.0343C7.40612 22.9952 7.72162 22.959 7.98622 22.9395C8.25054 22.9201 8.46425 22.9173 8.43626 22.9454C8.40503 22.977 8.12287 23.0796 7.82384 23.1773C7.52508 23.275 7.20832 23.3673 7.10927 23.3787C6.9312 23.3986 6.79629 23.4251 6.62718 23.4872C6.45723 23.5493 6.2528 23.647 5.93485 23.8085C5.70169 23.9271 5.50264 24.0173 5.30266 24.0937C5.10239 24.1697 4.902 24.231 4.66639 24.2901C4.59819 24.307 4.52512 24.3291 4.46429 24.35C4.4026 24.3704 4.35179 24.3902 4.32708 24.4051C4.30261 24.4186 4.27786 24.4324 4.25749 24.4427C4.23711 24.4528 4.22137 24.4588 4.21499 24.4604C4.183 24.464 4.14157 24.4903 4.10483 24.5247C4.0678 24.5587 4.036 24.6003 4.02412 24.6358C3.99571 24.72 4.02538 24.7641 4.13856 24.7697C4.25088 24.7745 4.44785 24.7412 4.75233 24.6696C5.02771 24.6049 5.24617 24.5409 5.48915 24.445C5.73242 24.3491 6.00106 24.2217 6.37818 24.0293C6.54939 23.942 6.64745 23.8941 6.74946 23.8584C6.85201 23.8221 6.9591 23.7986 7.14812 23.7605C7.21417 23.7467 7.29511 23.7266 7.37325 23.7058C7.45109 23.6844 7.52555 23.6618 7.57807 23.643C7.63112 23.6237 7.70967 23.5973 7.79323 23.5708C7.87679 23.5442 7.96675 23.5169 8.04124 23.4954C8.11573 23.4741 8.20791 23.4462 8.29563 23.4187C8.38419 23.3912 8.46857 23.364 8.5272 23.344C8.58609 23.3237 8.63986 23.31 8.67904 23.3039C8.71824 23.2981 8.74257 23.2999 8.74287 23.3111C8.74359 23.3376 8.69826 23.3846 8.64382 23.4251C8.58911 23.4657 8.525 23.4995 8.48652 23.5006C8.4709 23.501 8.45598 23.5064 8.44613 23.5137C8.43575 23.522 8.42932 23.532 8.42963 23.5434C8.4301 23.5607 8.29734 23.6665 8.1271 23.7897C7.95686 23.9129 7.74998 24.0536 7.60308 24.1425C7.42379 24.2509 7.29219 24.3276 7.17528 24.3899C7.05834 24.4517 6.95748 24.4988 6.83882 24.5484C6.76404 24.5797 6.69207 24.6118 6.63474 24.6382C6.5777 24.6649 6.53611 24.6853 6.52352 24.6943C6.51091 24.703 6.46925 24.7206 6.41264 24.7428C6.3552 24.7653 6.28252 24.7915 6.20812 24.8164C6.13314 24.8405 6.02075 24.8843 5.89988 24.9348C5.77899 24.9844 5.64909 25.0415 5.53968 25.0925C5.43029 25.144 5.31253 25.1958 5.21015 25.2385C5.10831 25.2806 5.02212 25.3131 4.97586 25.3258C4.87669 25.3533 4.70207 25.418 4.54859 25.4803C4.39538 25.5422 4.26194 25.6022 4.24653 25.6205C4.24031 25.6279 4.20949 25.6438 4.16423 25.6629C4.11984 25.6825 4.06102 25.7056 3.99882 25.7274C3.71851 25.8263 3.50496 25.9066 3.32972 25.9792C3.15529 26.0509 3.01917 26.1155 2.89375 26.183C2.83462 26.2154 2.69578 26.2615 2.51152 26.3107C2.32616 26.3601 2.09625 26.4135 1.85338 26.4622C1.67489 26.4978 1.51437 26.537 1.39119 26.5741C1.26855 26.611 1.18297 26.6454 1.15437 26.6713C1.14267 26.6822 1.12145 26.6923 1.09653 26.6994C1.07106 26.707 1.04274 26.7123 1.01624 26.713C0.989752 26.7137 0.961443 26.7195 0.935998 26.728C0.911111 26.7365 0.889926 26.7477 0.878269 26.7603C0.872027 26.7669 0.86489 26.7712 0.857181 26.7751C0.848635 26.7789 0.830266 26.7808 0.830281 26.7814ZM15.3013 25.826C15.2963 25.8261 15.2918 25.814 15.2865 25.8054C15.2818 25.7964 15.2773 25.785 15.2728 25.7723C15.2498 25.7152 15.2291 25.457 15.2174 25.183C15.2064 24.909 15.2057 24.619 15.2216 24.4963C15.2269 24.4541 15.2334 24.3545 15.2386 24.2271C15.2444 24.1 15.2502 23.9461 15.2539 23.7952C15.2627 23.4093 15.2954 23.0093 15.3741 22.437C15.4529 21.8647 15.577 21.1198 15.7693 20.0432C15.8356 19.6713 15.9325 19.242 16.0329 18.8577C16.1338 18.4735 16.2382 18.1343 16.32 17.9426C16.3617 17.8444 16.4014 17.7548 16.4318 17.6901C16.4624 17.6251 16.4825 17.5849 16.487 17.5848C16.5098 17.5841 16.5099 17.8233 16.4963 18.1145C16.4819 18.4054 16.4541 18.748 16.422 18.954C16.3904 19.1561 16.3622 19.3807 16.342 19.5909C16.3214 19.801 16.3089 19.997 16.3078 20.1427C16.3069 20.1614 16.2962 20.2365 16.2789 20.3422C16.2617 20.4479 16.2383 20.5841 16.2121 20.7258C16.1393 21.1207 16.1148 21.3996 16.1396 21.5826C16.1647 21.7656 16.2399 21.8528 16.3689 21.8644C16.4254 21.8695 16.4555 21.8696 16.4737 21.8317C16.492 21.7935 16.4986 21.7177 16.5097 21.5714C16.5152 21.4878 16.5322 21.3534 16.5546 21.2038C16.5762 21.0541 16.603 20.8893 16.6307 20.746C16.6575 20.6023 16.681 20.4415 16.6972 20.2976C16.7139 20.154 16.7233 20.0279 16.7213 19.9534C16.7193 19.8789 16.728 19.7478 16.7432 19.5967C16.7589 19.4453 16.7821 19.2736 16.808 19.1183C16.8361 18.9492 16.8605 18.7395 16.8797 18.5207C16.8986 18.302 16.9111 18.0742 16.9147 17.8692C16.9183 17.6813 16.9228 17.5085 16.928 17.3816C16.9329 17.2548 16.938 17.174 16.942 17.1694C16.9735 17.1365 17.0568 17.3376 17.1476 17.629C17.2385 17.9207 17.3365 18.3026 17.3976 18.6314C17.4479 18.9005 17.487 19.2405 17.5081 19.5346C17.5281 19.8285 17.5307 20.0768 17.5051 20.1623C17.4959 20.1955 17.4844 20.274 17.4743 20.3736C17.4641 20.473 17.4554 20.5935 17.4499 20.7108C17.4388 20.9576 17.4137 21.2156 17.3795 21.4551C17.3458 21.6947 17.3018 21.9155 17.2538 22.0884C17.1996 22.28 17.1218 22.5193 17.0489 22.7242C16.9766 22.9293 16.909 23.0997 16.8756 23.1534C16.859 23.1806 16.8321 23.2402 16.8012 23.3145C16.7711 23.3881 16.737 23.477 16.708 23.562C16.6423 23.7511 16.504 24.0736 16.3717 24.3602C16.238 24.6465 16.1106 24.8981 16.0669 24.9442C16.0495 24.9625 16.0262 24.9961 16.0013 25.0353C15.9761 25.0745 15.9508 25.1201 15.9313 25.1614C15.9109 25.2027 15.862 25.2727 15.8 25.3508C15.7371 25.4296 15.6608 25.5176 15.5864 25.5952C15.4879 25.6973 15.4246 25.7626 15.3821 25.7981C15.34 25.8333 15.3178 25.8255 15.3013 25.826ZM5.5209 19.3293L5.76024 19.089C5.82626 19.023 5.92849 18.9234 6.04084 18.8162C6.15291 18.7091 6.27398 18.5944 6.37798 18.4981C6.48168 18.4015 6.5889 18.3006 6.67813 18.2156C6.76736 18.1308 6.83833 18.0619 6.86954 18.0293C6.90019 17.9969 6.9828 17.9146 7.09154 17.8083C7.19917 17.7019 7.33292 17.5713 7.46589 17.4423C7.59886 17.3134 7.72911 17.1871 7.83133 17.0872C7.93299 16.9873 8.00748 16.9144 8.02975 16.8917C8.05119 16.8694 8.10494 16.8244 8.1749 16.7694C8.24346 16.7148 8.32823 16.6506 8.41142 16.59C8.49489 16.5291 8.58022 16.4648 8.65101 16.4099C8.72235 16.3549 8.77833 16.3096 8.80255 16.2869C8.84039 16.2518 8.91199 16.206 9.03936 16.1381C9.16672 16.0699 9.35013 15.9792 9.61103 15.8544C10.0563 15.6422 10.7817 15.3696 11.5479 15.1163C12.3132 14.863 13.1193 14.6293 13.7229 14.4948C13.7479 14.4894 13.7848 14.4803 13.8238 14.47C13.8626 14.46 13.9039 14.4489 13.938 14.4393C14.0471 14.4084 14.0803 14.4178 14.0533 14.4507C14.0263 14.4832 13.9393 14.5389 13.8051 14.6C13.7339 14.6327 13.6345 14.68 13.5315 14.7303C13.4279 14.7805 13.3213 14.8339 13.236 14.8778C13.1501 14.9215 13.0683 14.9616 13.0055 14.9907C12.9421 15.0198 12.8982 15.038 12.8876 15.0383C12.8776 15.0386 12.8365 15.0556 12.7789 15.0825C12.721 15.1098 12.6461 15.147 12.5688 15.1879C12.4912 15.2288 12.3833 15.2839 12.2707 15.3397C12.1586 15.3955 12.0421 15.452 11.9498 15.4958C11.8029 15.5648 11.6134 15.657 11.392 15.7663C11.1706 15.8759 10.9175 16.0025 10.6447 16.1408C10.6018 16.1626 10.5597 16.1858 10.5273 16.2054C10.4949 16.2252 10.4719 16.2412 10.4657 16.2492C10.4595 16.2569 10.4411 16.2683 10.4172 16.2804C10.3924 16.2922 10.3615 16.3051 10.331 16.3151C10.2998 16.3254 10.2636 16.3415 10.2315 16.3585C10.199 16.3759 10.1688 16.3946 10.1505 16.4104C10.1326 16.4263 10.0551 16.4722 9.94542 16.5338C9.83545 16.5951 9.6927 16.6721 9.54465 16.7492C9.28322 16.8856 9.10946 16.9818 9.00058 17.0523C8.89253 17.1225 8.84936 17.1669 8.85024 17.1993C8.85048 17.2079 8.86452 17.2215 8.88641 17.2363C8.90831 17.2513 8.93861 17.2675 8.97192 17.2814C9.05437 17.3165 9.14636 17.3126 9.39906 17.2045C9.65121 17.0966 10.0649 16.8841 10.7919 16.5024C11.1193 16.3302 11.4272 16.1692 11.6597 16.0482C11.8915 15.9275 12.0478 15.8467 12.0726 15.8355C12.098 15.8242 12.1643 15.7919 12.2516 15.7488C12.3392 15.706 12.4477 15.6519 12.5556 15.5979C12.6633 15.5439 12.7641 15.4949 12.8391 15.4591C12.9137 15.4233 12.9631 15.401 12.9681 15.4009C12.9739 15.4007 13.0192 15.3808 13.0861 15.3491C13.1536 15.3174 13.244 15.2736 13.3406 15.2258C13.4379 15.1777 13.5527 15.1212 13.6607 15.0686C13.7686 15.016 13.8695 14.9672 13.9359 14.9356C14.072 14.8707 14.161 14.8396 14.1889 14.841C14.2174 14.8425 14.1857 14.8766 14.0803 14.9428C14.043 14.9667 14.008 14.9928 13.9835 15.0155C13.9593 15.0385 13.9434 15.0581 13.9437 15.069C13.9443 15.0938 13.8072 15.253 13.6246 15.4472C13.4412 15.6414 13.2139 15.8703 13.0353 16.0345C12.6947 16.3485 12.0867 16.7767 11.389 17.2087C10.6914 17.6407 9.90448 18.0771 9.20459 18.4076C8.9161 18.5441 8.55516 18.6951 8.22646 18.8204C7.89748 18.946 7.60158 19.0459 7.4426 19.0804C7.41125 19.0873 7.34442 19.1028 7.2629 19.1226C7.18055 19.1422 7.08268 19.166 6.98954 19.1892C6.89612 19.2124 6.74802 19.2365 6.58363 19.2569C6.41981 19.2773 6.2408 19.2936 6.08528 19.3014L5.80351 19.3152L5.5209 19.3293ZM9.63745 12.8016C9.62741 12.8019 9.6183 12.7544 9.61259 12.6778C9.60632 12.6012 9.60344 12.4952 9.60529 12.3785C9.60711 12.158 9.64421 11.8695 9.70158 11.5881C9.75813 11.3069 9.83522 11.0321 9.91622 10.8393C9.93982 10.7837 9.98733 10.6627 10.0452 10.5123C10.1033 10.362 10.1713 10.1824 10.2353 10.0098C10.2998 9.83729 10.3627 9.67538 10.4115 9.55321C10.4604 9.43104 10.4958 9.34858 10.5064 9.33574C10.5161 9.32292 10.5356 9.28276 10.5584 9.22855C10.5821 9.17405 10.6087 9.10578 10.6347 9.03614C10.7561 8.69962 10.8672 8.4404 10.9894 8.21576C11.112 7.99139 11.2461 7.8016 11.416 7.60386C11.4347 7.5827 11.4893 7.51814 11.5634 7.43184C11.6375 7.34527 11.7303 7.23641 11.8244 7.12641C11.918 7.01641 12.0476 6.87754 12.1799 6.74221C12.3126 6.60688 12.4483 6.47509 12.5557 6.37979C12.6631 6.2845 12.7685 6.19009 12.8507 6.11446C12.9338 6.0388 12.9942 5.9819 13.0124 5.96243C13.0707 5.90001 13.1635 5.82269 13.2765 5.74091C13.3893 5.65915 13.5212 5.57295 13.6591 5.49301C13.733 5.45026 13.8137 5.40034 13.8861 5.35456C13.9577 5.30879 14.0202 5.26719 14.0552 5.24028L14.1203 5.1919L14.1846 5.14327L14.1515 5.21003L14.1176 5.27654C14.0993 5.31332 14.0567 5.37587 14.0022 5.44685C13.947 5.51812 13.8813 5.59777 13.8168 5.66901C13.7515 5.74028 13.6857 5.81575 13.6311 5.8803C13.577 5.94457 13.5335 5.99766 13.5156 6.02382C13.4028 6.18848 13.3118 6.31179 13.2142 6.42748C13.1161 6.54345 13.0105 6.6521 12.8704 6.78735C12.3983 7.24114 12.1291 7.50298 11.9803 7.65605C11.8315 7.80885 11.8034 7.85287 11.8154 7.87125C11.8221 7.88251 11.8232 7.89113 11.8174 7.89631C11.8126 7.90175 11.802 7.90343 11.7869 7.90049C11.7717 7.89727 11.7416 7.9193 11.705 7.95742C11.668 7.99526 11.6246 8.04919 11.5841 8.11001C11.5427 8.17058 11.5077 8.22567 11.4845 8.26538C11.4613 8.30536 11.45 8.32995 11.455 8.32981C11.4614 8.32964 11.4595 8.34336 11.4523 8.36588C11.4451 8.38813 11.4323 8.4189 11.4162 8.45282C11.3599 8.56794 11.3818 8.66642 11.4351 8.70907C11.4879 8.75201 11.5719 8.73912 11.639 8.63264C11.6567 8.60397 11.7058 8.54124 11.7706 8.46301C11.8352 8.38478 11.9155 8.29106 11.9951 8.20126C12.0756 8.11144 12.1483 8.02574 12.2015 7.9601C12.2539 7.89477 12.287 7.8495 12.2867 7.84001C12.2873 7.83051 12.2949 7.82193 12.3062 7.81549C12.318 7.80903 12.3343 7.80467 12.3522 7.80419C12.37 7.8037 12.3878 7.79931 12.4021 7.79278C12.4162 7.78626 12.4274 7.77731 12.4313 7.76771C12.4347 7.75841 12.4637 7.72832 12.5064 7.68808C12.5494 7.64756 12.6066 7.59661 12.668 7.54471C12.8399 7.39938 13.066 7.17443 13.2848 6.9374C13.5033 6.70066 13.7131 6.45187 13.8535 6.25884C13.9223 6.16291 14.0135 6.04462 14.1033 5.93166C14.1937 5.8184 14.2829 5.71049 14.3503 5.6347C14.4195 5.63282 14.4807 5.49245 14.5286 5.44622C14.5767 5.39998 14.6095 5.37397 14.6155 5.37938C14.6207 5.38483 14.6169 5.41032 14.6067 5.44688C14.5954 5.48347 14.5775 5.53112 14.556 5.58111C14.5336 5.63139 14.5012 5.72325 14.4662 5.83109C14.4306 5.93923 14.3941 6.06302 14.3628 6.17662C14.2984 6.41252 14.2429 6.60157 14.1842 6.78067C14.1249 6.96006 14.0622 7.12977 13.9838 7.3267C13.8556 7.64918 13.7828 7.83619 13.7479 7.94989C13.7133 8.06386 13.7159 8.10481 13.7359 8.13552C13.7464 8.15226 13.7501 8.16305 13.7483 8.16728C13.7453 8.17183 13.7369 8.16982 13.7216 8.16103C13.7071 8.15277 13.6805 8.17136 13.6473 8.20938C13.6145 8.24767 13.5753 8.30539 13.5365 8.37538C13.4993 8.44253 13.4604 8.51113 13.429 8.5678C13.397 8.62448 13.3717 8.66926 13.36 8.68856C13.3491 8.70756 13.3027 8.79031 13.2376 8.90846C13.1721 9.02662 13.0875 9.17962 12.9992 9.3397C12.9112 9.49978 12.8105 9.67583 12.7173 9.83074C12.6252 9.98562 12.5415 10.1193 12.4894 10.1944C12.3148 10.4442 12.0121 10.798 11.7037 11.1245C11.3955 11.451 11.0821 11.7501 10.8881 11.891C10.8594 11.9119 10.8298 11.9341 10.8069 11.9532C10.7837 11.972 10.7663 11.9875 10.7601 11.9952C10.7547 12.0026 10.7085 12.0385 10.6398 12.09C10.5712 12.1413 10.4787 12.2085 10.3807 12.2787C10.2824 12.349 10.1732 12.4278 10.0771 12.4985C9.98054 12.569 9.89654 12.631 9.8487 12.6675C9.80058 12.7042 9.75292 12.7376 9.71507 12.7618C9.67637 12.786 9.64749 12.8013 9.63745 12.8016Z" fill="#9BAF8A"/>
</svg>
