<svg width="491" height="320" viewBox="0 0 491 320" fill="none" xmlns="http://www.w3.org/2000/svg">
<path d="M379.363 0.0455873C376.012 -0.391913 369.473 2.30731 358.281 8.67449C355.371 10.3347 349.621 14.5612 347.93 16.28C344.59 19.694 327.711 29.8659 321.91 31.9557C297.551 40.7409 284.801 50.9714 274.941 69.6667C273.09 73.1745 269.711 79.0612 267.441 82.7448C261.832 91.8346 259.07 96.8854 259.07 98.2018C259.062 99.4362 256.922 100.507 238.512 108.518C234.762 110.155 229.98 112.456 227.902 113.635C223.051 116.374 217.941 118.069 215.18 119.518C212.422 120.971 208.973 123.374 202.711 127.053C197.383 130.19 189.723 134.928 185.691 137.581C175.941 144.014 176.5 143.69 177.152 142.546C177.453 142.014 179.43 140.284 181.543 138.702C185.82 135.495 189.781 131.37 195.461 124.225C197.551 121.592 199.781 118.862 200.422 118.159C202.121 116.311 211.762 104.233 214.422 100.635C217 97.1511 221.191 92.0026 222.852 90.2839C223.461 89.6471 223.961 88.9636 223.961 88.7604C223.961 88.5573 227.961 84.4675 232.832 79.6667C243.641 69.0378 244.082 68.2604 244.652 59.0612C245.082 52.0729 249.012 46.2565 258.422 38.6589C260.703 36.8151 263.941 33.9479 265.613 32.2878C268.43 29.4909 268.602 29.1432 267.91 27.6237C267.5 26.7175 266.621 25.8073 265.953 25.5964C264.531 25.1432 259.98 27.3854 253.633 31.6667C247.902 35.5378 240.242 39.3776 234.172 41.4284C226.973 43.8659 219.031 47.5104 214.391 50.5143C212.113 51.9909 207.941 54.0846 205.141 55.1628C198.84 57.5886 194.32 59.5886 185.672 63.7721C180.121 66.4596 178.191 67.8073 174.352 71.6745C171.813 74.2409 169.73 76.6354 169.73 77.0026C169.73 77.3659 169.063 78.737 168.25 80.0456C167.441 81.3542 165.961 84.7253 164.961 87.53C163.961 90.3386 161.332 95.8464 159.121 99.7721C156.902 103.694 154.492 108.862 153.75 111.257C151.832 117.46 149.813 123.159 149.262 123.905C149.012 124.253 148.5 125.546 148.133 126.776C147.77 128.003 146.98 130.299 146.383 131.882C144.641 136.464 144.801 148.62 146.68 155.303C147.492 158.186 148.563 160.878 149.051 161.284C150.41 162.413 150.133 163.311 147.883 165.061C143.43 168.534 141.672 170.327 141.461 170.6C141.25 170.878 135.922 174.323 134.633 175.85C134.453 176.057 132.582 177.659 130.48 179.409C127.391 181.971 119.012 189.323 113.57 194.225C113.051 194.702 111.953 195.632 111.141 196.292C106.902 199.757 85.6914 220.671 79.3906 227.596C66.0313 242.28 61.2617 247.096 61.2617 245.979C61.25 245.389 61.7031 242.948 62.2617 240.557C62.8125 238.167 63.6602 233.585 64.1406 230.378C64.7305 226.471 65.8711 222.577 67.6016 218.573C69.0117 215.288 70.1797 212.096 70.1797 211.483C70.1797 210.87 70.4414 210.366 70.7617 210.366C71.082 210.366 72.6406 208.546 74.2305 206.319C77.1914 202.167 79.5313 200.159 81.4024 200.159C81.9805 200.159 85.6524 198.553 89.5625 196.592C97.793 192.464 100.711 189.757 102.711 184.409C103.473 182.374 104.32 180.421 104.602 180.065C104.883 179.71 105.621 177.839 106.242 175.909C106.863 173.979 107.883 171.253 108.52 169.846C109.16 168.444 110.293 165.428 111.031 163.147C112.422 158.905 112.883 157.643 114.09 154.85C116.172 150.046 117.32 143.499 117.152 137.303C116.961 130.163 118.121 120.917 119.613 117.717C120.152 116.557 121.453 114.315 122.5 112.737C123.543 111.155 124.68 109.217 125.031 108.428C125.383 107.639 125.961 106.995 126.32 106.995C126.672 106.995 126.973 106.561 126.973 106.038C126.973 105.51 127.191 105.081 127.453 105.081C127.723 105.081 128.293 104.288 128.723 103.323C129.16 102.358 131.203 99.4596 133.262 96.8815C135.32 94.3034 137.613 91.0026 138.363 89.5456C139.102 88.0846 139.73 87.1823 139.73 87.53C139.742 88.2292 144.203 81.0456 144.203 80.319C144.211 80.0729 144.652 79.0221 145.191 77.9792C145.73 76.9362 146.02 75.4284 145.82 74.6276C145.52 73.4323 145.02 73.1745 143.031 73.1745C140.891 73.1745 140.152 73.6589 136.43 77.4831C130.051 84.0495 128.02 85.6471 119.352 90.9128C107.262 98.2487 102.723 101.78 99.0625 106.674C93.961 113.479 89.961 119.214 89.961 119.71C89.961 120.026 89.7422 120.382 89.4727 120.499C88.8828 120.749 83.6602 127.608 81.4219 131.061C80.5625 132.389 79.1797 134.241 78.3711 135.174C76.4024 137.432 75.3399 138.745 73.0703 141.76C70.961 144.577 70.2031 145.428 65.5 150.249C63.6914 152.104 61.5625 153.788 60.7695 153.987C59.9805 154.186 59.332 154.596 59.332 154.889C59.332 155.186 58.1133 155.971 56.6211 156.632C53.5 158.01 50.75 160.936 46.9531 166.917C41.9922 174.714 41.2305 177.21 41.1797 185.479C41.1524 192.198 41.293 193.12 42.8828 196.409C43.8399 198.385 44.9297 202.12 45.3125 204.706C46.25 211.159 48.8399 222.842 50.1016 226.319C51.0625 228.975 51.8008 232.979 53.6406 245.464C54.0508 248.296 54.75 250.561 55.3203 251.018C56.5 251.936 55.9024 252.729 46.9805 262.147C43.7695 265.534 38.5625 271.167 35.4024 274.663C31.8906 278.553 29.0195 281.167 26.9024 283.581C24.7695 285.991 24.5117 286.682 22.5899 289.19C21.3203 290.858 19.6524 292.831 18.8711 293.569C18.1016 294.311 16.7695 295.917 15.9219 297.139C15.0625 298.366 13.9297 299.811 13.4024 300.362C11.1016 302.721 5.20314 309.717 2.71095 313.022V313.026C1.22267 314.999 1.45528e-05 316.819 1.45528e-05 317.077C-0.00779845 317.616 3.13283 319.776 3.39064 319.409C3.4922 319.276 4.9922 317.452 6.73048 315.358C8.46095 313.264 10.4531 310.842 11.1524 309.975C11.8633 309.108 14.1524 306.366 16.2617 303.885C18.3711 301.401 21.5 297.651 23.2305 295.549C24.961 293.444 26.5703 291.495 26.8008 291.217C27.2813 290.643 30.6211 291.975 30.6211 292.741C30.6211 293.01 31.9805 293.897 33.6524 294.714C35.3203 295.526 36.8203 296.366 37 296.581C37.5899 297.296 50.8203 300.964 54.75 301.503C57.582 301.889 59.3203 301.803 61.0703 301.182C65.2813 299.686 69.2031 299.706 73 301.253C74.9102 302.026 76.8516 302.975 77.3125 303.358C78.5703 304.397 85.3203 306.01 95.5 307.71C103.223 308.995 106.121 309.178 115.262 308.948C121.152 308.799 126.691 308.542 127.582 308.37C128.48 308.202 131.07 307.889 133.352 307.674C140.66 306.991 141.883 306.565 142.543 304.464C145.422 295.237 151.852 288.046 161.621 283.139C165.141 281.37 168.5 279.921 169.07 279.921C169.641 279.921 170.383 279.663 170.711 279.35C171.051 279.034 174.621 277.733 178.652 276.46C182.691 275.186 187.16 273.6 188.59 272.936C190.02 272.272 192.25 271.526 193.551 271.284C197 270.639 197.813 268.948 195.621 266.975C194.832 266.26 193.762 265.952 192.73 266.143C191.832 266.315 189.52 266.628 187.59 266.842C184.543 267.182 177.332 268.382 172.281 269.389C160.27 271.784 157.992 271.725 151.102 268.842C148.051 267.565 145.191 266.522 144.75 266.522C144.313 266.522 141.922 265.546 139.453 264.358C133.883 261.686 132.391 261.217 122.82 259.147C111.332 256.655 104.441 256.143 98.0899 257.307C95.2031 257.835 92.0625 258.385 91.1211 258.53C88.7813 258.889 83.9297 260.897 75.6016 264.964C68.3125 268.526 47.9102 277.561 44.0195 278.956C42.793 279.393 40.5313 279.944 39 280.174L36.211 280.596L37.832 278.823C38.711 277.85 40.211 276.19 41.1524 275.135C43.3399 272.686 57.3711 257.749 64.5117 250.264C75.832 238.401 77.8711 236.214 80.5 233.061C82.8711 230.225 95.5508 217.428 106.992 206.342L110.813 202.635L114.582 205.128C116.66 206.503 121.371 209.405 125.063 211.581C133.691 216.678 134.121 216.94 135 217.737C135.402 218.104 137.711 219.678 140.133 221.237C142.543 222.796 144.902 224.432 145.363 224.878C145.832 225.319 146.332 225.682 146.492 225.682C146.652 225.682 148.961 226.268 151.633 226.983C158.98 228.952 169.453 230.592 175.492 230.725C179.703 230.815 182.152 230.471 186.633 229.159C189.793 228.229 193.191 227.335 194.191 227.167C195.191 226.999 198.633 225.346 201.852 223.491C205.063 221.639 208.27 219.94 208.973 219.717C209.68 219.495 211.832 218.272 213.762 217.007C218.531 213.858 221.262 212.546 224.281 211.948C225.691 211.667 227.262 211.335 227.793 211.206C228.32 211.077 232.051 210.831 236.082 210.663C246.43 210.225 250.23 209.87 257.141 208.698C260.48 208.132 264.641 207.483 266.402 207.26C269.262 206.897 269.613 206.682 269.781 205.147C270.07 202.733 268.121 201.885 261.852 201.694C254.621 201.475 251.363 199.932 249.25 195.741C247.262 191.768 246.332 190.874 240.871 187.592C234.16 183.565 228.82 181.827 222.281 181.546C218.203 181.37 212.48 182.108 212.48 182.807C212.48 183.049 211.543 183.268 210.402 183.292C209.262 183.311 207.473 183.553 206.422 183.827C203.621 184.546 202.133 184.382 194.32 182.495C188.02 180.971 186.02 180.784 175.473 180.764C168.973 180.753 162.801 180.952 161.75 181.21C160.691 181.471 158.68 181.835 157.281 182.026C155.883 182.214 153.641 182.784 152.32 183.288C151 183.792 149.531 184.206 149.051 184.206C148.57 184.206 147.07 184.69 145.711 185.288C144.352 185.882 142.09 186.717 140.691 187.143C139.281 187.569 136.133 188.678 133.672 189.608C128.461 191.581 122.941 193.151 122.563 192.768C122.41 192.62 122.41 192.417 122.563 192.311C122.852 192.108 131.813 184.299 134.93 181.538C135.992 180.596 137.781 179.159 138.902 178.346C140.66 177.065 147.602 171.467 151.543 168.155C153.742 166.307 163.02 159.061 164.902 157.725C165.902 157.022 167.961 155.514 169.5 154.374C171.031 153.233 172.551 152.299 173.281 151.604C174.012 150.905 187.461 141.753 197.93 135.245C201.34 133.132 203.922 131.174 204.141 131.112C204.363 131.049 206.652 130.089 209.051 128.686C211.453 127.284 213.652 126.139 213.941 126.139C214.242 126.139 216.211 127.882 218.32 130.014C222.512 134.245 226.34 136.87 238.961 144.151C252.32 151.862 255.07 152.917 261.98 152.979C265.91 153.018 266.621 152.917 273.41 151.315C282.762 149.116 292.141 147.335 294.66 147.268C296.172 147.233 299.91 146.897 302.961 146.526C306.012 146.155 312.32 145.686 316.98 145.487C325.043 145.135 325.691 145.202 330.383 146.85C333.09 147.803 335.883 148.842 333.473 144.475C331.051 140.112 329.281 138.917 327.922 136.214C326.16 132.694 324.371 130.757 321.59 129.346C318.66 127.854 313.191 126.35 308.832 125.827C306.902 125.596 301.582 124.69 297.02 123.815C280.09 120.561 278.473 120.264 276.281 120.057C271 119.557 263.93 118.339 261.68 117.549C258.922 116.577 242.93 116.296 235.922 117.096C233.563 117.366 231.621 117.428 231.621 117.237C231.633 116.831 238.012 113.764 245.02 110.792C247.652 109.674 251.242 108.12 253 107.335C255.973 106.003 261.93 103.432 266.391 101.557C270.973 99.6393 280.102 96.1315 283.621 94.9362C293.68 91.5378 325.91 84.1706 331.801 83.9323C333.922 83.8425 338.781 84.987 348.262 87.8112C352.711 89.1354 357.871 90.0417 366.582 91.0221C369.383 91.3386 373.691 92.0573 376.152 92.6237C378.602 93.1901 382.77 94.0534 385.402 94.5417C389.82 95.362 394.711 96.7487 397.84 98.0573C398.551 98.3503 400.562 98.9245 402.312 99.3307C404.07 99.737 406.363 100.456 407.422 100.924C412.133 103.022 419.73 104.882 423.371 104.823C426.391 104.772 428.133 104.292 431.652 102.526C434.09 101.299 436.48 99.9362 436.961 99.4948C437.43 99.0573 438.121 98.6979 438.473 98.6979C438.832 98.6979 440.031 98.3151 441.141 97.8464C444.082 96.5964 447.441 95.4557 448.891 95.2057C449.59 95.0846 451.75 94.6784 453.68 94.2995C460.133 93.0456 462.242 92.8815 471.133 92.944C478.941 93.0026 482.742 93.3776 487.18 94.5339C487.883 94.7175 489.031 94.4245 489.73 93.8893C490.891 92.9909 490.922 92.7761 490.051 91.2331C489.293 89.8971 488.172 89.3229 484.633 88.4479C478.633 86.9675 460.703 79.3698 460.703 78.3112C460.703 78.1042 459.34 77.2214 457.672 76.3503C456 75.4792 454.492 74.5729 454.312 74.3307C453.602 73.3971 446.16 70.1276 442.512 69.1511C440.41 68.5846 436.352 67.8346 433.512 67.487C427.301 66.7253 423.812 65.4323 419.543 62.3112C417.793 61.0261 414.34 59.2839 411.883 58.4401C407.801 57.0339 406.492 56.9089 396.57 56.9792C389.352 57.03 383.703 57.4206 379.66 58.1589C376.332 58.7682 372.742 59.405 371.691 59.5768C362.941 61.0143 345.223 69.9284 340.121 75.4557C338.211 77.5261 336.902 78.362 335.141 78.6198C327.121 79.7995 324.613 80.2136 320.32 81.0612C317.691 81.5846 312.953 82.612 309.793 83.3464C306.633 84.0807 303.18 84.8503 302.133 85.0534C300.461 85.3737 291.5 87.6784 287.301 88.8698C284.242 89.7331 286.141 88.0573 290.832 85.7604C293.543 84.4323 297.191 82.4948 298.941 81.4518C300.691 80.4089 302.852 79.2448 303.73 78.8698C306.422 77.7214 319.762 70.8815 324.051 68.4518C326.281 67.1862 328.211 66.155 328.352 66.155C328.492 66.155 330.301 64.9323 332.371 63.444C334.441 61.9518 338.051 59.5846 340.402 58.1784C342.75 56.7761 345.863 54.5378 347.332 53.2057C348.793 51.8737 352.07 49.3503 354.621 47.6003C357.301 45.7565 359.992 43.2761 361 41.7214C361.961 40.2448 362.953 38.8776 363.211 38.6823C363.48 38.4909 364.121 34.6901 364.641 30.2331C365.68 21.2839 366.441 19.2839 369.941 16.2253C371.25 15.0847 374.551 11.9557 377.262 9.27215C382.73 3.89324 383.461 1.94793 380.602 0.420587C380.25 0.233087 379.832 0.104181 379.363 0.0455873ZM368.812 9.6784C368.812 9.88543 367.262 11.5534 365.371 13.3815C361.203 17.4128 360.102 20.2839 359.613 28.3698C359.102 36.7956 357.863 38.78 348.93 45.4401C346.602 47.1823 342.582 50.2096 340 52.1745C337.422 54.1354 333.98 56.4831 332.34 57.3893C330.711 58.2956 328.27 59.7292 326.922 60.5729C324.742 61.9284 317.621 65.8503 303.41 73.5221C295.223 77.9362 291.973 79.4987 291.641 79.1706C291.461 78.9948 291.621 78.6471 291.98 78.405C292.352 78.1589 294.031 75.9479 295.711 73.4909C299.43 68.069 299.961 67.6315 307.41 63.7917C310.672 62.1159 314.062 60.1159 314.961 59.3464C315.852 58.5807 318.48 56.9948 320.801 55.8307C323.121 54.6667 325.543 53.2878 326.172 52.7721C327.723 51.5261 327.652 49.7487 326.051 49.2409C323.363 48.3854 318.941 50.1393 311.703 54.9362C309.602 56.3307 305.82 58.53 303.312 59.8229C297.043 63.0495 294.633 65.1003 291 70.3034C287.141 75.8307 283.863 78.987 277.09 83.6745H277.082C274.191 85.6784 271.852 87.2214 271.852 87.1042C271.973 86.3698 275.062 80.7409 276.492 78.6667C277.43 77.3034 278.203 75.8034 278.203 75.3386C278.203 74.3464 279.66 71.694 282.91 66.7917C286.98 60.6628 287.883 59.569 293.492 54.03C299.832 47.7604 306.012 43.8893 315.852 40.0221C319.531 38.5768 323.051 37.1159 323.66 36.7761C324.27 36.4401 325.07 36.1628 325.453 36.1628C328.43 36.1628 346.133 25.3698 355.531 17.8112C359.91 14.2956 368.812 8.84246 368.812 9.6784ZM246.301 42.1276C246.301 42.2604 245.41 43.487 244.32 44.8503C241.23 48.7214 240.043 51.5534 239.621 55.9909C238.602 66.6432 239.07 65.8737 225.012 80.194C220.363 84.9323 214.473 91.5339 211.922 94.8698C209.371 98.2018 205.441 103.229 203.191 106.038C200.941 108.846 197.551 113.151 195.652 115.608C193.75 118.065 191.262 121.077 190.102 122.307C188.961 123.534 186.582 126.253 184.84 128.354C183.09 130.456 180.402 133.065 178.871 134.155C176.461 135.87 167.012 144.354 160.262 150.862C159.082 152.003 155.68 155.241 155.531 155.241C154.613 155.241 159.711 149.592 164.992 144.354C169.852 139.538 171.422 137.495 172.98 133.999C174.051 131.604 175.59 128.21 176.41 126.456C178.66 121.639 179.93 118.51 179.93 117.784C179.93 117.03 182.063 112.026 183.57 109.229C186 104.729 195.602 92.7331 200.09 88.6042C206.293 82.8893 206.672 82.3112 205.98 79.737C205.512 77.9675 205.25 77.7604 204.031 78.2096C202 78.9636 191.012 89.3854 187.152 94.2331C180.402 102.698 175.742 110.948 173.832 117.842C173.191 120.12 171.902 123.311 170.953 124.924C170.012 126.538 169.02 128.546 168.762 129.389C167.57 133.221 165.352 136.444 160.223 141.772C157.172 144.928 153.922 148.448 152.992 149.589C151.043 151.987 150.902 152.046 150.723 150.546C150.102 145.561 150.02 139.682 150.551 138.823C150.902 138.253 151.32 136.483 151.48 134.885C151.633 133.288 152.031 131.456 152.371 130.815C152.703 130.171 154.613 124.764 156.613 118.799C158.77 112.342 161.32 106.139 162.891 103.483C166.152 97.9831 169.73 90.7253 169.73 89.6198C169.73 89.1667 170.98 86.3464 172.5 83.3542C175.672 77.1471 180.32 72.2096 185.363 69.694C193.152 65.8034 201.891 61.9245 207.051 60.0612C208.813 59.4284 212.871 57.3815 216.082 55.5143C219.301 53.6432 222.383 52.1159 222.941 52.1159C223.5 52.1159 223.961 51.8307 223.961 51.4792C223.961 51.1276 224.242 50.8386 224.582 50.8386C224.922 50.8386 226.723 50.1471 228.57 49.2995C230.422 48.4518 234.09 46.8971 236.73 45.8425C239.363 44.7878 242.59 43.4675 243.902 42.905C245.223 42.3464 246.301 41.9948 246.301 42.1276ZM396.07 61.7331C400.223 61.5456 403.902 61.5026 404.23 61.7331C404.582 61.9753 406.441 62.362 408.352 62.5886C410.352 62.8268 412.941 63.6862 414.422 64.6003C415.832 65.4792 418.301 67.0065 419.891 67.9948C423.652 70.3229 427.902 71.7057 434.582 72.7878C441.441 73.9011 448.84 76.0925 449.863 77.3229C450.293 77.8464 451.02 78.2761 451.48 78.2761C451.93 78.2761 452.391 78.5143 452.512 78.8034C452.75 79.3893 461.281 84.5573 464.051 85.7878C468 87.5495 468.98 88.0729 468.75 88.3034C468.621 88.4362 465.961 88.6354 462.852 88.7487C451.5 89.1511 443.441 91.069 434.363 95.5143C431.512 96.9128 428.801 98.0573 428.352 98.0573C427.891 98.0573 427.52 98.3151 427.52 98.6315C427.52 98.9479 426.133 99.5378 424.441 99.944C421.91 100.549 420.582 100.495 416.941 99.6237C414.512 99.0417 411.66 98.1901 410.613 97.7331C409.562 97.2721 406.113 96.1315 402.953 95.1979C399.793 94.2643 396.34 93.1237 395.27 92.6628C394.211 92.2018 391.332 91.3854 388.891 90.8425C381.891 89.2917 378.191 88.4909 376.473 88.1471C375.59 87.9753 373.582 87.5534 372 87.2175C370.422 86.8815 365.793 86.1628 361.711 85.6198C357.633 85.0768 352.75 84.1823 350.871 83.6315C348.98 83.0768 347.191 82.3971 346.902 82.1159C346.383 81.6198 350.621 80.7643 359.242 79.6237C365.57 78.7878 375.062 78.7643 380.012 79.5729C382.453 79.9714 388.902 80.4362 394.34 80.6042C399.781 80.7761 405.371 80.9675 406.77 81.03C410.16 81.1862 410.633 79.4518 407.621 77.8971C405.922 77.0182 403.312 76.7565 394.332 76.5729C388.18 76.4479 381.293 75.9479 379.012 75.4596C376.02 74.8229 371.402 74.6471 362.27 74.8229C355.34 74.9596 349.672 74.9323 349.672 74.7682C349.672 74.3932 357.16 70.5807 357.73 70.6667C357.961 70.6979 358.32 70.4636 358.531 70.1393C359.801 68.2448 371.293 64.6393 380.301 63.3151C381.531 63.1354 383.68 62.8073 385.082 62.5886C387.312 62.2448 391.922 61.9167 396.07 61.7292V61.7331ZM129.902 91.2136C130.23 91.5339 126.262 96.9753 125.242 97.612C124.793 97.8932 124.422 98.3971 124.422 98.7331C124.422 99.0651 122.121 102.768 119.313 106.956C112.051 117.792 111.703 118.987 111.281 134.491C110.98 145.827 110.383 148.76 106 160.276C104.93 163.085 103.02 168.253 101.762 171.76C97.832 182.647 96.6133 185.124 93.6719 188.104C91.211 190.612 80.961 196.003 77.2617 196.733C75.8516 197.014 73.8516 198.389 71.4531 200.733C67.4727 204.632 66.0195 206.854 63.8125 212.464C63.0117 214.495 62.2305 216.034 62.082 215.882C61.9297 215.733 62.3828 212.491 63.082 208.678C63.7813 204.87 64.6719 199.624 65.0508 197.026C66.4805 187.296 67.6016 183.764 70.8828 178.741C72.6211 176.081 74.6797 173.233 75.461 172.417C76.2422 171.6 77.6016 169.975 78.4727 168.803C79.3516 167.632 82.8711 163.882 86.293 160.467C89.711 157.049 92.5117 153.995 92.5117 153.674C92.5117 153.354 92.8906 152.776 93.3633 152.389C94.9922 151.038 94.0313 148.186 91.8008 147.725C90.211 147.397 72.1719 166.928 72.6211 168.483C72.7422 168.882 72.6406 169.01 72.4024 168.768C71.75 168.116 70.0117 169.956 66.6602 174.858C62.2227 181.346 60.793 185.077 60 192.26C59.6133 195.725 58.7031 202.151 57.9727 206.538C56.9414 212.749 56.7422 215.858 57.0703 220.577C57.3008 223.909 57.25 227.315 56.9414 228.139C56.4219 229.534 56.3203 229.444 55.543 226.866C55.082 225.335 54.1914 221.788 53.5703 218.979C52.9531 216.174 52.1524 212.729 51.8008 211.323C51.4531 209.921 51.0117 207.19 50.832 205.26C50.332 200.092 49.6914 197.561 48.2617 195.143C46.9805 192.964 46.3125 185.784 46.9727 181.335C47.6328 176.964 54.043 164.424 55.6211 164.424C55.9024 164.424 56.1406 164.046 56.1406 163.585C56.1406 163.124 57.8633 161.78 59.9727 160.596C62.0703 159.409 63.8008 158.046 63.8008 157.565C63.8008 157.085 64.0899 156.874 64.4531 157.092C65.75 157.897 75.6914 147.913 81.4219 140.042C84.543 135.76 88.4024 130.807 90.0195 129.038C93.3125 125.424 98.0313 118.663 99.6211 115.288C101.223 111.885 110.551 102.737 116.152 99.0768C117.711 98.0573 119.77 96.694 120.723 96.0456C121.672 95.4011 122.691 94.8698 122.992 94.8698C123.281 94.8698 124.91 93.9948 126.602 92.9206C128.281 91.8503 129.781 91.0807 129.902 91.2136ZM253.68 121.237C258.371 121.424 264.16 122.241 264.16 122.921C264.16 123.171 265.242 123.421 266.562 123.471C271.352 123.671 286.93 126.155 292.562 127.62C294.672 128.167 298.113 128.784 300.223 128.991C310.031 129.96 319.613 132.323 321.82 134.319C323.133 135.503 324.781 138.432 324.781 139.573C324.781 140.034 324.211 140.171 323.262 139.932C321.922 139.596 305.57 140.706 295.43 141.823C288.133 142.624 279.57 144.128 273.102 145.737C264.91 147.78 258.84 148.116 254.84 146.753C251.461 145.6 243.891 141.76 242.441 140.464C241.902 139.983 240.18 138.979 238.621 138.237C235.25 136.639 234.582 136.249 228.75 132.421C226.293 130.807 223.5 128.655 222.551 127.639L220.813 125.788L226.063 126.202C229.781 126.495 232 127.026 233.691 128.034C235.012 128.815 236.09 129.643 236.09 129.882C236.09 130.717 243.871 134.569 248.613 136.073C256.672 138.632 261.57 138.819 264.402 136.678C266.363 135.19 264.5 134.163 258.211 133.268C252.191 132.413 248.633 131.382 243.25 128.944C239.48 127.233 235.152 123.628 235.93 122.846C236.211 122.565 238.441 122.194 240.891 122.026C243.34 121.858 247.262 121.526 249.613 121.292C250.672 121.186 252.121 121.174 253.68 121.237ZM257.973 174.233C257.852 174.284 257.781 174.409 257.781 174.592C257.781 174.964 258.07 175.268 258.422 175.268C258.77 175.268 259.062 175.139 259.062 174.987C259.062 174.831 258.77 174.526 258.422 174.311C258.25 174.202 258.082 174.178 257.973 174.233ZM169.191 184.983C171.621 184.835 174.332 184.882 178.641 185.042C185.043 185.284 190.531 185.87 194.141 186.702C202.52 188.62 205.301 188.714 211.621 187.28C221.34 185.069 231.211 186.44 239.012 191.085C242.813 193.342 246.301 197.174 246.301 199.085C246.301 200.143 249.781 203.335 250.973 203.366C251.383 203.378 251.211 203.686 250.582 204.049C249.953 204.417 244.34 204.964 238.113 205.272C231.871 205.581 226.07 206.1 225.211 206.428C224.352 206.753 223.5 206.999 223.332 206.971C223.152 206.944 221.57 207.319 219.82 207.803C216.531 208.71 212.801 210.569 208.332 213.518C203.641 216.612 192.441 221.799 187.27 223.257C184.461 224.053 182.031 224.874 181.852 225.081C181.332 225.698 167.152 225.229 163.34 224.471C161.41 224.085 158.973 223.632 157.922 223.467C151.793 222.495 145.613 220.038 144.203 218.01C144.031 217.757 142.301 216.596 140.371 215.428C138.441 214.257 136.723 213.112 136.543 212.882C136.371 212.647 135.223 211.948 133.992 211.323C132.762 210.698 131.621 209.991 131.441 209.749C131.262 209.507 130.191 208.827 129.051 208.241C123.84 205.565 123.141 205.132 123.141 204.577C123.141 203.819 125.512 203.799 125.98 204.557C126.172 204.87 130.012 205.167 134.512 205.221C139.012 205.272 144.152 205.702 145.953 206.174C147.75 206.647 152.742 207.061 157.07 207.1C161.402 207.135 167.242 207.335 170.043 207.546C173.98 207.839 176.5 207.62 181.012 206.6C184.242 205.87 187.281 205.428 187.77 205.616C189.02 206.092 190.332 204.303 189.852 202.78C189.07 200.346 185.883 199.975 178.473 201.464C172.77 202.612 170.941 202.729 166.43 202.221C163.5 201.897 158.75 201.753 155.852 201.913C152.961 202.073 148.66 201.862 146.281 201.444C143.91 201.022 138.66 200.561 134.633 200.413C130.59 200.264 125.93 199.788 124.262 199.354L121.25 198.561L126.18 197.374C128.902 196.717 132.98 195.389 135.262 194.424C140.301 192.288 148.5 189.194 148.961 189.257C149.152 189.284 150.383 188.897 151.691 188.409C153.012 187.917 157.383 186.874 161.422 186.092C164.613 185.471 166.762 185.132 169.191 184.983ZM108.152 261.526C111.313 261.534 114.172 261.717 114.531 261.936C114.883 262.155 115.742 262.405 116.441 262.491C118.793 262.776 127.902 264.674 130.16 265.35C131.391 265.721 135.32 267.284 138.902 268.823C142.48 270.366 145.852 271.624 146.402 271.624C146.941 271.624 149.332 272.549 151.703 273.678C155.25 275.374 156.711 275.717 160 275.647C162.191 275.6 163.852 275.788 163.68 276.069C163.512 276.346 161.711 277.233 159.691 278.042C150.703 281.624 142.352 289.952 138.203 299.475C137.051 302.108 137.031 302.12 132.813 302.577C126.902 303.217 123.563 303.444 112.93 303.917C99.6211 304.51 87.25 302.526 78.1133 298.339C73.2617 296.112 67.7813 294.608 65.5508 294.889C64.7617 294.991 62.3516 295.538 60.1914 296.112C56.5625 297.073 53.4297 297.124 51.043 296.257C50.5117 296.065 49.2617 295.772 48.2617 295.6C47.2617 295.432 44.461 294.538 42.043 293.612V293.616C38.2695 292.174 37.0703 291.542 37.8008 291.37C38.3203 291.245 45.9531 290.76 51.6719 290.491C55.3633 290.319 59.8125 289.835 61.5703 289.421C63.3203 289.003 68.9219 288.62 74.0117 288.573C80.5625 288.51 84.4102 288.163 87.2031 287.385C89.3711 286.784 92.961 286.132 95.1719 285.936C101.223 285.405 102.082 285.139 102.082 283.815C102.082 280.87 97.6524 280.077 89.3203 281.534C78.4922 283.428 75.8203 283.757 74.1016 283.385C70.5899 282.628 68.1406 282.737 63.961 283.839C61.5899 284.464 57.5 285.135 54.8711 285.335C43.3399 286.202 38.6914 286.608 38.6914 286.018C38.6914 285.682 42.5195 285.026 43.043 285.026C44.0117 285.026 47.3125 283.635 53.8399 280.467C55.9024 279.464 58.0117 278.643 58.5313 278.643C59.0313 278.643 60.2227 278.12 61.1524 277.483C62.082 276.842 64.25 275.799 65.961 275.159C67.6797 274.522 72.4219 272.284 76.4922 270.186C88.1016 264.21 97.9922 261.507 108.152 261.526Z" fill="#1A1A1A"/>
</svg>
