<svg width="42" height="57" viewBox="0 0 42 57" fill="none" xmlns="http://www.w3.org/2000/svg">
<mask id="path-1-inside-1_66_20" fill="white">
<path d="M38.7643 1.63835C38.0984 0.942752 37.1443 0.724258 35.8906 0.979742C35.5121 1.05689 35.1813 1.13305 35.1603 1.15424C35.1365 1.17273 34.9381 1.25858 34.7194 1.34491C34.3216 1.5022 34.3212 1.50175 34.1769 1.16173C33.9111 0.534773 33.1695 0.0512813 32.3987 0.00125955C31.9313 -0.0285652 30.4262 0.48478 30.1346 0.774215C29.7525 1.15291 29.0285 2.65512 28.8919 3.35161C28.8199 3.71854 28.7617 5.08056 28.762 6.37722C28.7625 7.92457 28.7113 8.75864 28.6984 8.86218C28.686 8.96617 28.7725 9.11995 28.8004 9.27293C28.8558 9.57574 28.8608 9.57078 27.6992 10.3194C27.3625 10.5355 27.0667 10.735 27.0462 10.7674C27.0234 10.7976 26.9827 10.8323 26.9544 10.8445C26.6155 10.9959 24.5272 12.8397 23.3346 14.0416L22.2347 15.1501L22.239 13.7239C22.244 12.2652 22.1074 11.2815 21.7591 10.264C21.6505 9.94782 21.5343 9.48444 21.499 9.23471C21.3789 8.36492 20.8679 7.10286 20.4703 6.69216C20.1464 6.35739 20.0584 6.31748 19.7409 6.36392C19.45 6.40626 19.285 6.51636 18.8883 6.92974C18.4764 7.35935 18.3687 7.54766 18.2261 8.08258C18.1329 8.43469 18.0754 9.04959 18.099 9.44967C18.1432 10.1877 18.3742 11.3922 18.4956 11.5126C18.5323 11.549 18.548 11.6147 18.5316 11.6584C18.4714 11.8169 18.9361 13.102 19.3269 13.8583C19.5464 14.2837 19.973 14.919 20.2744 15.27C20.5763 15.6205 20.8491 15.9869 20.8807 16.0827C20.961 16.327 20.334 17.4352 19.8789 17.8541C19.8162 17.9127 19.5473 18.2381 19.282 18.5779C19.0163 18.9172 18.438 19.5924 17.9959 20.0788C17.5537 20.5642 16.9916 21.2322 16.7461 21.563C16.5001 21.8933 16.1438 22.3619 15.9536 22.6035C14.8751 23.974 13.9051 25.3681 13.3757 26.3092C13.158 26.6962 12.8445 27.2395 12.6792 27.5175C12.5135 27.7959 12.1559 28.4198 11.8839 28.905C11.6119 29.3902 11.155 30.1205 10.8686 30.5279C10.5821 30.9361 10.0176 31.7967 9.61331 32.4405C9.20903 33.0844 8.67434 33.8931 8.42396 34.237C8.17402 34.5812 7.94228 34.9552 7.90831 35.0682C7.80514 35.4176 7.74066 35.3984 7.72479 35.0132C7.71679 34.8102 7.7633 34.4672 7.82903 34.2506C7.89387 34.034 7.95794 33.4731 7.97036 33.0032C7.98368 32.5333 8.07673 31.7059 8.17872 31.1638C8.28026 30.6213 8.36765 29.9717 8.3724 29.7197C8.37761 29.4672 8.40903 29.2335 8.44213 29.2002C8.47568 29.1663 8.51115 28.9313 8.52129 28.6766C8.53143 28.4227 8.56555 28.1882 8.5982 28.1553C8.65948 28.0935 8.98888 26.4682 8.96998 26.3215C8.96384 26.2752 9.02071 25.9344 9.09586 25.5643C9.17145 25.1937 9.25563 24.6098 9.28323 24.2659C9.38067 23.0546 9.37846 23.0605 9.82098 22.7087C10.5609 22.1197 11.2629 21.6621 11.5993 21.5504C12.1379 21.3708 13.6828 20.2277 14.5332 19.3779C15.2086 18.7026 15.3363 18.5314 15.4076 18.1995C15.4536 17.9866 15.538 17.6561 15.5953 17.4661C15.8111 16.755 15.2337 14.9368 14.6503 14.4859C13.7956 13.8266 12.9866 13.7118 12.2052 14.1398L11.7952 14.3637L11.4171 13.9886C10.9937 13.5684 9.92115 12.9883 9.52313 12.9638C9.37995 12.955 9.05164 12.9951 8.79365 13.0532C8.38419 13.1452 8.23717 13.2454 7.64398 13.8351C6.981 14.4933 6.96037 14.5059 6.86457 14.2964C6.81118 14.1781 6.5919 13.9426 6.37797 13.7733C6.046 13.5101 5.89949 13.4712 5.3758 13.5054C5.03792 13.5271 4.66043 13.6204 4.53587 13.7124L4.53677 13.7133C3.65725 14.3643 3.4552 14.7355 3.43615 15.7392C3.42256 16.4602 3.48225 16.7261 3.84339 17.5622C4.68756 19.5136 4.92117 19.8098 7.57474 22.2871L8.47827 23.13L8.43976 23.8227C8.41824 24.203 8.19748 25.5622 7.94879 26.8435C7.7001 28.1239 7.45278 29.5551 7.39804 30.0233C7.34375 30.4919 7.24995 31.1226 7.19014 31.4247C7.13033 31.7268 7.08035 32.2364 7.07871 32.5568C7.07798 32.8773 7.02004 33.4112 6.94962 33.7439C6.87964 34.0762 6.82599 35.0151 6.83099 35.8297C6.83914 37.2335 6.82048 37.3465 6.47861 37.9646C6.27917 38.3232 6.02985 38.8407 5.92396 39.1141C5.81852 39.3879 5.63756 39.7505 5.52248 39.9208L5.31284 40.2299L4.99309 39.5378C4.81702 39.1564 4.64836 38.7368 4.6183 38.6041C4.46934 37.9472 3.76412 36.708 2.87935 35.5483C2.06308 34.4771 1.48294 33.8916 1.12532 33.7766C0.819558 33.6781 0.24442 33.909 0.337367 34.0934C0.3688 34.155 0.345562 34.2554 0.286069 34.3154C-0.0793887 34.6837 -0.100423 38.0795 0.256079 39.1865C0.724088 40.6422 1.33288 41.6426 2.22432 42.4224C2.79041 42.9179 2.97334 43.0225 3.42396 43.1109C4.04312 43.2322 4.03934 43.2025 3.5661 44.2709C3.39297 44.6619 3.19184 45.1852 3.11865 45.4346C2.93304 46.0664 2.58524 46.8182 2.16236 47.9508C1.73993 49.0839 1.4385 49.9854 1.3853 50.4104C1.35096 50.6832 1.0922 51.6432 0.809666 52.5429C0.142177 54.6684 0.0709186 55.0119 0.197171 55.4897C0.254769 55.7078 0.258636 55.9711 0.206156 56.0738C0.153677 56.1765 0.171661 56.3205 0.245927 56.3942C0.447892 56.5946 0.777912 56.099 1.05449 55.1817C1.61293 53.3283 1.72835 52.9946 1.82498 52.9724C1.88116 52.9592 1.89303 52.9138 1.85002 52.8711C1.75447 52.7763 2.23043 51.2722 2.35645 51.272C2.40686 51.2719 2.41296 51.2377 2.37129 51.1964C2.32963 51.155 2.47396 50.6899 2.69171 50.1625C3.18711 48.9649 3.44372 48.3141 3.51823 48.0615C3.61349 47.7418 3.74717 47.6696 4.0911 47.754C5.15173 48.0138 7.81722 47.5899 9.33034 46.9208C10.8942 46.2286 11.6668 45.5342 11.8379 44.6662C11.9719 43.9877 11.815 43.4376 11.4262 43.2235C11.0067 42.9924 9.58223 43.0785 9.39123 43.3462C9.36982 43.3768 9.29472 43.3882 9.22576 43.3726C9.1559 43.356 8.70882 43.4787 8.23186 43.6452C7.31789 43.9631 6.18971 44.5784 5.43181 45.172C5.18276 45.3668 4.77604 45.6862 4.52745 45.8824L4.07595 46.2378L4.45457 45.1525C4.77702 44.2297 5.17752 43.4113 5.43181 42.6768C5.68566 41.9427 5.88427 41.3024 6.04954 40.9502C6.21481 40.5979 6.47235 40.0259 6.62234 39.6782C6.77234 39.3314 6.94492 38.9963 7.00576 38.9349C7.06704 38.8732 7.10606 38.7768 7.09175 38.7197C7.07096 38.6319 7.31555 38.2233 7.67361 37.7501C7.7254 37.6816 7.89534 37.3564 8.04995 37.0276C8.39028 36.3051 8.94174 35.2947 9.59838 34.19C10.0706 33.3962 10.0956 33.3691 10.3544 33.3682C10.5016 33.3684 10.6549 33.3344 10.6956 33.2934C10.7363 33.2524 11.0238 33.3167 11.3351 33.4359C12.1521 33.7501 12.814 33.7134 14.7816 33.2456C15.4625 33.0838 16.5897 32.761 17.2873 32.5281L18.5544 32.1052L19.2423 31.3992C20.3757 30.2406 20.514 30.0468 20.469 29.6846C20.3862 29.0299 19.6967 28.7358 18.5485 28.8669C17.68 28.966 15.3098 29.7598 14.7683 30.1325C14.5868 30.2575 13.9759 30.5254 13.4109 30.728C12.8451 30.9305 12.0846 31.2505 11.7212 31.4392C11.0846 31.7702 11.0675 31.772 11.2607 31.494C12.2404 30.0863 12.5677 29.5844 12.7477 29.2155C12.9637 28.7713 13.4293 28.1499 13.9026 27.6729C14.2005 27.3727 15.9538 26.4552 16.8206 26.1459C17.955 25.7417 18.7619 25.4293 18.9821 25.3106C19.2051 25.19 20.0024 24.9281 21.1521 24.5981C21.9011 24.3831 22.1468 24.3003 22.9326 24.001C23.5257 23.7745 23.6243 23.7712 23.9536 23.9665C24.2183 24.1226 24.4226 24.3397 24.6984 24.7565C24.98 25.1836 25.2129 25.428 25.6003 25.706C25.8874 25.9121 26.1526 26.0876 26.191 26.097C26.2284 26.1055 26.4179 26.2523 26.6115 26.423C26.8052 26.5937 27.1124 26.7841 27.2933 26.8454C27.5806 26.9426 28.8781 27.1502 29.4179 27.2456C29.9586 27.341 30.2807 27.3985 31.0255 27.4531C31.9558 27.5208 33.1691 27.355 33.3847 27.1377C33.5859 26.9285 33.6507 26.5508 33.4399 26.151C33.2286 25.7517 33.0599 25.5486 32.6681 25.2225C32.0131 24.6772 32.0714 24.7288 31.973 24.6106C31.9145 24.5401 31.9971 24.4297 32.2561 24.2321C32.6857 23.9042 33.3895 22.9268 33.5833 22.3909C33.7418 21.9505 33.7425 21.0503 33.5841 20.9718C33.524 20.9417 33.4818 20.8095 33.4904 20.6767C33.5069 20.4264 32.8258 19.153 32.5088 18.843C32.1298 18.4714 30.8138 17.9654 30.1561 17.9382C29.8009 17.9239 29.7647 17.8997 29.6323 17.583C29.5533 17.3964 29.3209 17.0772 29.1166 16.8746C28.5746 16.3368 27.9423 16.1942 27.0466 16.4068L26.3248 16.5773C25.3824 17.1756 24.4277 17.9041 24.1298 18.7894L23.873 19.5545C23.6878 20.1044 23.6186 20.6423 23.6277 21.4655C23.6347 22.096 23.5789 22.674 23.5037 22.7498C23.3811 22.8733 22.8389 23.1091 21.7508 23.512C21.5442 23.5879 20.9602 23.7662 20.453 23.9079C19.4011 24.2009 17.8826 24.7197 17.4428 24.9364C17.4154 24.9495 16.9695 25.1128 16.4522 25.2982C15.9344 25.484 15.4055 25.6991 15.2772 25.7767C15.1485 25.8539 15.0114 25.8861 14.973 25.8479C14.9345 25.8097 14.9545 25.766 15.0178 25.7511C15.0803 25.7361 15.2834 25.4635 15.4687 25.1454C15.6531 24.8274 15.9224 24.4182 16.0667 24.2357C16.2105 24.0537 16.396 23.7743 16.4787 23.6148C16.5615 23.4563 16.7219 23.195 16.8343 23.0345C16.9477 22.8741 17.0665 22.6511 17.1 22.5395C17.1335 22.4269 17.4519 22.0118 17.8073 21.6165C18.6307 20.7006 19.2125 20.0128 20.4825 18.453C21.7856 16.8535 24.073 14.3725 24.8458 13.7213C25.1745 13.4453 25.808 12.8893 26.2524 12.4867C26.9954 11.8157 28.4793 10.7024 29.2698 10.4311C30.0602 10.1597 30.9381 9.89811 31.2425 9.98987C31.4657 10.0575 32.2119 10.1975 32.4857 10.2232C32.5604 10.2303 32.8818 10.3058 33.2001 10.3908C34.1094 10.6336 35.2309 10.8411 35.4481 10.806C35.5573 10.7883 35.9745 10.7701 36.3746 10.7653C37.5654 10.7516 38.4339 10.6624 38.4594 10.5508C38.473 10.4936 38.5351 10.498 38.5985 10.5609C38.6619 10.6238 38.7448 10.6444 38.782 10.6069C38.8195 10.5691 38.9359 10.5369 39.0421 10.5358C39.534 10.5292 40.3206 10.1367 40.7957 9.67057C41.2364 9.23282 41.2835 9.13912 41.3952 8.48588C41.6294 7.11412 40.9799 6.01882 39.6725 5.58128C38.9062 5.32467 38.9117 5.33906 39.2443 4.46491C39.6483 3.40297 39.4746 2.37979 38.7643 1.63835ZM38.0088 1.88536C38.3696 2.144 38.6576 2.79747 38.635 3.30654C38.5967 4.1703 37.4037 6.25298 36.453 7.116C35.3425 8.12377 33.7138 8.8052 32.6681 8.70073C32.3109 8.66487 31.6726 8.63713 31.2499 8.63919L30.4808 8.64272L30.6834 7.93127C31.0223 6.74116 31.9562 5.13239 33.0386 3.87487C33.3559 3.50618 33.6267 3.18258 33.6386 3.15511C33.6853 3.05736 34.5742 2.39067 34.972 2.15642C35.9048 1.60577 37.4279 1.47001 38.0088 1.88536ZM40.3487 6.86691C40.6301 7.17744 40.6365 8.43359 40.3589 8.74235C39.9905 9.15163 39.5395 9.5183 39.3149 9.59068C38.1389 9.97071 34.7226 10.1461 34.0583 9.86005C33.8728 9.7807 33.6136 9.70687 33.4825 9.69673L33.4803 9.69449C33.1061 9.66496 33.3233 9.56648 34.1194 9.40447C34.5226 9.32234 35.0439 9.18194 35.2769 9.09199C35.7852 8.89671 37.1966 7.93075 37.413 7.63019C38.0044 6.81502 38.1319 6.68653 38.5734 6.46076C39.2702 6.10539 39.7605 6.21709 40.3487 6.86691ZM33.2065 1.01483C33.3639 1.14329 33.4869 1.31546 33.5648 1.52866L33.7035 1.91144L33.0363 2.54041C32.5548 2.99399 32.1769 3.4627 31.6797 4.2228C30.4958 6.03182 30.2282 6.50619 30.0118 7.17536C29.897 7.53291 29.7861 7.80855 29.7662 7.78878C29.7458 7.76856 29.7256 7.40313 29.7203 6.97647C29.7154 6.54936 29.6826 6.04353 29.6477 5.85141C29.5844 5.51036 29.7207 4.1131 30.2281 2.74943C30.7365 1.38576 30.7839 1.33347 31.1906 1.0911C31.9556 0.635252 32.7347 0.629902 33.2065 1.01483ZM19.9136 7.21967C20.1586 7.46276 20.3778 8.05694 20.7466 9.47585C21.3241 11.6951 21.4152 12.2346 21.3513 13.0372L21.3203 13.4216L21.1497 13.1172C21.0555 12.9495 20.9786 12.7452 20.9777 12.6629C20.9761 12.4135 20.6098 12.1306 20.2722 12.1195C19.8828 12.1062 19.8359 12.3074 20.1064 12.8327C20.4025 13.4092 20.7066 14.5527 20.5635 14.553C20.4554 14.5532 19.6109 12.8983 19.538 12.5433C19.5032 12.3746 19.3692 11.8775 19.2396 11.4384C19.11 10.9994 18.9985 10.5166 18.9913 10.3663C18.9845 10.2156 18.9539 10.068 18.924 10.0383C18.8131 9.92825 18.8972 8.74487 19.055 8.19552C19.1453 7.88256 19.3392 7.49968 19.4854 7.34326C19.7139 7.10029 19.775 7.08218 19.9136 7.21967ZM32.2626 19.5747C32.8196 20.1918 33.1161 21.2813 32.8201 22.0353C32.746 22.2231 32.4628 22.6425 32.1907 22.9675C31.4825 23.8144 31.1132 23.9158 28.6132 23.9519C26.6443 23.9809 26.5483 23.9698 25.968 23.6481C25.637 23.4636 25.2676 23.2725 25.1476 23.2223C24.8737 23.1089 24.88 22.7484 25.1629 22.3374C25.8066 21.4034 27.7263 19.6642 28.5543 19.2654C29.3648 18.8761 30.3415 18.7422 30.9571 18.936C31.1108 18.9848 31.4139 19.0788 31.6308 19.1455C31.8621 19.2158 32.0764 19.3694 32.2626 19.5747ZM28.7117 17.3298C28.8572 17.4367 28.9648 17.5792 28.9864 17.7205C29.0224 17.9495 28.9947 17.9721 28.2014 18.3758C27.4175 18.7745 27.3119 18.8629 25.8978 20.2753L24.4153 21.7567L24.4054 21.304C24.3998 21.0551 24.5023 20.5189 24.6334 20.1123C24.8644 19.3958 24.8988 19.3467 25.779 18.4478C26.6611 17.5461 26.7041 17.5155 27.325 17.3335C27.6763 17.2303 28.0741 17.1473 28.2092 17.1489C28.3825 17.1508 28.5661 17.223 28.7117 17.3298ZM31.4549 24.7335C31.4906 24.7609 31.5201 24.7982 31.551 24.8476C31.6291 24.9726 31.9265 25.3178 32.2119 25.6144C32.4973 25.9118 32.7313 26.1977 32.7311 26.2494C32.7331 26.501 30.8874 26.6549 29.9708 26.48C29.7149 26.4309 29.2936 26.3591 29.0341 26.3209C27.661 26.117 27.1692 25.9896 26.8766 25.761C26.7025 25.6249 26.416 25.4408 26.2404 25.3516C25.8833 25.1708 25.3206 24.6429 25.1617 24.3412C25.1043 24.2314 25.0873 24.1126 25.124 24.0757C25.1849 24.0144 26.1468 24.475 26.5004 24.7354C26.6292 24.8302 28.3248 24.844 28.4165 24.7516C28.4657 24.702 28.5417 24.696 28.5852 24.7392C28.6286 24.7823 28.8461 24.8013 29.0684 24.782C29.2915 24.7627 29.6166 24.7829 29.7906 24.8276C29.965 24.8719 30.4001 24.8437 30.7583 24.7643C31.184 24.6705 31.3477 24.6531 31.4549 24.7335ZM14.1287 15.0034C14.2168 15.1365 14.3462 15.3204 14.4166 15.4134C14.5872 15.64 14.7636 16.4485 14.7514 16.9526C14.7383 17.5192 14.5078 18.0377 14.0065 18.6281C13.6052 19.1004 13.2469 19.3945 11.9433 20.3225C11.3469 20.747 11.0519 20.7979 11.4739 20.4034C11.623 20.264 11.7447 20.0726 11.7441 19.9789C11.7435 19.8844 11.7994 19.7511 11.8683 19.6817C12.0642 19.4842 12.4023 18.0938 12.4074 17.4664C12.4095 17.1545 12.3378 16.5448 12.2465 16.1115C12.1561 15.6783 12.0869 15.3251 12.0923 15.3259C12.099 15.3273 12.3332 15.1937 12.6125 15.0289C13.2507 14.6539 13.8893 14.6433 14.1287 15.0034ZM10.5909 14.2343C10.9235 14.5394 11.1565 14.9558 11.2726 15.4592C11.3433 15.7674 11.4279 16.0463 11.4605 16.0786C11.4935 16.1114 11.5348 16.5299 11.5517 17.0092C11.5754 17.6492 11.5075 18.098 11.297 18.697C11.036 19.4391 10.9513 19.5725 10.3577 20.1761C9.36336 21.1864 9.00136 21.5304 8.96694 21.4963C8.90989 21.4397 8.46787 20.4061 8.26191 19.8484C8.1507 19.5484 7.86623 18.8107 7.62895 18.2094C7.39076 17.6062 7.20255 16.9337 7.20882 16.7082C7.2217 16.2396 7.50407 15.4605 7.8882 14.8334C8.1872 14.3446 8.19973 14.3319 8.74887 13.9723C9.22405 13.661 9.68582 13.6593 10.2256 13.9685C10.3584 14.0439 10.48 14.1332 10.5909 14.2343ZM6.45144 14.7444C6.71282 15.0181 6.73625 15.0959 6.61909 15.2937C6.5447 15.4203 6.51311 15.5535 6.54934 15.5895C6.58557 15.6254 6.57743 15.6925 6.53091 15.7394C6.32335 15.9486 6.34541 17.0503 6.56851 17.6143C6.94339 18.5625 7.31434 19.6042 7.30813 19.6911C7.3048 19.7352 7.3568 19.8485 7.42399 19.9429C7.49073 20.0369 7.66147 20.4309 7.80337 20.8177L8.06108 21.5207L7.59494 21.1772C6.91404 20.6761 5.8454 19.6238 5.76782 19.3777C5.73065 19.2612 5.57463 18.9928 5.42165 18.781C5.26823 18.5698 4.97309 18.0014 4.7658 17.5183C4.45484 16.792 4.39409 16.5009 4.41612 15.8365C4.44075 15.0826 4.46596 15.0101 4.82203 14.6513C5.11278 14.3582 5.28324 14.2643 5.55094 14.249C5.92933 14.2282 5.99301 14.2636 6.45144 14.7444ZM19.392 29.7539C19.4156 29.7872 19.3961 29.843 19.3522 29.9489C19.3012 30.0727 18.9969 30.44 18.6817 30.7696C18.1128 31.3583 18.089 31.3714 16.9694 31.6991C16.3454 31.8825 15.7887 32.0531 15.7327 32.0797C15.6766 32.1055 15.348 32.1866 15.0033 32.2596C14.6581 32.3331 14.34 32.4281 14.2966 32.4719C14.2532 32.5156 14.1812 32.5157 14.1364 32.4712C13.9235 32.2601 13.2449 32.1316 12.7192 32.2031C12.0375 32.2961 12.1524 32.1104 12.9318 31.8602C13.6662 31.6245 14.3724 31.334 14.6629 31.1462C15.7819 30.4261 18.2956 29.6198 19.1747 29.7003C19.3026 29.7118 19.3688 29.7211 19.392 29.7539ZM11.1189 44.054C11.1702 44.1934 11.0969 44.4177 10.9021 44.7326C10.6757 45.0984 10.5195 45.2459 10.0863 45.504C9.33295 45.9518 8.73461 46.216 8.08755 46.3882C7.78109 46.4697 7.51694 46.5502 7.49949 46.5678C7.4476 46.6201 5.07794 46.9886 5.04035 46.9513C5.02133 46.9325 5.97411 46.7792 6.39072 46.5323C6.80688 46.285 7.37087 46.0698 7.19634 45.9405C7.02136 45.8107 5.30602 46.1637 5.31549 46.1668C5.32224 46.1673 6.42184 45.588 6.80122 45.3614C7.79137 44.7693 8.21126 44.5444 8.52433 44.44C8.67525 44.3893 8.9505 44.284 9.13455 44.2054C9.3186 44.1267 9.4948 44.0877 9.52514 44.1178C9.55548 44.1479 9.63004 44.1235 9.69043 44.0626C9.75082 44.0018 9.83308 43.985 9.87429 44.0259C9.91504 44.0663 9.99242 44.0608 10.0425 44.0103C10.094 43.9612 10.3416 43.9045 10.5922 43.8847C10.8936 43.8608 11.0681 43.915 11.1189 44.054ZM1.51564 35.0406C1.692 35.2487 1.92199 35.5431 2.22595 35.9351C2.95861 36.8777 3.34663 37.5463 3.8822 38.7898C4.01095 39.0876 4.14103 39.3079 4.17055 39.2781C4.20098 39.2493 4.2138 39.2853 4.2003 39.3586C4.18679 39.432 4.2705 39.7969 4.38575 40.1689C4.61164 40.895 4.73771 41.7832 4.61573 41.7829C4.53607 41.7835 4.02934 40.9846 3.63135 40.2318C3.30713 39.6194 2.98688 39.4331 2.71894 39.7032C2.54851 39.8749 2.54554 39.9776 2.70213 40.3369C2.80439 40.5726 3.14033 41.1161 3.44812 41.545C3.7559 41.9739 4.00958 42.3866 4.01184 42.4613C4.01415 42.5459 3.97869 42.5608 3.9171 42.4997C3.86322 42.4463 3.67982 42.4119 3.51022 42.4243C3.23129 42.4446 3.13549 42.3818 2.52549 41.772C2.01196 41.2598 1.77462 40.942 1.53848 40.4536C1.05023 39.4413 0.860508 38.888 0.793302 38.2774C0.758986 37.966 0.712532 37.7302 0.689271 37.7537C0.601597 37.8421 0.685733 35.6352 0.786143 35.2016L0.787048 35.2025C0.934383 34.5677 0.986112 34.4159 1.51564 35.0406Z"/>
</mask>
<path d="M38.7643 1.63835C38.0984 0.942752 37.1443 0.724258 35.8906 0.979742C35.5121 1.05689 35.1813 1.13305 35.1603 1.15424C35.1365 1.17273 34.9381 1.25858 34.7194 1.34491C34.3216 1.5022 34.3212 1.50175 34.1769 1.16173C33.9111 0.534773 33.1695 0.0512813 32.3987 0.00125955C31.9313 -0.0285652 30.4262 0.48478 30.1346 0.774215C29.7525 1.15291 29.0285 2.65512 28.8919 3.35161C28.8199 3.71854 28.7617 5.08056 28.762 6.37722C28.7625 7.92457 28.7113 8.75864 28.6984 8.86218C28.686 8.96617 28.7725 9.11995 28.8004 9.27293C28.8558 9.57574 28.8608 9.57078 27.6992 10.3194C27.3625 10.5355 27.0667 10.735 27.0462 10.7674C27.0234 10.7976 26.9827 10.8323 26.9544 10.8445C26.6155 10.9959 24.5272 12.8397 23.3346 14.0416L22.2347 15.1501L22.239 13.7239C22.244 12.2652 22.1074 11.2815 21.7591 10.264C21.6505 9.94782 21.5343 9.48444 21.499 9.23471C21.3789 8.36492 20.8679 7.10286 20.4703 6.69216C20.1464 6.35739 20.0584 6.31748 19.7409 6.36392C19.45 6.40626 19.285 6.51636 18.8883 6.92974C18.4764 7.35935 18.3687 7.54766 18.2261 8.08258C18.1329 8.43469 18.0754 9.04959 18.099 9.44967C18.1432 10.1877 18.3742 11.3922 18.4956 11.5126C18.5323 11.549 18.548 11.6147 18.5316 11.6584C18.4714 11.8169 18.9361 13.102 19.3269 13.8583C19.5464 14.2837 19.973 14.919 20.2744 15.27C20.5763 15.6205 20.8491 15.9869 20.8807 16.0827C20.961 16.327 20.334 17.4352 19.8789 17.8541C19.8162 17.9127 19.5473 18.2381 19.282 18.5779C19.0163 18.9172 18.438 19.5924 17.9959 20.0788C17.5537 20.5642 16.9916 21.2322 16.7461 21.563C16.5001 21.8933 16.1438 22.3619 15.9536 22.6035C14.8751 23.974 13.9051 25.3681 13.3757 26.3092C13.158 26.6962 12.8445 27.2395 12.6792 27.5175C12.5135 27.7959 12.1559 28.4198 11.8839 28.905C11.6119 29.3902 11.155 30.1205 10.8686 30.5279C10.5821 30.9361 10.0176 31.7967 9.61331 32.4405C9.20903 33.0844 8.67434 33.8931 8.42396 34.237C8.17402 34.5812 7.94228 34.9552 7.90831 35.0682C7.80514 35.4176 7.74066 35.3984 7.72479 35.0132C7.71679 34.8102 7.7633 34.4672 7.82903 34.2506C7.89387 34.034 7.95794 33.4731 7.97036 33.0032C7.98368 32.5333 8.07673 31.7059 8.17872 31.1638C8.28026 30.6213 8.36765 29.9717 8.3724 29.7197C8.37761 29.4672 8.40903 29.2335 8.44213 29.2002C8.47568 29.1663 8.51115 28.9313 8.52129 28.6766C8.53143 28.4227 8.56555 28.1882 8.5982 28.1553C8.65948 28.0935 8.98888 26.4682 8.96998 26.3215C8.96384 26.2752 9.02071 25.9344 9.09586 25.5643C9.17145 25.1937 9.25563 24.6098 9.28323 24.2659C9.38067 23.0546 9.37846 23.0605 9.82098 22.7087C10.5609 22.1197 11.2629 21.6621 11.5993 21.5504C12.1379 21.3708 13.6828 20.2277 14.5332 19.3779C15.2086 18.7026 15.3363 18.5314 15.4076 18.1995C15.4536 17.9866 15.538 17.6561 15.5953 17.4661C15.8111 16.755 15.2337 14.9368 14.6503 14.4859C13.7956 13.8266 12.9866 13.7118 12.2052 14.1398L11.7952 14.3637L11.4171 13.9886C10.9937 13.5684 9.92115 12.9883 9.52313 12.9638C9.37995 12.955 9.05164 12.9951 8.79365 13.0532C8.38419 13.1452 8.23717 13.2454 7.64398 13.8351C6.981 14.4933 6.96037 14.5059 6.86457 14.2964C6.81118 14.1781 6.5919 13.9426 6.37797 13.7733C6.046 13.5101 5.89949 13.4712 5.3758 13.5054C5.03792 13.5271 4.66043 13.6204 4.53587 13.7124L4.53677 13.7133C3.65725 14.3643 3.4552 14.7355 3.43615 15.7392C3.42256 16.4602 3.48225 16.7261 3.84339 17.5622C4.68756 19.5136 4.92117 19.8098 7.57474 22.2871L8.47827 23.13L8.43976 23.8227C8.41824 24.203 8.19748 25.5622 7.94879 26.8435C7.7001 28.1239 7.45278 29.5551 7.39804 30.0233C7.34375 30.4919 7.24995 31.1226 7.19014 31.4247C7.13033 31.7268 7.08035 32.2364 7.07871 32.5568C7.07798 32.8773 7.02004 33.4112 6.94962 33.7439C6.87964 34.0762 6.82599 35.0151 6.83099 35.8297C6.83914 37.2335 6.82048 37.3465 6.47861 37.9646C6.27917 38.3232 6.02985 38.8407 5.92396 39.1141C5.81852 39.3879 5.63756 39.7505 5.52248 39.9208L5.31284 40.2299L4.99309 39.5378C4.81702 39.1564 4.64836 38.7368 4.6183 38.6041C4.46934 37.9472 3.76412 36.708 2.87935 35.5483C2.06308 34.4771 1.48294 33.8916 1.12532 33.7766C0.819558 33.6781 0.24442 33.909 0.337367 34.0934C0.3688 34.155 0.345562 34.2554 0.286069 34.3154C-0.0793887 34.6837 -0.100423 38.0795 0.256079 39.1865C0.724088 40.6422 1.33288 41.6426 2.22432 42.4224C2.79041 42.9179 2.97334 43.0225 3.42396 43.1109C4.04312 43.2322 4.03934 43.2025 3.5661 44.2709C3.39297 44.6619 3.19184 45.1852 3.11865 45.4346C2.93304 46.0664 2.58524 46.8182 2.16236 47.9508C1.73993 49.0839 1.4385 49.9854 1.3853 50.4104C1.35096 50.6832 1.0922 51.6432 0.809666 52.5429C0.142177 54.6684 0.0709186 55.0119 0.197171 55.4897C0.254769 55.7078 0.258636 55.9711 0.206156 56.0738C0.153677 56.1765 0.171661 56.3205 0.245927 56.3942C0.447892 56.5946 0.777912 56.099 1.05449 55.1817C1.61293 53.3283 1.72835 52.9946 1.82498 52.9724C1.88116 52.9592 1.89303 52.9138 1.85002 52.8711C1.75447 52.7763 2.23043 51.2722 2.35645 51.272C2.40686 51.2719 2.41296 51.2377 2.37129 51.1964C2.32963 51.155 2.47396 50.6899 2.69171 50.1625C3.18711 48.9649 3.44372 48.3141 3.51823 48.0615C3.61349 47.7418 3.74717 47.6696 4.0911 47.754C5.15173 48.0138 7.81722 47.5899 9.33034 46.9208C10.8942 46.2286 11.6668 45.5342 11.8379 44.6662C11.9719 43.9877 11.815 43.4376 11.4262 43.2235C11.0067 42.9924 9.58223 43.0785 9.39123 43.3462C9.36982 43.3768 9.29472 43.3882 9.22576 43.3726C9.1559 43.356 8.70882 43.4787 8.23186 43.6452C7.31789 43.9631 6.18971 44.5784 5.43181 45.172C5.18276 45.3668 4.77604 45.6862 4.52745 45.8824L4.07595 46.2378L4.45457 45.1525C4.77702 44.2297 5.17752 43.4113 5.43181 42.6768C5.68566 41.9427 5.88427 41.3024 6.04954 40.9502C6.21481 40.5979 6.47235 40.0259 6.62234 39.6782C6.77234 39.3314 6.94492 38.9963 7.00576 38.9349C7.06704 38.8732 7.10606 38.7768 7.09175 38.7197C7.07096 38.6319 7.31555 38.2233 7.67361 37.7501C7.7254 37.6816 7.89534 37.3564 8.04995 37.0276C8.39028 36.3051 8.94174 35.2947 9.59838 34.19C10.0706 33.3962 10.0956 33.3691 10.3544 33.3682C10.5016 33.3684 10.6549 33.3344 10.6956 33.2934C10.7363 33.2524 11.0238 33.3167 11.3351 33.4359C12.1521 33.7501 12.814 33.7134 14.7816 33.2456C15.4625 33.0838 16.5897 32.761 17.2873 32.5281L18.5544 32.1052L19.2423 31.3992C20.3757 30.2406 20.514 30.0468 20.469 29.6846C20.3862 29.0299 19.6967 28.7358 18.5485 28.8669C17.68 28.966 15.3098 29.7598 14.7683 30.1325C14.5868 30.2575 13.9759 30.5254 13.4109 30.728C12.8451 30.9305 12.0846 31.2505 11.7212 31.4392C11.0846 31.7702 11.0675 31.772 11.2607 31.494C12.2404 30.0863 12.5677 29.5844 12.7477 29.2155C12.9637 28.7713 13.4293 28.1499 13.9026 27.6729C14.2005 27.3727 15.9538 26.4552 16.8206 26.1459C17.955 25.7417 18.7619 25.4293 18.9821 25.3106C19.2051 25.19 20.0024 24.9281 21.1521 24.5981C21.9011 24.3831 22.1468 24.3003 22.9326 24.001C23.5257 23.7745 23.6243 23.7712 23.9536 23.9665C24.2183 24.1226 24.4226 24.3397 24.6984 24.7565C24.98 25.1836 25.2129 25.428 25.6003 25.706C25.8874 25.9121 26.1526 26.0876 26.191 26.097C26.2284 26.1055 26.4179 26.2523 26.6115 26.423C26.8052 26.5937 27.1124 26.7841 27.2933 26.8454C27.5806 26.9426 28.8781 27.1502 29.4179 27.2456C29.9586 27.341 30.2807 27.3985 31.0255 27.4531C31.9558 27.5208 33.1691 27.355 33.3847 27.1377C33.5859 26.9285 33.6507 26.5508 33.4399 26.151C33.2286 25.7517 33.0599 25.5486 32.6681 25.2225C32.0131 24.6772 32.0714 24.7288 31.973 24.6106C31.9145 24.5401 31.9971 24.4297 32.2561 24.2321C32.6857 23.9042 33.3895 22.9268 33.5833 22.3909C33.7418 21.9505 33.7425 21.0503 33.5841 20.9718C33.524 20.9417 33.4818 20.8095 33.4904 20.6767C33.5069 20.4264 32.8258 19.153 32.5088 18.843C32.1298 18.4714 30.8138 17.9654 30.1561 17.9382C29.8009 17.9239 29.7647 17.8997 29.6323 17.583C29.5533 17.3964 29.3209 17.0772 29.1166 16.8746C28.5746 16.3368 27.9423 16.1942 27.0466 16.4068L26.3248 16.5773C25.3824 17.1756 24.4277 17.9041 24.1298 18.7894L23.873 19.5545C23.6878 20.1044 23.6186 20.6423 23.6277 21.4655C23.6347 22.096 23.5789 22.674 23.5037 22.7498C23.3811 22.8733 22.8389 23.1091 21.7508 23.512C21.5442 23.5879 20.9602 23.7662 20.453 23.9079C19.4011 24.2009 17.8826 24.7197 17.4428 24.9364C17.4154 24.9495 16.9695 25.1128 16.4522 25.2982C15.9344 25.484 15.4055 25.6991 15.2772 25.7767C15.1485 25.8539 15.0114 25.8861 14.973 25.8479C14.9345 25.8097 14.9545 25.766 15.0178 25.7511C15.0803 25.7361 15.2834 25.4635 15.4687 25.1454C15.6531 24.8274 15.9224 24.4182 16.0667 24.2357C16.2105 24.0537 16.396 23.7743 16.4787 23.6148C16.5615 23.4563 16.7219 23.195 16.8343 23.0345C16.9477 22.8741 17.0665 22.6511 17.1 22.5395C17.1335 22.4269 17.4519 22.0118 17.8073 21.6165C18.6307 20.7006 19.2125 20.0128 20.4825 18.453C21.7856 16.8535 24.073 14.3725 24.8458 13.7213C25.1745 13.4453 25.808 12.8893 26.2524 12.4867C26.9954 11.8157 28.4793 10.7024 29.2698 10.4311C30.0602 10.1597 30.9381 9.89811 31.2425 9.98987C31.4657 10.0575 32.2119 10.1975 32.4857 10.2232C32.5604 10.2303 32.8818 10.3058 33.2001 10.3908C34.1094 10.6336 35.2309 10.8411 35.4481 10.806C35.5573 10.7883 35.9745 10.7701 36.3746 10.7653C37.5654 10.7516 38.4339 10.6624 38.4594 10.5508C38.473 10.4936 38.5351 10.498 38.5985 10.5609C38.6619 10.6238 38.7448 10.6444 38.782 10.6069C38.8195 10.5691 38.9359 10.5369 39.0421 10.5358C39.534 10.5292 40.3206 10.1367 40.7957 9.67057C41.2364 9.23282 41.2835 9.13912 41.3952 8.48588C41.6294 7.11412 40.9799 6.01882 39.6725 5.58128C38.9062 5.32467 38.9117 5.33906 39.2443 4.46491C39.6483 3.40297 39.4746 2.37979 38.7643 1.63835ZM38.0088 1.88536C38.3696 2.144 38.6576 2.79747 38.635 3.30654C38.5967 4.1703 37.4037 6.25298 36.453 7.116C35.3425 8.12377 33.7138 8.8052 32.6681 8.70073C32.3109 8.66487 31.6726 8.63713 31.2499 8.63919L30.4808 8.64272L30.6834 7.93127C31.0223 6.74116 31.9562 5.13239 33.0386 3.87487C33.3559 3.50618 33.6267 3.18258 33.6386 3.15511C33.6853 3.05736 34.5742 2.39067 34.972 2.15642C35.9048 1.60577 37.4279 1.47001 38.0088 1.88536ZM40.3487 6.86691C40.6301 7.17744 40.6365 8.43359 40.3589 8.74235C39.9905 9.15163 39.5395 9.5183 39.3149 9.59068C38.1389 9.97071 34.7226 10.1461 34.0583 9.86005C33.8728 9.7807 33.6136 9.70687 33.4825 9.69673L33.4803 9.69449C33.1061 9.66496 33.3233 9.56648 34.1194 9.40447C34.5226 9.32234 35.0439 9.18194 35.2769 9.09199C35.7852 8.89671 37.1966 7.93075 37.413 7.63019C38.0044 6.81502 38.1319 6.68653 38.5734 6.46076C39.2702 6.10539 39.7605 6.21709 40.3487 6.86691ZM33.2065 1.01483C33.3639 1.14329 33.4869 1.31546 33.5648 1.52866L33.7035 1.91144L33.0363 2.54041C32.5548 2.99399 32.1769 3.4627 31.6797 4.2228C30.4958 6.03182 30.2282 6.50619 30.0118 7.17536C29.897 7.53291 29.7861 7.80855 29.7662 7.78878C29.7458 7.76856 29.7256 7.40313 29.7203 6.97647C29.7154 6.54936 29.6826 6.04353 29.6477 5.85141C29.5844 5.51036 29.7207 4.1131 30.2281 2.74943C30.7365 1.38576 30.7839 1.33347 31.1906 1.0911C31.9556 0.635252 32.7347 0.629902 33.2065 1.01483ZM19.9136 7.21967C20.1586 7.46276 20.3778 8.05694 20.7466 9.47585C21.3241 11.6951 21.4152 12.2346 21.3513 13.0372L21.3203 13.4216L21.1497 13.1172C21.0555 12.9495 20.9786 12.7452 20.9777 12.6629C20.9761 12.4135 20.6098 12.1306 20.2722 12.1195C19.8828 12.1062 19.8359 12.3074 20.1064 12.8327C20.4025 13.4092 20.7066 14.5527 20.5635 14.553C20.4554 14.5532 19.6109 12.8983 19.538 12.5433C19.5032 12.3746 19.3692 11.8775 19.2396 11.4384C19.11 10.9994 18.9985 10.5166 18.9913 10.3663C18.9845 10.2156 18.9539 10.068 18.924 10.0383C18.8131 9.92825 18.8972 8.74487 19.055 8.19552C19.1453 7.88256 19.3392 7.49968 19.4854 7.34326C19.7139 7.10029 19.775 7.08218 19.9136 7.21967ZM32.2626 19.5747C32.8196 20.1918 33.1161 21.2813 32.8201 22.0353C32.746 22.2231 32.4628 22.6425 32.1907 22.9675C31.4825 23.8144 31.1132 23.9158 28.6132 23.9519C26.6443 23.9809 26.5483 23.9698 25.968 23.6481C25.637 23.4636 25.2676 23.2725 25.1476 23.2223C24.8737 23.1089 24.88 22.7484 25.1629 22.3374C25.8066 21.4034 27.7263 19.6642 28.5543 19.2654C29.3648 18.8761 30.3415 18.7422 30.9571 18.936C31.1108 18.9848 31.4139 19.0788 31.6308 19.1455C31.8621 19.2158 32.0764 19.3694 32.2626 19.5747ZM28.7117 17.3298C28.8572 17.4367 28.9648 17.5792 28.9864 17.7205C29.0224 17.9495 28.9947 17.9721 28.2014 18.3758C27.4175 18.7745 27.3119 18.8629 25.8978 20.2753L24.4153 21.7567L24.4054 21.304C24.3998 21.0551 24.5023 20.5189 24.6334 20.1123C24.8644 19.3958 24.8988 19.3467 25.779 18.4478C26.6611 17.5461 26.7041 17.5155 27.325 17.3335C27.6763 17.2303 28.0741 17.1473 28.2092 17.1489C28.3825 17.1508 28.5661 17.223 28.7117 17.3298ZM31.4549 24.7335C31.4906 24.7609 31.5201 24.7982 31.551 24.8476C31.6291 24.9726 31.9265 25.3178 32.2119 25.6144C32.4973 25.9118 32.7313 26.1977 32.7311 26.2494C32.7331 26.501 30.8874 26.6549 29.9708 26.48C29.7149 26.4309 29.2936 26.3591 29.0341 26.3209C27.661 26.117 27.1692 25.9896 26.8766 25.761C26.7025 25.6249 26.416 25.4408 26.2404 25.3516C25.8833 25.1708 25.3206 24.6429 25.1617 24.3412C25.1043 24.2314 25.0873 24.1126 25.124 24.0757C25.1849 24.0144 26.1468 24.475 26.5004 24.7354C26.6292 24.8302 28.3248 24.844 28.4165 24.7516C28.4657 24.702 28.5417 24.696 28.5852 24.7392C28.6286 24.7823 28.8461 24.8013 29.0684 24.782C29.2915 24.7627 29.6166 24.7829 29.7906 24.8276C29.965 24.8719 30.4001 24.8437 30.7583 24.7643C31.184 24.6705 31.3477 24.6531 31.4549 24.7335ZM14.1287 15.0034C14.2168 15.1365 14.3462 15.3204 14.4166 15.4134C14.5872 15.64 14.7636 16.4485 14.7514 16.9526C14.7383 17.5192 14.5078 18.0377 14.0065 18.6281C13.6052 19.1004 13.2469 19.3945 11.9433 20.3225C11.3469 20.747 11.0519 20.7979 11.4739 20.4034C11.623 20.264 11.7447 20.0726 11.7441 19.9789C11.7435 19.8844 11.7994 19.7511 11.8683 19.6817C12.0642 19.4842 12.4023 18.0938 12.4074 17.4664C12.4095 17.1545 12.3378 16.5448 12.2465 16.1115C12.1561 15.6783 12.0869 15.3251 12.0923 15.3259C12.099 15.3273 12.3332 15.1937 12.6125 15.0289C13.2507 14.6539 13.8893 14.6433 14.1287 15.0034ZM10.5909 14.2343C10.9235 14.5394 11.1565 14.9558 11.2726 15.4592C11.3433 15.7674 11.4279 16.0463 11.4605 16.0786C11.4935 16.1114 11.5348 16.5299 11.5517 17.0092C11.5754 17.6492 11.5075 18.098 11.297 18.697C11.036 19.4391 10.9513 19.5725 10.3577 20.1761C9.36336 21.1864 9.00136 21.5304 8.96694 21.4963C8.90989 21.4397 8.46787 20.4061 8.26191 19.8484C8.1507 19.5484 7.86623 18.8107 7.62895 18.2094C7.39076 17.6062 7.20255 16.9337 7.20882 16.7082C7.2217 16.2396 7.50407 15.4605 7.8882 14.8334C8.1872 14.3446 8.19973 14.3319 8.74887 13.9723C9.22405 13.661 9.68582 13.6593 10.2256 13.9685C10.3584 14.0439 10.48 14.1332 10.5909 14.2343ZM6.45144 14.7444C6.71282 15.0181 6.73625 15.0959 6.61909 15.2937C6.5447 15.4203 6.51311 15.5535 6.54934 15.5895C6.58557 15.6254 6.57743 15.6925 6.53091 15.7394C6.32335 15.9486 6.34541 17.0503 6.56851 17.6143C6.94339 18.5625 7.31434 19.6042 7.30813 19.6911C7.3048 19.7352 7.3568 19.8485 7.42399 19.9429C7.49073 20.0369 7.66147 20.4309 7.80337 20.8177L8.06108 21.5207L7.59494 21.1772C6.91404 20.6761 5.8454 19.6238 5.76782 19.3777C5.73065 19.2612 5.57463 18.9928 5.42165 18.781C5.26823 18.5698 4.97309 18.0014 4.7658 17.5183C4.45484 16.792 4.39409 16.5009 4.41612 15.8365C4.44075 15.0826 4.46596 15.0101 4.82203 14.6513C5.11278 14.3582 5.28324 14.2643 5.55094 14.249C5.92933 14.2282 5.99301 14.2636 6.45144 14.7444ZM19.392 29.7539C19.4156 29.7872 19.3961 29.843 19.3522 29.9489C19.3012 30.0727 18.9969 30.44 18.6817 30.7696C18.1128 31.3583 18.089 31.3714 16.9694 31.6991C16.3454 31.8825 15.7887 32.0531 15.7327 32.0797C15.6766 32.1055 15.348 32.1866 15.0033 32.2596C14.6581 32.3331 14.34 32.4281 14.2966 32.4719C14.2532 32.5156 14.1812 32.5157 14.1364 32.4712C13.9235 32.2601 13.2449 32.1316 12.7192 32.2031C12.0375 32.2961 12.1524 32.1104 12.9318 31.8602C13.6662 31.6245 14.3724 31.334 14.6629 31.1462C15.7819 30.4261 18.2956 29.6198 19.1747 29.7003C19.3026 29.7118 19.3688 29.7211 19.392 29.7539ZM11.1189 44.054C11.1702 44.1934 11.0969 44.4177 10.9021 44.7326C10.6757 45.0984 10.5195 45.2459 10.0863 45.504C9.33295 45.9518 8.73461 46.216 8.08755 46.3882C7.78109 46.4697 7.51694 46.5502 7.49949 46.5678C7.4476 46.6201 5.07794 46.9886 5.04035 46.9513C5.02133 46.9325 5.97411 46.7792 6.39072 46.5323C6.80688 46.285 7.37087 46.0698 7.19634 45.9405C7.02136 45.8107 5.30602 46.1637 5.31549 46.1668C5.32224 46.1673 6.42184 45.588 6.80122 45.3614C7.79137 44.7693 8.21126 44.5444 8.52433 44.44C8.67525 44.3893 8.9505 44.284 9.13455 44.2054C9.3186 44.1267 9.4948 44.0877 9.52514 44.1178C9.55548 44.1479 9.63004 44.1235 9.69043 44.0626C9.75082 44.0018 9.83308 43.985 9.87429 44.0259C9.91504 44.0663 9.99242 44.0608 10.0425 44.0103C10.094 43.9612 10.3416 43.9045 10.5922 43.8847C10.8936 43.8608 11.0681 43.915 11.1189 44.054ZM1.51564 35.0406C1.692 35.2487 1.92199 35.5431 2.22595 35.9351C2.95861 36.8777 3.34663 37.5463 3.8822 38.7898C4.01095 39.0876 4.14103 39.3079 4.17055 39.2781C4.20098 39.2493 4.2138 39.2853 4.2003 39.3586C4.18679 39.432 4.2705 39.7969 4.38575 40.1689C4.61164 40.895 4.73771 41.7832 4.61573 41.7829C4.53607 41.7835 4.02934 40.9846 3.63135 40.2318C3.30713 39.6194 2.98688 39.4331 2.71894 39.7032C2.54851 39.8749 2.54554 39.9776 2.70213 40.3369C2.80439 40.5726 3.14033 41.1161 3.44812 41.545C3.7559 41.9739 4.00958 42.3866 4.01184 42.4613C4.01415 42.5459 3.97869 42.5608 3.9171 42.4997C3.86322 42.4463 3.67982 42.4119 3.51022 42.4243C3.23129 42.4446 3.13549 42.3818 2.52549 41.772C2.01196 41.2598 1.77462 40.942 1.53848 40.4536C1.05023 39.4413 0.860508 38.888 0.793302 38.2774C0.758986 37.966 0.712532 37.7302 0.689271 37.7537C0.601597 37.8421 0.685733 35.6352 0.786143 35.2016L0.787048 35.2025C0.934383 34.5677 0.986112 34.4159 1.51564 35.0406Z" fill="#1A1A1A" stroke="#9BAF8A" stroke-width="2" mask="url(#path-1-inside-1_66_20)"/>
</svg>
